<svg width="72" height="50" viewBox="0 0 72 50" fill="none" xmlns="http://www.w3.org/2000/svg">
<path d="M58.4007 43.4963H12.7337C12.5037 43.4961 12.2806 43.4179 12.1008 43.2745C11.921 43.1311 11.7952 42.9309 11.7439 42.7067L6.44357 19.5216C6.3836 19.2589 6.43048 18.983 6.57388 18.7548C6.71728 18.5266 6.94547 18.3647 7.20824 18.3048C7.47101 18.2448 7.74683 18.2917 7.97504 18.4351C8.20325 18.5785 8.36514 18.8067 8.42511 19.0694L13.5446 41.4639H57.5897L62.7092 19.0694C62.7692 18.8067 62.9311 18.5785 63.1593 18.4351C63.3875 18.2917 63.6633 18.2448 63.9261 18.3048C64.1889 18.3647 64.4171 18.5266 64.5605 18.7548C64.7039 18.983 64.7507 19.2589 64.6908 19.5216L59.3904 42.7037C59.3397 42.9284 59.2142 43.1293 59.0343 43.2733C58.8545 43.4173 58.631 43.4959 58.4007 43.4963V43.4963Z" fill="#A38977"/>
<path d="M47.0804 27.8707C47.0019 27.8721 46.9234 27.8643 46.8467 27.8473C46.7156 27.8156 46.5921 27.7582 46.4834 27.6783C46.3747 27.5984 46.283 27.4976 46.2136 27.3819L36.1768 10.612C36.1032 10.4974 36.0533 10.3693 36.0302 10.2351C36.0071 10.1009 36.0112 9.96343 36.0422 9.83084C36.0732 9.69826 36.1306 9.57327 36.2109 9.46329C36.2912 9.35331 36.3927 9.26059 36.5095 9.19063C36.6264 9.12067 36.7561 9.07491 36.8909 9.05605C37.0258 9.0372 37.163 9.04564 37.2946 9.08088C37.4261 9.11611 37.5492 9.17742 37.6566 9.26116C37.7639 9.34491 37.8534 9.44937 37.9196 9.56836L47.4239 25.4451L61.1667 16.8726C61.3957 16.7299 61.6721 16.6841 61.935 16.7451C62.1979 16.8062 62.4258 16.9692 62.5685 17.1983C62.7112 17.4274 62.757 17.7038 62.696 17.9667C62.6349 18.2296 62.4719 18.4574 62.2428 18.6001L47.618 27.7172C47.4565 27.8172 47.2704 27.8704 47.0804 27.8707V27.8707Z" fill="#A38977"/>
<path d="M24.0539 27.8705C23.864 27.8702 23.6779 27.8171 23.5164 27.7171L8.89156 18.6C8.66248 18.4573 8.49947 18.2294 8.43839 17.9665C8.37731 17.7036 8.42317 17.4272 8.56587 17.1982C8.70858 16.9691 8.93644 16.8061 9.19933 16.745C9.46222 16.6839 9.73861 16.7298 9.96769 16.8725L23.7135 25.4459L33.2178 9.56921C33.2814 9.44572 33.3697 9.33659 33.4772 9.24857C33.5847 9.16055 33.7091 9.09549 33.8427 9.05743C33.9763 9.01937 34.1163 9.00911 34.254 9.02729C34.3917 9.04546 34.5243 9.09169 34.6434 9.1631C34.7626 9.23451 34.8659 9.3296 34.9468 9.44249C35.0278 9.55538 35.0847 9.68368 35.1142 9.81945C35.1436 9.95522 35.1449 10.0956 35.1179 10.2319C35.091 10.3681 35.0364 10.4975 34.9575 10.6118L24.9227 27.3787C24.8534 27.4944 24.7617 27.5952 24.653 27.6751C24.5443 27.755 24.4208 27.8125 24.2897 27.8441C24.2124 27.8623 24.1333 27.8712 24.0539 27.8705V27.8705Z" fill="#A38977"/>
<path d="M54.7962 23.0519C54.6066 23.0531 54.4205 23.0011 54.2589 22.902C54.0973 22.8029 53.9666 22.6605 53.8817 22.491L50.384 15.5089C50.2627 15.2678 50.2422 14.9884 50.3269 14.7322C50.4116 14.476 50.5946 14.2639 50.8357 14.1426C51.0768 14.0213 51.3561 14.0008 51.6124 14.0855C51.8686 14.1702 52.0806 14.3532 52.2019 14.5943L55.6986 21.5764C55.7762 21.7313 55.8129 21.9034 55.8053 22.0764C55.7976 22.2495 55.7459 22.4177 55.655 22.5651C55.5641 22.7125 55.437 22.8342 55.2858 22.9187C55.1346 23.0032 54.9643 23.0477 54.7911 23.0479L54.7962 23.0519Z" fill="#A38977"/>
<path d="M42.6336 20.4444C42.4304 20.4444 42.2319 20.3835 42.0636 20.2696C41.8953 20.1556 41.7651 19.9938 41.6897 19.8051C41.6143 19.6164 41.5973 19.4094 41.6407 19.2109C41.6842 19.0124 41.7862 18.8314 41.9335 18.6915L47.1729 13.7122C47.2691 13.6174 47.3832 13.5428 47.5085 13.4926C47.6339 13.4424 47.768 13.4177 47.903 13.4199C48.038 13.4222 48.1712 13.4513 48.2949 13.5056C48.4185 13.5599 48.53 13.6383 48.623 13.7362C48.716 13.8341 48.7885 13.9496 48.8364 14.0759C48.8843 14.2021 48.9065 14.3367 48.9017 14.4716C48.897 14.6066 48.8654 14.7392 48.8088 14.8618C48.7522 14.9844 48.6718 15.0945 48.5722 15.1857L43.3328 20.1649C43.1441 20.3442 42.8939 20.4442 42.6336 20.4444V20.4444Z" fill="#A38977"/>
<path d="M28.5007 20.4444C28.2405 20.4442 27.9902 20.3442 27.8016 20.1649L22.5621 15.1857C22.4625 15.0945 22.3821 14.9844 22.3255 14.8618C22.2689 14.7392 22.2373 14.6066 22.2326 14.4716C22.2279 14.3367 22.2501 14.2021 22.2979 14.0759C22.3458 13.9496 22.4183 13.8341 22.5113 13.7362C22.6043 13.6383 22.7158 13.5599 22.8395 13.5056C22.9631 13.4513 23.0963 13.4222 23.2313 13.4199C23.3663 13.4177 23.5004 13.4424 23.6258 13.4926C23.7511 13.5428 23.8652 13.6174 23.9614 13.7122L29.2008 18.6915C29.3482 18.8314 29.4501 19.0124 29.4936 19.2109C29.5371 19.4094 29.52 19.6164 29.4446 19.8051C29.3692 19.9938 29.239 20.1556 29.0707 20.2696C28.9025 20.3835 28.7039 20.4444 28.5007 20.4444V20.4444Z" fill="#A38977"/>
<path d="M16.3381 23.0519C16.1649 23.0517 15.9946 23.0073 15.8434 22.9228C15.6922 22.8383 15.5651 22.7165 15.4742 22.5691C15.3833 22.4217 15.3316 22.2535 15.324 22.0805C15.3163 21.9074 15.3531 21.7353 15.4306 21.5805L18.9273 14.5983C19.0486 14.3572 19.2607 14.1742 19.5169 14.0895C19.7731 14.0048 20.0525 14.0254 20.2936 14.1466C20.5346 14.2679 20.7177 14.48 20.8024 14.7362C20.8871 14.9924 20.8665 15.2718 20.7452 15.5129L17.2476 22.495C17.1625 22.663 17.0323 22.804 16.8718 22.9023C16.7112 23.0007 16.5264 23.0525 16.3381 23.0519Z" fill="#A38977"/>
<path d="M65.4601 20.6608C64.338 20.6608 63.2411 20.3281 62.3081 19.7047C61.3752 19.0813 60.648 18.1953 60.2186 17.1586C59.7892 16.1219 59.6769 14.9812 59.8958 13.8807C60.1147 12.7802 60.655 11.7693 61.4484 10.9759C62.2419 10.1825 63.2527 9.64213 64.3533 9.42322C65.4538 9.20432 66.5945 9.31667 67.6312 9.74607C68.6678 10.1755 69.5539 10.9026 70.1773 11.8356C70.8007 12.7686 71.1334 13.8654 71.1334 14.9875C71.1318 16.4917 70.5335 17.9338 69.4699 18.9974C68.4063 20.061 66.9642 20.6592 65.4601 20.6608V20.6608ZM65.4601 11.3466C64.74 11.3466 64.036 11.5601 63.4373 11.9602C62.8385 12.3602 62.3718 12.9289 62.0963 13.5942C61.8207 14.2595 61.7486 14.9916 61.8891 15.6978C62.0296 16.4041 62.3763 17.0529 62.8855 17.5621C63.3947 18.0713 64.0435 18.418 64.7498 18.5585C65.456 18.699 66.1881 18.6269 66.8534 18.3513C67.5187 18.0757 68.0873 17.6091 68.4874 17.0103C68.8875 16.4116 69.101 15.7076 69.101 14.9875C69.1002 14.0221 68.7164 13.0965 68.0337 12.4139C67.3511 11.7312 66.4255 11.3474 65.4601 11.3466V11.3466Z" fill="#A38977"/>
<path d="M50.191 16.2294C49.2026 16.2294 48.2364 15.9363 47.4145 15.3871C46.5927 14.838 45.9521 14.0575 45.5739 13.1443C45.1956 12.2311 45.0966 11.2263 45.2895 10.2568C45.4823 9.2874 45.9583 8.39693 46.6572 7.69801C47.3561 6.99908 48.2466 6.52311 49.216 6.33028C50.1855 6.13745 51.1903 6.23642 52.1035 6.61467C53.0167 6.99293 53.7972 7.63347 54.3463 8.45532C54.8954 9.27716 55.1885 10.2434 55.1885 11.2318C55.1872 12.5568 54.6602 13.8272 53.7233 14.7641C52.7864 15.7011 51.516 16.228 50.191 16.2294ZM50.191 8.26762C49.6045 8.26762 49.0312 8.44156 48.5435 8.76742C48.0559 9.09329 47.6758 9.55645 47.4514 10.0983C47.227 10.6402 47.1684 11.2365 47.2829 11.8117C47.3973 12.3869 47.6799 12.9152 48.0946 13.3299C48.5094 13.7446 49.0379 14.0269 49.6131 14.1412C50.1884 14.2555 50.7846 14.1966 51.3264 13.972C51.8682 13.7474 52.3313 13.3672 52.657 12.8795C52.9827 12.3917 53.1564 11.8183 53.1562 11.2318C53.1554 10.4457 52.8427 9.69209 52.2868 9.13635C51.7308 8.5806 50.9771 8.26816 50.191 8.26762V8.26762Z" fill="#A38977"/>
<path d="M20.9434 16.2294C19.9549 16.2296 18.9886 15.9366 18.1666 15.3876C17.3446 14.8386 16.7039 14.0582 16.3255 13.145C15.9471 12.2318 15.848 11.2269 16.0407 10.2575C16.2334 9.28796 16.7093 8.39738 17.4082 7.69836C18.1071 6.99934 18.9975 6.52327 19.967 6.33036C20.9365 6.13744 21.9413 6.23635 22.8546 6.61457C23.7678 6.9928 24.5484 7.63334 25.0976 8.45521C25.6468 9.27707 25.9399 10.2433 25.9399 11.2318C25.9385 12.5566 25.4117 13.8269 24.475 14.7638C23.5383 15.7007 22.2682 16.2277 20.9434 16.2294ZM20.9434 8.26762C20.3568 8.26742 19.7834 8.44118 19.2956 8.76692C18.8078 9.09267 18.4276 9.55576 18.2031 10.0976C17.9785 10.6395 17.9197 11.2358 18.0341 11.8111C18.1485 12.3863 18.4309 12.9148 18.8456 13.3295C19.2604 13.7443 19.7888 14.0267 20.3641 14.1411C20.9394 14.2555 21.5357 14.1967 22.0775 13.9721C22.6194 13.7476 23.0825 13.3673 23.4082 12.8796C23.734 12.3918 23.9077 11.8184 23.9075 11.2318C23.9067 10.4459 23.5942 9.69242 23.0385 9.1367C22.4827 8.58098 21.7293 8.26843 20.9434 8.26762V8.26762Z" fill="#A38977"/>
<path d="M5.67433 20.6608C4.55221 20.661 3.45524 20.3285 2.52213 19.7052C1.58903 19.0819 0.861705 18.196 0.432149 17.1593C0.00259389 16.1227 -0.109901 14.9819 0.10889 13.8813C0.327681 12.7808 0.867931 11.7698 1.66132 10.9762C2.4547 10.1827 3.46559 9.64229 4.56613 9.4233C5.66667 9.20431 6.80744 9.3166 7.84416 9.74597C8.88088 10.1753 9.76699 10.9025 10.3904 11.8355C11.0139 12.7685 11.3466 13.8654 11.3466 14.9875C11.345 16.4915 10.7469 17.9334 9.68353 18.997C8.62014 20.0606 7.17831 20.659 5.67433 20.6608ZM5.67433 11.3466C4.95417 11.3464 4.25013 11.5597 3.65124 11.9597C3.05236 12.3596 2.58553 12.9282 2.3098 13.5935C2.03407 14.2588 1.96182 14.9909 2.10219 15.6972C2.24256 16.4036 2.58925 17.0524 3.09841 17.5617C3.60756 18.071 4.25632 18.4179 4.96262 18.5584C5.66893 18.699 6.40106 18.627 7.06641 18.3514C7.73177 18.0759 8.30047 17.6092 8.70059 17.0104C9.10071 16.4117 9.31427 15.7077 9.31427 14.9875C9.3132 14.0224 8.92939 13.0971 8.24703 12.4145C7.56467 11.732 6.63947 11.3479 5.67433 11.3466V11.3466Z" fill="#A38977"/>
<path d="M35.5672 11.3466C34.4451 11.3466 33.3482 11.0139 32.4152 10.3905C31.4823 9.76711 30.7551 8.88106 30.3257 7.8444C29.8963 6.80773 29.784 5.66702 30.0029 4.56651C30.2218 3.46599 30.7621 2.4551 31.5555 1.66168C32.349 0.86825 33.3599 0.32792 34.4604 0.109014C35.5609 -0.109892 36.7016 0.00245843 37.7382 0.431858C38.7749 0.861257 39.661 1.58842 40.2843 2.52139C40.9077 3.45436 41.2405 4.55124 41.2405 5.67331C41.2389 7.17747 40.6406 8.61956 39.577 9.68317C38.5134 10.7468 37.0713 11.345 35.5672 11.3466V11.3466ZM35.5672 2.03642C34.847 2.03642 34.143 2.24998 33.5443 2.6501C32.9455 3.05022 32.4788 3.61892 32.2033 4.28428C31.9277 4.94964 31.8557 5.68176 31.9962 6.38807C32.1368 7.09437 32.4837 7.74313 32.993 8.25228C33.5023 8.76144 34.1511 9.10813 34.8575 9.2485C35.5638 9.38887 36.2959 9.31662 36.9612 9.04089C37.6265 8.76516 38.1951 8.29833 38.595 7.69945C38.995 7.10056 39.2083 6.39652 39.2081 5.67636C39.207 4.71114 38.8231 3.78578 38.1405 3.10336C37.4579 2.42095 36.5324 2.03723 35.5672 2.03642Z" fill="#A38977"/>
<path d="M36.8577 49.9999H33.9108C33.6413 49.9999 33.3829 49.8928 33.1923 49.7023C33.0017 49.5117 32.8947 49.2532 32.8947 48.9837C32.8947 48.7142 33.0017 48.4557 33.1923 48.2652C33.3829 48.0746 33.6413 47.9675 33.9108 47.9675H36.8577C37.1273 47.9675 37.3857 48.0746 37.5763 48.2652C37.7669 48.4557 37.8739 48.7142 37.8739 48.9837C37.8739 49.2532 37.7669 49.5117 37.5763 49.7023C37.3857 49.8928 37.1273 49.9999 36.8577 49.9999Z" fill="#A38977"/>
<path d="M60.7582 50H54.1023C53.8327 50 53.5743 49.8929 53.3837 49.7024C53.1931 49.5118 53.0861 49.2533 53.0861 48.9838C53.0861 48.7143 53.1931 48.4558 53.3837 48.2653C53.5743 48.0747 53.8327 47.9676 54.1023 47.9676H60.7582L60.6871 43.4253L58.4007 43.4965H10.3762L10.4473 48.0388L26.7976 47.9676C27.0671 47.9676 27.3256 48.0747 27.5161 48.2653C27.7067 48.4558 27.8138 48.7143 27.8138 48.9838C27.8138 49.2533 27.7067 49.5118 27.5161 49.7024C27.3256 49.8929 27.0671 50 26.7976 50H10.3762C9.85622 49.9995 9.35768 49.7927 8.99 49.425C8.62232 49.0573 8.41552 48.5588 8.41498 48.0388V43.4253C8.41552 42.9054 8.62232 42.4068 8.99 42.0391C9.35768 41.6715 9.85622 41.4646 10.3762 41.4641H60.7582C61.2782 41.4646 61.7767 41.6715 62.1444 42.0391C62.5121 42.4068 62.7189 42.9054 62.7194 43.4253V48.0388C62.7189 48.5588 62.5121 49.0573 62.1444 49.425C61.7767 49.7927 61.2782 49.9995 60.7582 50Z" fill="#A38977"/>
<path d="M10.3762 41.4641H17.0321C17.3017 41.4641 17.5601 41.5712 17.7507 41.7617C17.9413 41.9523 18.0483 42.2108 18.0483 42.4803C18.0483 42.7498 17.9413 43.0083 17.7507 43.1988C17.5601 43.3894 17.3017 43.4965 17.0321 43.4965H10.3762L10.4473 48.0388L12.7337 47.9676L60.7582 47.9676L60.6871 43.4253L44.3368 43.4965C44.0673 43.4965 43.8088 43.3894 43.6183 43.1988C43.4277 43.0083 43.3206 42.7498 43.3206 42.4803C43.3206 42.2108 43.4277 41.9523 43.6183 41.7617C43.8088 41.5712 44.0673 41.4641 44.3368 41.4641H60.7582C61.2782 41.4646 61.7767 41.6714 62.1444 42.0391C62.5121 42.4068 62.7189 42.9054 62.7194 43.4253V48.0388C62.7189 48.5588 62.5121 49.0573 62.1444 49.425C61.7767 49.7927 61.2782 49.9995 60.7582 50L10.3762 50C9.85621 49.9995 9.35768 49.7927 8.98999 49.425C8.62231 49.0573 8.41551 48.5588 8.41497 48.0388V43.4253C8.41551 42.9054 8.62231 42.4068 8.98999 42.0391C9.35768 41.6714 9.85621 41.4646 10.3762 41.4641Z" fill="#A38977"/>
<path d="M46.989 49.9999H43.971C43.7014 49.9999 43.443 49.8928 43.2524 49.7023C43.0618 49.5117 42.9548 49.2532 42.9548 48.9837C42.9548 48.7142 43.0618 48.4557 43.2524 48.2652C43.443 48.0746 43.7014 47.9675 43.971 47.9675H46.989C47.2585 47.9675 47.517 48.0746 47.7076 48.2652C47.8981 48.4557 48.0052 48.7142 48.0052 48.9837C48.0052 49.2532 47.8981 49.5117 47.7076 49.7023C47.517 49.8928 47.2585 49.9999 46.989 49.9999Z" fill="#A38977"/>
</svg>
