<svg id="Layer_1" data-name="Layer 1" xmlns="http://www.w3.org/2000/svg" viewBox="0 0 197.92 55.93"><defs><style>.cls-1{fill:#fff;fill-rule:evenodd;}</style></defs><title>1Artboard 1</title><path class="cls-1" d="M54.28,47.49a6.42,6.42,0,0,0-6.41,6.41v.62l-.62.09L27.6,57.46h-.2L7.75,54.61l-.62-.09V53.9a6.33,6.33,0,0,0-1.88-4.53A6.34,6.34,0,0,0,.72,47.49H0V10.63H.72A6.38,6.38,0,0,0,5.25,8.76,6.37,6.37,0,0,0,7.13,4.22V3.6l.62-.09c9.07-1.32,14.4-2,19.75-2s10.68.65,19.75,2l.62.09v.62a6.4,6.4,0,0,0,6.41,6.41H55V47.49Zm-5.55.86a7.83,7.83,0,0,1,4.83-2.27V12a7.77,7.77,0,0,1-4.83-2.27,7.81,7.81,0,0,1-2.28-4.92C37.82,3.6,32.66,3,27.5,3S17.18,3.6,8.55,4.85A7.76,7.76,0,0,1,6.27,9.77,7.77,7.77,0,0,1,1.44,12v34a7.83,7.83,0,0,1,4.83,2.27,7.79,7.79,0,0,1,2.28,4.92L27.5,56l19-2.76a7.84,7.84,0,0,1,2.28-4.92Zm0,0" transform="translate(0 -1.54)"/><path class="cls-1" d="M51.94,44.72V13.4a9.43,9.43,0,0,1-4.45-2.58A9.53,9.53,0,0,1,45,6.28C37,5.11,32.25,4.53,27.5,4.53S18,5.11,10,6.28a9.53,9.53,0,0,1-2.46,4.54A9.43,9.43,0,0,1,3.06,13.4V44.72A9.52,9.52,0,0,1,7.51,47.3,9.53,9.53,0,0,1,10,51.84L27.5,54.39,45,51.84a9.51,9.51,0,0,1,6.91-7.12Zm.36-31.46V45l-.14,0a9.09,9.09,0,0,0-6.8,7l0,.12-.12,0L27.53,54.75h-.06L9.79,52.18l-.12,0,0-.12a9.12,9.12,0,0,0-2.38-4.49A9.06,9.06,0,0,0,2.84,45L2.7,45V13.12l.14,0a9.16,9.16,0,0,0,4.42-2.52A9.12,9.12,0,0,0,9.64,6.08l0-.12.12,0C17.93,4.76,22.71,4.17,27.5,4.17s9.57.59,17.71,1.77l.12,0,0,.12a9.12,9.12,0,0,0,6.8,7l.14,0Zm0,0" transform="translate(0 -1.54)"/><path class="cls-1" d="M13.5,15.43h0l-.05,0L12.93,15c-.07-.07-.1-.13,0-.2a.18.18,0,0,1,0-.07s0,0,0-.06,0,0-.06,0l-.25.3-.29.32s0,.06,0,.07,0,0,0,0l.09-.09c.08-.06.13,0,.22,0l.49.41.41.35c.21.19.39.34.48.44s.1.12.07.17a.24.24,0,0,1-.06.09s0,.05,0,.06,0,0,.07,0l.24-.3.32-.35s0-.05,0-.07,0,0,0,0a.63.63,0,0,1-.11.12c-.07.06-.13,0-.2,0s-.29-.23-.51-.42l-.2-.17s0,0,0,0l.76-.89h0l.2.17c.21.19.39.34.48.44s.1.12.07.17a.37.37,0,0,1-.06.1s0,0,0,.05,0,0,.07,0,.19-.24.24-.29l.32-.36s0-.05,0-.07,0,0-.05,0l-.11.11c-.07.06-.13,0-.2,0s-.29-.23-.5-.42l-.41-.35c-.35-.29-.42-.35-.49-.42s-.1-.13-.06-.2l.06-.07s0-.05,0-.06,0,0-.06,0l-.25.3-.29.32s0,.06,0,.07,0,0,.06,0a.3.3,0,0,1,.08-.08c.08-.07.13-.05.22,0l.49.42.05,0s0,0,0,0Zm2.89-2.12h0l.58.34a0,0,0,0,1,0,.07s0,0,0,0,0,0,.09,0l.45-.35c.09-.07.11-.09.09-.11s0,0,0,0l-.11.06c-.06,0-.16.05-.42-.09-.44-.24-1.57-.9-1.73-1s-.1,0-.13,0,0,0,0,.14l.57,2c.05.16.07.27,0,.38l-.07.06s0,0,0,0,0,0,.07,0l.27-.23.26-.19s0,0,0-.06,0,0-.05,0l0,0a.1.1,0,0,1-.16,0A1.44,1.44,0,0,1,16,14.2l-.12-.43s0,0,0,0Zm-.58.26s0,0,0,0l-.24-.76s0,0,0,0h0l.68.42a0,0,0,0,1,0,0Zm1.65-1.17c.16.25.29.45.35.57s.05.13,0,.17a.36.36,0,0,1-.09.08,0,0,0,0,0,0,0s0,0,.07,0l.32-.21c.07,0,.24-.14.4-.25s.05,0,0-.06,0,0-.06,0l-.13.07a.14.14,0,0,1-.19-.06c-.08-.1-.21-.3-.37-.55l-.29-.45a5.48,5.48,0,0,1-.34-.55c-.06-.09-.06-.15,0-.21a.18.18,0,0,1,.07-.05s0,0,0,0,0,0-.06,0l-.31.21-.34.2s-.06,0-.05.06,0,0,.06,0l.1,0q.09,0,.18.09c.06.08.1.15.35.54Zm1.27-.79c.12.25.22.47.26.59s0,.16,0,.2l-.09,0s0,0,0,0,0,0,.07,0l.34-.17.4-.18s.06,0,.05-.06h-.05l-.14.05c-.09,0-.13,0-.18-.1s-.17-.33-.29-.58l0,0s0,0,0,0l.24-.11a.06.06,0,0,1,.06,0l.45.25a1.22,1.22,0,0,0,.57.23.59.59,0,0,0,.32-.08l.26-.13s.05,0,0,0h0l-.08,0a.57.57,0,0,1-.39,0c-.25-.09-.55-.25-.94-.44a.88.88,0,0,0,.07-.79.5.5,0,0,0-.37-.29,1,1,0,0,0-.56.12l-.38.19-.38.17c-.05,0-.06,0-.05.05s0,0,.05,0l.12-.05c.1,0,.14,0,.19.11s.08.16.28.58Zm-.2-1.26s0,0,0,0l.14-.08a.5.5,0,0,1,.66.31.51.51,0,0,1,0,.49c0,.06-.06.09-.17.14a1,1,0,0,1-.23.07s0,0,0,0Zm3.72.85a1.66,1.66,0,0,0,.5-.24.11.11,0,0,0,.05-.11,2.47,2.47,0,0,0-.07-.4,0,0,0,0,0,0,0s0,0,0,.07a.66.66,0,0,1,0,.23c-.07.17-.22.25-.48.33a1,1,0,0,1-1.25-.73,1,1,0,0,1,0-.84.81.81,0,0,1,.48-.36,1,1,0,0,1,.65,0,.41.41,0,0,1,.2.23s0,.06.05.06,0,0,0-.08-.06-.22-.09-.32,0-.14,0-.16,0,0-.05,0l-.31,0a3.41,3.41,0,0,0-.43.11,1.33,1.33,0,0,0-.81.6,1.12,1.12,0,0,0-.08.91,1.16,1.16,0,0,0,.63.74,1.55,1.55,0,0,0,1.1,0Zm1-1.31a.86.86,0,0,0,1.13.82.94.94,0,0,0,.58-.33,1.18,1.18,0,0,0,.11-1L25,9.1c-.08-.45-.1-.54-.11-.63s0-.16.08-.2l.08,0s0,0,0,0,0,0-.07,0l-.34.07-.34.06s-.06,0-.06,0,0,0,.06,0l.11,0c.1,0,.13.05.16.15s0,.18.13.63l.07.38a1.05,1.05,0,0,1,0,.77.59.59,0,0,1-.38.24.53.53,0,0,1-.4,0c-.17-.09-.29-.26-.38-.69l-.08-.42c-.09-.45-.1-.54-.11-.63s0-.16.07-.19l.09,0s.05,0,0,0,0,0-.07,0l-.37.08-.44.07s-.06,0-.06,0a0,0,0,0,0,.06,0h.12c.1,0,.14,0,.16.14s0,.18.13.63Zm3.24-.33a5.35,5.35,0,0,1,0,.65c0,.08,0,.15-.07.17l-.11,0s-.05,0-.05,0,0,0,.06,0l.39,0,.47,0s.06,0,.06,0,0,0,0,0H27c-.09,0-.11-.07-.13-.16s0-.37-.05-.65l-.08-1.24.39,0c.27,0,.35.07.37.15v0c0,.05,0,.06,0,.06s0,0,0,0,0-.29,0-.35,0-.07,0-.06h-.08a.86.86,0,0,1-.21,0L26,8.17h-.31a.49.49,0,0,1-.13,0s0,0,0,.06a3.48,3.48,0,0,0-.05.36s0,0,0,0,0,0,0,0a.19.19,0,0,1,0-.1c0-.07.11-.09.29-.11l.45,0Zm2.49.21c0,.27.1.7.74.8a1,1,0,0,0,.76-.17.9.9,0,0,0,.67.34l.23,0c.07,0,.09,0,.1,0s0,0,0,0a1,1,0,0,1-.31-.15c-.07-.07-.19-.17-.37-.36a1.21,1.21,0,0,0,.4-.67s0-.06-.09-.08l-.36-.07s-.05,0-.05,0a0,0,0,0,0,0,0,.16.16,0,0,1,.14.07.16.16,0,0,1,0,.14.83.83,0,0,1-.22.44c-.05,0-.36-.44-.45-.58-.2-.3-.42-.58-.38-.87a.33.33,0,0,1,.38-.29.42.42,0,0,1,.31.19.41.41,0,0,1,.05.26s0,.06,0,.06,0,0,0,0,.08-.28.1-.38a.09.09,0,0,0,0-.09,1,1,0,0,0-.36-.12c-.52-.08-.78.2-.82.44a.75.75,0,0,0,.09.46.9.9,0,0,0-.6.63Zm.87.62a.58.58,0,0,1-.48-.7.53.53,0,0,1,.28-.43,3.52,3.52,0,0,0,.26.43c.07.09.31.42.46.6a.78.78,0,0,1-.52.1Zm3,.84a.94.94,0,0,0,.5,0,.64.64,0,0,0,.44-.42.94.94,0,0,0-.24-.89l-.06-.09c-.19-.26-.22-.38-.18-.52a.32.32,0,0,1,.44-.18A.36.36,0,0,1,34,9.4a.36.36,0,0,1,0,.22s0,.05,0,.06,0,0,.06-.08a3.53,3.53,0,0,1,.12-.34s0,0,0,0A1.45,1.45,0,0,0,33.8,9a.62.62,0,0,0-.85.34.88.88,0,0,0,.21.82l.1.15c.18.27.18.41.13.56a.37.37,0,0,1-.49.2.41.41,0,0,1-.32-.42.7.7,0,0,1,0-.16,0,0,0,0,0,0-.06s0,0,0,.06-.09.22-.14.38,0,.08,0,.12a1.25,1.25,0,0,0,.4.21Zm2.37-.62s0,0,0,0l0-.06c.2-.42.23-.5.28-.58s.09-.13.18-.11l.08,0s0,0,.06,0,0,0,0,0-.28-.13-.34-.16l-.4-.2s-.06,0-.07,0,0,0,0,0l.1.06c.08.06.08.11,0,.21s-.07.17-.26.59l-.23.48c-.12.25-.23.47-.3.58s-.09.13-.15.12l-.1,0a0,0,0,0,0-.06,0s0,0,0,.05l.35.16c.07,0,.24.13.42.21s.06,0,.07,0,0,0,0,0l-.14-.08c-.08-.05-.06-.12,0-.2s.15-.34.27-.6l.11-.24h0l1,.5s0,0,0,0l-.12.24c-.12.25-.22.47-.29.58s-.09.13-.15.11l-.1,0s0,0-.06,0,0,0,0,.05l.35.16.42.21h.07s0,0,0,0l-.14-.07c-.08-.05-.06-.12,0-.2s.15-.35.27-.6l.23-.48c.2-.42.23-.5.28-.59s.1-.13.18-.11l.08,0s0,0,.06,0,0,0,0,0l-.35-.15-.39-.2s-.06,0-.07,0,0,0,0,0l.1.06c.08.06.08.12,0,.22s-.07.16-.27.58l0,.06s0,0,0,0ZM38,12.84a0,0,0,0,1,0,0l-.16.65a.05.05,0,0,1-.07,0h-.05s0,0,.06.07l.47.34c.09.07.12.08.13.06s0,0,0,0a.38.38,0,0,1-.09-.09c-.05-.05-.09-.13,0-.42.11-.49.42-1.77.46-2s0-.1,0-.12-.06,0-.14.05L36.8,12.55c-.13.09-.24.15-.37.08l-.08-.05s0,0,0,0,0,0,0,.05l.3.21a2.35,2.35,0,0,1,.25.19s0,0,.07,0,0,0,0,0l0,0c-.07-.05-.07-.1,0-.14a.52.52,0,0,1,.15-.13l.37-.24s0,0,0,0Zm-.41-.49s0,0,0,0l.66-.45h0s0,0,0,0l-.21.77s0,0,0,0Zm1.3,2.16c-.06.14-.07.18,0,.21s.07,0,.25-.07l.94-.39.83-.35a.64.64,0,0,1,.31-.09.36.36,0,0,1,.13.08s0,0,0,0,0,0,0-.06l-.22-.19-.22-.23s-.07,0-.09,0,0,0,0,0a.86.86,0,0,1,.07.1,0,0,0,0,1,0,.06l-.09.07c-.2.09-1.16.53-1.48.69h0L39.85,13a.54.54,0,0,1,.11-.21.06.06,0,0,1,.06,0,.2.2,0,0,1,.11.07,0,0,0,0,0,0,0s0,0,0-.07l-.27-.25-.32-.31s-.06,0-.07,0,0,0,0,.05a.36.36,0,0,1,.08.09c.06.1.07.16,0,.33Zm1.78.8a5.6,5.6,0,0,1-.52.38c-.08.05-.14.08-.19,0l-.07-.08a.05.05,0,0,0-.05,0s0,0,0,.07l.14.16.1.14a2.21,2.21,0,0,1,.19.26l.31.42c.08.09.09.11.17.08a1.75,1.75,0,0,0,.29-.18s0,0,0-.05,0,0-.06,0a.25.25,0,0,1-.26,0,.64.64,0,0,1-.2-.2c-.19-.25-.19-.31,0-.45l.38-.29.19-.15a0,0,0,0,1,0,0l.26.35c.06.1,0,.16,0,.21a.27.27,0,0,1-.08.07s0,0,0,0,0,0,.06,0l.17-.12c.13-.08.18-.1.19-.12a0,0,0,0,0,0,0h-.06s-.08,0-.13-.09-.26-.33-.3-.38,0,0,0,0l.61-.47h0l.26.35c.08.13.07.18,0,.23l-.08.08s0,0,0,.05h0l.17-.11.17-.1s0,0,0,0,0,0,0,0a.73.73,0,0,1-.09-.09s-.41-.52-.47-.6a1.18,1.18,0,0,1-.11-.15l-.15-.2s0-.05-.06,0,0,0,0,.06l.06.1c0,.09,0,.14-.06.21s-.14.12-.5.4Zm0,0" transform="translate(0 -1.54)"/><path class="cls-1" d="M8.42,27c0,.22,0,.4,0,.49s0,.12-.07.13H8.26s0,0,0,0,0,0,0,0H9.2c.09,0,.11,0,.13-.06a2.06,2.06,0,0,0,0-.26s0,0,0,0,0,0,0,0,0,.15-.1.18a.56.56,0,0,1-.22,0c-.24,0-.27,0-.28-.2v-.54s0,0,0,0h.33a.12.12,0,0,1,.12.09.28.28,0,0,1,0,.09,0,0,0,0,0,0,0s0,0,0,0a.92.92,0,0,1,0-.15,1.15,1.15,0,0,1,0-.17s0,0,0,0l0,0a.14.14,0,0,1-.11,0H8.73s0,0,0,0V26s0,0,0,0h.33c.11,0,.14,0,.15.08a.45.45,0,0,1,0,.08s0,0,0,0a0,0,0,0,0,0,0,.81.81,0,0,0,0-.15c0-.11,0-.14,0-.15s0,0,0,0h0l-.1,0H8.24s-.05,0-.05,0h.13c.07,0,.09.06.1.13V27Zm1.79.7a.64.64,0,0,0,.37-.09.48.48,0,0,0,.21-.4c0-.22-.1-.38-.38-.59l-.06-.05c-.19-.15-.25-.23-.25-.33a.25.25,0,0,1,.28-.24.29.29,0,0,1,.25.11.26.26,0,0,1,.06.15s0,0,0,0,0,0,0-.06,0-.25,0-.28,0,0,0,0a1,1,0,0,0-.31,0c-.32,0-.53.18-.53.44a.67.67,0,0,0,.34.55l.1.08c.2.15.23.26.23.37a.28.28,0,0,1-.31.26.32.32,0,0,1-.33-.23.6.6,0,0,1,0-.12s0,0,0,0,0,0,0,.06,0,.18,0,.31,0,.06,0,.08a.87.87,0,0,0,.34.05Zm1.56-.7a3.05,3.05,0,0,1,0,.49c0,.07,0,.12-.06.13h-.08s0,0,0,0,0,0,0,0h.65s0,0,0,0,0,0,0,0h-.12c-.07,0-.08-.06-.09-.12s0-.28,0-.5V26h.29c.2,0,.27.07.27.13v0s0,0,0,0,0,0,0,0,0-.22,0-.26,0-.05,0-.05H11.29l-.1,0s0,0,0,.05-.05.23-.05.26,0,0,0,0,0,0,0,0,0,0,0-.08.09-.06.22-.07h.35Zm1.45,0a3.05,3.05,0,0,1,0,.49c0,.07,0,.12-.06.13h-.09s0,0,0,0,0,0,0,0h.79a1,1,0,0,0,.77-.27.91.91,0,0,0,.25-.65.8.8,0,0,0-.22-.58,1.21,1.21,0,0,0-.93-.27H13s0,0,0,0h.13a.11.11,0,0,1,.1.13,4.29,4.29,0,0,1,0,.49Zm.29-.44v-.47s0,0,0,0l.14,0a.92.92,0,0,1,.66.23.81.81,0,0,1,.23.58.74.74,0,0,1-.2.58.75.75,0,0,1-.53.16c-.19,0-.28,0-.3-.09a.4.4,0,0,1,0-.17v-.76Zm27.42.29c0,.26,0,.49,0,.61s0,.12-.11.14l-.22,0s0,0,0,0,0,0,0,0h.91s0,0,0,0,0,0,0,0h-.18c-.09,0-.1-.06-.11-.15s0-.35,0-.61v-.5c0-.41,0-.68,0-.7s0-.05,0-.05a.15.15,0,0,0-.07,0l-.63.42s0,0,0,0a0,0,0,0,0,0,0h0c.07,0,.27-.13.32-.13s0,0,0,.1v.78Zm1.86-1.25a.63.63,0,0,0-.69.62.52.52,0,0,0,.55.53.48.48,0,0,0,.36-.13.1.1,0,0,0,0,0l0,0,0,0a.61.61,0,0,1-.19,0c-.09,0-.36-.1-.36-.51,0-.23.13-.4.33-.4s.41.21.41.69a1.5,1.5,0,0,1-.7,1.24s0,0,0,.05l0,0h0a1.67,1.67,0,0,0,1-1.39.66.66,0,0,0-.68-.73Zm1.75,0a.63.63,0,0,0-.69.62.53.53,0,0,0,.55.53.48.48,0,0,0,.36-.13s0,0,0,0l0,0,0,0a.59.59,0,0,1-.18,0c-.1,0-.36-.1-.36-.51,0-.23.13-.4.32-.4s.41.21.41.69a1.5,1.5,0,0,1-.7,1.24s0,0,0,.05,0,0,0,0h0a1.67,1.67,0,0,0,1-1.39.67.67,0,0,0-.69-.73ZM46,27.68a.79.79,0,0,0,.89-.76c0-.47-.49-.69-.89-.75l0-.33h.49c.21,0,.23.07.23.14s0,0,0,0a0,0,0,0,0,0,0,2.26,2.26,0,0,0,0-.35s0-.05,0-.05H46a0,0,0,0,0,0,0l-.07.71a0,0,0,0,0,0,.05c.21,0,.68.21.68.64a.45.45,0,0,1-.44.5.33.33,0,0,1-.37-.36s0-.05,0-.05,0,0,0,.05,0,.25,0,.34,0,.08,0,.1a.66.66,0,0,0,.25.05Zm0,0" transform="translate(0 -1.54)"/><path class="cls-1" d="M6.3,34.21H48.71v.22H6.3ZM6.3,43H48.71v.23H6.3Zm0,0" transform="translate(0 -1.54)"/><path class="cls-1" d="M28.46,28.31a1.07,1.07,0,0,0,.34-.81V25.77a1.05,1.05,0,0,0-.34-.81,1.42,1.42,0,0,0-1.84,0,1.1,1.1,0,0,0-.33.82V27.5a1.1,1.1,0,0,0,.33.81,1.45,1.45,0,0,0,1.84,0Zm8.16-1.68c0,1.17.9,4.13-.26,4.13-2.88,0-6.68-2-7.4-2.42a1.18,1.18,0,0,0,.33-.84V25.77a1.22,1.22,0,0,0-.22-.71c.88-.57,4.11-2.56,7.29-2.56,1.16,0,.26,3,.26,4.13ZM26.13,28.34c-.73.4-4.53,2.42-7.4,2.42-1.17,0-.27-3-.27-4.13s-.9-4.13.27-4.13c3.18,0,6.4,2,7.28,2.56a1.29,1.29,0,0,0-.21.71V27.5a1.18,1.18,0,0,0,.33.84Zm0,0" transform="translate(0 -1.54)"/><path class="cls-1" d="M25.22,19.46a.7.7,0,0,0,.29-.37.5.5,0,0,0-.05-.4h0a.58.58,0,0,0-.8-.08.64.64,0,0,0-.29.38.43.43,0,0,0,.05.4h0a.59.59,0,0,0,.81.07Zm3.17-3.54-.68.62c1.14-.94,3.41-2.8,3.77-3l0,0s0,0,0,0c-.2.31-1.46,1.86-2.43,3a.07.07,0,0,1,0,.07l-.15.14c-.16.19-.31.37-.43.53l.65-.6a.06.06,0,0,1,.08,0,.06.06,0,0,1,0,.08l-.9.81.07.08.89-.82s.07,0,.08,0a.05.05,0,0,1,0,.08l-.89.81.06.07.9-.81a.06.06,0,0,1,.08,0s0,.05,0,.08l-.9.81.07.07.9-.81a.06.06,0,0,1,.08,0,.07.07,0,0,1,0,.08l-.89.81.06.07.9-.81a.08.08,0,0,1,.08,0,.08.08,0,0,1,0,.09l-.9.81.07.07.89-.81s.07,0,.08,0a.05.05,0,0,1,0,.08l-.89.82.06.07.9-.81a.05.05,0,0,1,.08,0,.06.06,0,0,1,0,.08l-.9.81.07.08.89-.81s.06,0,.08,0a.05.05,0,0,1,0,.08l-.89.81.06.08.9-.82a.06.06,0,0,1,.08,0,.06.06,0,0,1,0,.08l-.9.81.07.08.89-.82a.07.07,0,0,1,.09,0,.07.07,0,0,1,0,.08l-.89.81.06.08.9-.82a.06.06,0,0,1,.08,0,.06.06,0,0,1,0,.08l-.9.81.07.07.89-.81s.07,0,.08,0,0,.05,0,.08l-.89.81.06.07.9-.81a.06.06,0,0,1,.08,0,0,0,0,0,1,0,.07l-.9.82.07.07.9-.81s.05,0,.07,0,0,.05,0,.08l-.89.81.06.07.9-.81s.06,0,.08,0a.06.06,0,0,1,0,.08l-.9.82.07.07.89-.81s.07,0,.08,0a.05.05,0,0,1,0,.08l-.89.81.06.08.9-.81s.06,0,.08,0a.06.06,0,0,1,0,.08l-.9.81.07.08.89-.81s.07,0,.08,0a.05.05,0,0,1,0,.08l-.89.81,0,0h0l0,0,.9-.82a.06.06,0,0,1,.08,0,.06.06,0,0,1,0,.08l-.9.81.08.07.89-.81a0,0,0,0,1,.07,0s0,.05,0,.08l-.86.78a.16.16,0,0,0,.15,0l.78-.71a.14.14,0,0,1,.17.05c.05.06.07.14,0,.18l-1.1,1,0,0c-.12.09-.38,0-.58-.24L27.83,18h-.34l-.68,1.17h0a.82.82,0,0,0-.11.63.89.89,0,0,1-.12.73.9.9,0,0,1-.49.37.72.72,0,0,1-.41,0l0,0a1,1,0,0,0-.17.18l-.07.1a.28.28,0,0,0,0,.13.13.13,0,0,1-.07.13.13.13,0,0,1-.17-.06.13.13,0,0,1,.06-.18.2.2,0,0,0,.09-.09,1.17,1.17,0,0,0,.05-.11,1.37,1.37,0,0,0,.07-.24.06.06,0,0,1,0,0,.79.79,0,0,1,0-1,.91.91,0,0,1,.48-.37l.16,0a.84.84,0,0,0,.55-.33,2.56,2.56,0,0,0,.56-1.07h0a2.63,2.63,0,0,0-1.08.56.92.92,0,0,0-.33.55.41.41,0,0,1,0,.16.82.82,0,0,1-.37.49.78.78,0,0,1-1-.08h0a2.23,2.23,0,0,1-.32.09,1.86,1.86,0,0,1-.33,0h-.08l-.09,0a.33.33,0,0,1-.16-.07l-.14-.11a.35.35,0,0,0-.05-.08.28.28,0,0,1-.05-.08v0s0,0,0-.05a.1.1,0,1,1,.2,0s0,0,0,.06l0,.06a.34.34,0,0,0,.08.09.34.34,0,0,0,.12.06h.13a.9.9,0,0,0,.28-.08,1.2,1.2,0,0,0,.24-.15l0,0a.67.67,0,0,1,0-.37.87.87,0,0,1,.37-.48.85.85,0,0,1,.73-.12.83.83,0,0,0,.62-.11h0l1.18-.68a3.24,3.24,0,0,1,0-.42l-2.24-2.47h-.17v0h0v0h0v0h0v-.07a.17.17,0,0,1,0-.07h0l0,0h0l1.1-1s.11,0,.17.05.07.14,0,.17l-.78.71a.16.16,0,0,0,0,.15l.86-.78s.06,0,.08,0a.06.06,0,0,1,0,.08l-.89.8.06.08h0l.9-.81s.06,0,.07,0a.06.06,0,0,1,0,.08l-.9.81.06.08.9-.82a.06.06,0,0,1,.08,0,.06.06,0,0,1,0,.08l-.9.81.07.07.9-.81a.06.06,0,0,1,.08,0,.07.07,0,0,1,0,.08l-.89.81.06.07.9-.81a.06.06,0,0,1,.08,0s0,.05,0,.08l-.9.81.07.07.89-.81s.07,0,.08,0,0,0,0,.08l-.89.81.06.07.9-.81s.06,0,.08,0a0,0,0,0,1,0,.07l-.9.82.07.07.9-.81a.06.06,0,0,1,.08,0,.05.05,0,0,1,0,.08l-.89.81.06.08.9-.81s.06,0,.08,0a.06.06,0,0,1,0,.08l-.9.81.07.08.9-.82a.06.06,0,0,1,.08,0,.07.07,0,0,1,0,.08l-.89.81.07.08.89-.82a.06.06,0,0,1,.08,0,.06.06,0,0,1,0,.08l-.9.81.07.08.9-.82s.06,0,.07,0a.05.05,0,0,1,0,.08l-.89.81.06.07.9-.81a.06.06,0,0,1,.08,0,.06.06,0,0,1,0,.08l-.9.81.07.07.9-.81a.06.06,0,0,1,.08,0,.07.07,0,0,1,0,.08l-.89.81.06.07.9-.81s.06,0,.08,0,0,0,0,.08l-.9.81.07.07.89-.81s.07,0,.08,0a.05.05,0,0,1,0,.08l-.89.82.06.07.9-.81s.06,0,.08,0a.06.06,0,0,1,0,.08l-.9.82.07.07.9-.81s.06,0,.07,0a.05.05,0,0,1,0,.08ZM25.55,19.8a.58.58,0,0,0,.08.8h0a.46.46,0,0,0,.4.05.77.77,0,0,0,.38-.29.6.6,0,0,0-.08-.81h0a.43.43,0,0,0-.4,0,.68.68,0,0,0-.38.29Zm1.74-2.35a.19.19,0,1,0,.27,0,.2.2,0,0,0-.27,0Zm0,0" transform="translate(0 -1.54)"/><path class="cls-1" d="M7.09,39.07c0,.52,0,1,0,1.19s0,.29-.16.31l-.2,0c-.07,0-.09,0-.09,0s0,0,.11,0h.71l.42,0,.39,0c1,0,1.49-.62,1.49-1.22a1.35,1.35,0,0,0-1-1.2,1.22,1.22,0,0,0,.57-1c0-.3-.18-.84-1.19-.84l-.68,0-.76,0c-.08,0-.12,0-.12.05s0,0,.09,0l.22,0c.18,0,.23.13.24.32s0,.33,0,1.18Zm.67-2.26c0-.07,0-.09,0-.1H8c.49,0,.7.49.7.86a.73.73,0,0,1-.23.6.57.57,0,0,1-.4.1H7.8s0,0,0-.07ZM9,39.74a.65.65,0,0,1-.67.72A1,1,0,0,1,8,40.39c-.18-.07-.2-.17-.2-.53V38.53s0,0,0,0H8a.85.85,0,0,1,.47.13A1.35,1.35,0,0,1,9,39.74Zm3.67-.47s0,0,0,0l.45,1.15a.09.09,0,0,1-.05.13c-.06,0-.08,0-.08,0s.07,0,.17,0h1.06c.2,0,.25,0,.25,0s0,0-.07,0a1.06,1.06,0,0,1-.24,0c-.11,0-.27-.11-.49-.61l-1.38-3.39c-.06-.13-.09-.18-.14-.18s-.09.06-.16.22l-1.4,3.47c-.11.28-.22.47-.47.5H10s-.06,0-.06,0,0,0,.1,0l.66,0,.59,0c.06,0,.1,0,.1,0s0,0-.09,0h-.08c-.17,0-.22-.07-.22-.17a1.22,1.22,0,0,1,.08-.34l.3-.77s0,0,.05,0ZM11.57,39s0,0,0,0l.52-1.37s0,0,0,0,0,0,0,0l.5,1.38s0,0,0,0Zm3.75.08c0,.52,0,1,0,1.19s0,.29-.16.31l-.2,0c-.07,0-.09,0-.09,0s0,0,.11,0l.68,0,.82,0c.08,0,.11,0,.11,0s0,0-.06,0l-.27,0c-.17,0-.21-.15-.22-.31s0-.67,0-1.19V39a0,0,0,0,1,0-.05l.49,0a.12.12,0,0,1,.1,0l.55.78a2.8,2.8,0,0,0,.77.82,1.11,1.11,0,0,0,.6.1h.53c.06,0,.1,0,.1,0s0,0-.06,0h-.16a1.17,1.17,0,0,1-.63-.38c-.33-.35-.71-.85-1.21-1.47a1.59,1.59,0,0,0,.74-1.25,1,1,0,0,0-.38-.77,1.77,1.77,0,0,0-1-.24l-.79,0-.76,0c-.09,0-.12,0-.12.05s0,0,.09,0l.22,0c.18,0,.23.13.24.32s0,.33,0,1.18ZM16,36.83a.07.07,0,0,1,.05-.08l.3,0c.32,0,.85.23.85,1a1,1,0,0,1-.33.83c-.1.08-.17.1-.4.1a1.42,1.42,0,0,1-.42-.06s-.05,0-.05-.1Zm3.73,2.24c0,.52,0,1,0,1.19s-.05.29-.16.31l-.2,0c-.07,0-.09,0-.09,0s0,0,.11,0H20l.42,0,.39,0c1,0,1.49-.62,1.49-1.22a1.34,1.34,0,0,0-1-1.2,1.24,1.24,0,0,0,.57-1c0-.3-.18-.84-1.19-.84l-.68,0-.76,0c-.09,0-.13,0-.13.05s0,0,.1,0l.22,0c.18,0,.23.13.24.32s0,.33,0,1.18Zm.67-2.26c0-.07,0-.09.05-.1h.18c.48,0,.7.49.7.86a.73.73,0,0,1-.23.6.57.57,0,0,1-.4.1h-.26s0,0,0-.07Zm1.28,2.93a.66.66,0,0,1-.68.72,1,1,0,0,1-.4-.07c-.18-.07-.2-.17-.2-.53V38.53s0,0,0,0h.24a.85.85,0,0,1,.47.13,1.35,1.35,0,0,1,.54,1.11Zm2.06-.67c0,.52,0,1,0,1.19s-.05.29-.16.31l-.2,0c-.07,0-.09,0-.09,0s0,0,.11,0h.7l.58,0,1,0c.21,0,.26,0,.3-.15a4.05,4.05,0,0,0,.07-.62s0-.1,0-.1-.05,0-.06.09a.48.48,0,0,1-.25.41,1.39,1.39,0,0,1-.53.07c-.57,0-.66-.09-.67-.47V38.63s0-.05,0-.05h.79c.2,0,.28.11.31.22a.75.75,0,0,1,0,.2s0,.05.05.05.05-.06.05-.1,0-.27,0-.38c0-.28,0-.37,0-.41a0,0,0,0,0,0,0s-.05,0-.09.07-.13.07-.27.09h-.89s0,0,0-.07V36.82s0,0,0,0l.79,0c.28,0,.34.1.38.2a.88.88,0,0,1,0,.2c0,.05,0,.08.05.08s.05,0,.06-.06,0-.31,0-.37a2.42,2.42,0,0,1,0-.36s0,0,0,0l-.09,0-.24,0h-2.2c-.09,0-.13,0-.13.05s0,0,.1,0l.22,0c.18,0,.23.13.24.32s0,.33,0,1.18Zm3.7,0c0,.52,0,1,0,1.19s-.05.29-.16.31l-.2,0c-.07,0-.09,0-.09,0s0,0,.11,0l.68,0,.82,0c.08,0,.11,0,.11,0s0,0-.06,0l-.28,0c-.16,0-.2-.15-.21-.31s0-.67,0-1.19V39s0-.05,0-.05l.49,0a.12.12,0,0,1,.1,0l.55.78a2.68,2.68,0,0,0,.77.82,1.11,1.11,0,0,0,.6.1h.53c.06,0,.1,0,.1,0s0,0-.07,0H31a1.14,1.14,0,0,1-.63-.38c-.33-.35-.71-.85-1.21-1.47a1.59,1.59,0,0,0,.74-1.25,1,1,0,0,0-.38-.77,1.77,1.77,0,0,0-1-.24l-.79,0-.76,0c-.09,0-.12,0-.12.05s0,0,.09,0l.22,0c.18,0,.23.13.24.32s0,.33,0,1.18Zm.66-2.24a.07.07,0,0,1,.05-.08l.3,0c.32,0,.85.23.85,1a1,1,0,0,1-.33.83c-.1.08-.17.1-.4.1a1.42,1.42,0,0,1-.42-.06s-.05,0-.05-.1Zm4.15,3.94a1.6,1.6,0,0,0,.89-.23,1.12,1.12,0,0,0,.52-1c0-.53-.23-.92-.91-1.43L32.57,38c-.46-.35-.59-.55-.59-.81s.25-.57.67-.57a.7.7,0,0,1,.6.27.69.69,0,0,1,.15.37c0,.07,0,.1.06.1s.06,0,.06-.17c0-.43,0-.59,0-.67s0,0-.08-.06a2.58,2.58,0,0,0-.74-.1c-.78,0-1.29.44-1.29,1.06a1.66,1.66,0,0,0,.82,1.32l.26.2c.46.36.55.62.55.9a.68.68,0,0,1-.75.63.77.77,0,0,1-.8-.56,1.1,1.1,0,0,1-.05-.29s0-.09-.05-.09-.06.06-.07.15,0,.42,0,.73c0,.12,0,.15.11.19a2,2,0,0,0,.81.14Zm3.65-2.52a0,0,0,0,1,0,0v-.12c0-.85,0-1,0-1.18s0-.3.2-.32l.16,0c.07,0,.11,0,.11,0s0-.05-.12-.05l-.71,0-.8,0c-.08,0-.12,0-.12.05s0,0,.1,0l.22,0c.18,0,.22.13.24.32s0,.33,0,1.18v1c0,.52,0,1,0,1.19s0,.29-.16.31l-.2,0c-.07,0-.09,0-.09,0s0,0,.11,0l.7,0,.87,0c.07,0,.11,0,.11,0s0,0-.09,0l-.28,0c-.17,0-.2-.15-.22-.3s0-.68,0-1.2v-.49s0,0,0,0H38a0,0,0,0,1,0,0v.49c0,.52,0,1,0,1.19s-.05.29-.17.31l-.2,0c-.06,0-.09,0-.09,0s0,0,.12,0l.7,0,.87,0c.07,0,.11,0,.11,0s0,0-.09,0l-.28,0c-.17,0-.2-.15-.22-.3s0-.68,0-1.2v-1c0-.85,0-1,0-1.18s.06-.3.21-.32l.16,0c.07,0,.1,0,.1,0s0-.05-.11-.05l-.71,0-.8,0c-.08,0-.12,0-.12.05s0,0,.1,0l.21,0c.19,0,.23.13.24.32s0,.33,0,1.18v.12s0,0,0,0Zm6.45,2.52a2.2,2.2,0,0,0,2.31-2.29,2,2,0,0,0-2.25-2.09,2.15,2.15,0,0,0-2.31,2.19,2.13,2.13,0,0,0,2.25,2.19Zm.24-.28c-1.08,0-1.72-.92-1.72-2.08,0-1.39.73-1.75,1.38-1.75.91,0,1.63.78,1.63,2,0,1.61-.9,1.8-1.29,1.8ZM46,39.07c0,.52,0,1,0,1.19s-.05.29-.17.31l-.2,0c-.06,0-.09,0-.09,0s0,0,.12,0l.7,0,.87,0c.06,0,.1,0,.1,0s0,0-.09,0l-.28,0c-.17,0-.2-.15-.22-.3s0-.68,0-1.2V36.84c0-.06,0-.1,0-.11l.21,0a.81.81,0,0,1,.56.22,1.08,1.08,0,0,1,.33.84.87.87,0,0,1-.75.92c-.11,0-.15,0-.15.06s0,0,.06,0h.12a1.32,1.32,0,0,0,1.37-1.36,1,1,0,0,0-.27-.66,1.38,1.38,0,0,0-1-.32l-.81,0-.81,0c-.08,0-.12,0-.12.05s0,0,.09,0l.22,0c.19,0,.23.13.24.32s0,.33,0,1.18Zm0,0" transform="translate(0 -1.54)"/><path class="cls-1" d="M13,47.93l.69-.69.69.69-.69.69Zm27.48,0,.69-.69.69.69-.69.69Zm0,0" transform="translate(0 -1.54)"/><path class="cls-1" d="M16.91,48.33c0,.39,0,.71,0,.88s0,.21-.12.23h-.12a0,0,0,0,0,0,0s0,0,.06,0h.9s.06,0,.06,0a0,0,0,0,0,0,0h-.19c-.12,0-.14-.11-.15-.23a6.66,6.66,0,0,1,0-.88V46.66s0-.07,0-.08l.17,0a.74.74,0,0,1,.56.2.91.91,0,0,1,.23.63.68.68,0,0,1-.71.66c-.08,0-.11,0-.11,0s0,0,0,0h.08a.94.94,0,0,0,1-1,.71.71,0,0,0-.2-.48,1,1,0,0,0-.76-.23h-1s-.06,0-.06,0a0,0,0,0,0,0,0h.14c.13,0,.17.09.17.23s0,.24,0,.88Zm2.69,0a6.66,6.66,0,0,1,0,.88c0,.12,0,.21-.11.23h-.13a0,0,0,0,0,0,0s0,0,.07,0h.88s.06,0,.06,0,0,0,0,0H20.1c-.12,0-.15-.11-.16-.23s0-.49,0-.88v-.09s0,0,0,0h.5s0,0,.05,0l.44.6a2.13,2.13,0,0,0,.55.59.8.8,0,0,0,.43.08h.29c.08,0,.1,0,.1,0s0,0,0,0h-.15a.85.85,0,0,1-.5-.29c-.24-.25-.51-.62-.84-1a1.28,1.28,0,0,0,.49-.94.7.7,0,0,0-.28-.55,1.23,1.23,0,0,0-.75-.18H19.3s-.06,0-.06,0a0,0,0,0,0,0,0h.14c.14,0,.17.09.18.23s0,.24,0,.88Zm.32-1.69a.05.05,0,0,1,0,0l.27,0c.44,0,.71.31.71.81a.76.76,0,0,1-.25.63.59.59,0,0,1-.31.07A1,1,0,0,1,20,48a.05.05,0,0,1,0-.05Zm2.87,1.69c0,.39,0,.71,0,.88s0,.21-.12.23h-.12a0,0,0,0,0,0,0s0,0,.06,0H24c.15,0,.19,0,.22-.1a3.94,3.94,0,0,0,0-.4s0-.06,0-.06,0,0,0,.06-.08.25-.18.3a1.33,1.33,0,0,1-.39,0c-.4,0-.46,0-.48-.33V48a0,0,0,0,1,0,0c.07,0,.47,0,.58,0s.2.08.22.14a.62.62,0,0,1,0,.13s0,0,0,0,0,0,0-.08,0-.18,0-.26,0-.2,0-.22,0,0,0,0,0,0-.06,0-.1.05-.2.06h-.64s0,0,0,0V46.64s0,0,0,0h.55c.22,0,.26.07.29.14a.5.5,0,0,1,0,.14s0,.06,0,.06,0,0,0-.05,0-.22,0-.27,0-.16,0-.19,0,0,0,0l-.05,0-.18,0H22.5s-.06,0-.06,0a0,0,0,0,0,0,0h.14c.13,0,.17.09.17.23s0,.24,0,.88Zm5.36-1.84c0-.07,0-.11,0-.11s-.05,0-.06.07L26.85,49l-1.24-2.56s0-.06-.06-.06,0,0-.05.08l-.29,2.64c0,.16,0,.32-.16.34h-.12l0,0s0,0,.06,0h.72s.08,0,.08,0l0,0a.54.54,0,0,1-.15,0,.13.13,0,0,1-.11-.12,1.48,1.48,0,0,1,0-.21l.16-1.88h0c0,.1.5,1.08.53,1.15s.37.75.48,1,.1.18.12.18.05,0,.14-.21l1-2.11h0l.19,2.1c0,.08,0,.14,0,.15s0,0,0,0,0,0,.11,0h.68c.05,0,.08,0,.08,0s0,0,0,0a.77.77,0,0,1-.26,0c-.18-.06-.21-.28-.22-.43Zm2,1.13c0-.64,0-.75,0-.88s0-.21.14-.23h.11a0,0,0,0,0,0,0s0,0-.06,0h-.81c-.05,0-.07,0-.07,0a0,0,0,0,0,0,0h.13c.09,0,.13.09.14.23s0,.24,0,.88v.71a6.66,6.66,0,0,1,0,.88c0,.12,0,.21-.11.23h-.13a0,0,0,0,0,0,0s0,0,.07,0h.9s.06,0,.06,0a0,0,0,0,0,0,0h-.18c-.13,0-.15-.11-.16-.23s0-.49,0-.88Zm1.34.59a1.35,1.35,0,0,0,.36,1.07,1.23,1.23,0,0,0,.83.29,1.19,1.19,0,0,0,.84-.3,1.61,1.61,0,0,0,.37-1.22v-.43c0-.64,0-.75,0-.88s0-.21.15-.23h.1a0,0,0,0,0,0,0s0,0-.06,0h-.77c-.05,0-.07,0-.07,0s0,0,0,0h.14c.13,0,.16.09.17.23s0,.24,0,.88v.51a1.55,1.55,0,0,1-.24,1,.84.84,0,0,1-.64.29.81.81,0,0,1-.61-.22,1.27,1.27,0,0,1-.3-1v-.57c0-.64,0-.75,0-.88s0-.21.14-.23h.11a0,0,0,0,0,0,0s0,0-.07,0H31.2s-.06,0-.06,0a0,0,0,0,0,0,0h.14c.13,0,.17.09.17.23s0,.24,0,.88Zm6.43-1.72c0-.07,0-.11-.05-.11s0,0-.06.07L36.62,49l-1.25-2.56s0-.06-.06-.06,0,0,0,.08L35,49.1c0,.16,0,.32-.17.34h-.12l0,0s0,0,.07,0h.72c.05,0,.07,0,.07,0l0,0a.56.56,0,0,1-.16,0,.12.12,0,0,1-.1-.12V49.1l.17-1.88h0c0,.1.5,1.08.54,1.15l.47,1c.08.14.1.18.13.18s.05,0,.13-.21l1-2.11h0l.19,2.1c0,.08,0,.14,0,.15a0,0,0,0,0,0,0s0,0,.11,0h.68c.05,0,.09,0,.09,0s0,0,0,0a.8.8,0,0,1-.26,0c-.17-.06-.2-.28-.22-.43Zm0,0" transform="translate(0 -1.54)"/><path class="cls-1" d="M60.1,25.1c0,1.71,0,3.12-.09,3.87-.07.52-.16.91-.52,1A2.41,2.41,0,0,1,59,30c-.11,0-.15.06-.15.11s.09.15.29.15c.54,0,1.66-.06,1.75-.06s1.22.06,2.2.06c.2,0,.28-.06.28-.15s0-.11-.14-.11a6.67,6.67,0,0,1-.8-.07c-.54-.07-.64-.46-.7-1-.09-.75-.09-2.16-.09-3.87V23.58c0-.13,0-.16.13-.16.3,0,2.25,0,2.69,0a1.07,1.07,0,0,1,.93.64,3.4,3.4,0,0,1,.11.65c0,.08,0,.16.12.16s.13-.18.13-.34,0-.84.07-1.2c.06-.59.14-.89.14-1s0-.14-.08-.14-.13.09-.2.18-.39.28-.82.32H64l-2.28,0c-.11,0-.13-.05-.13-.16V17.68c0-.14,0-.19.16-.19l2.75.05a1.38,1.38,0,0,1,1.22.57,1.87,1.87,0,0,1,.16.68c0,.12,0,.22.12.22s.13-.11.15-.2.07-1,.08-1.18c.06-.5.15-.71.15-.84s0-.16-.11-.16-.14.07-.25.11a4.43,4.43,0,0,1-.78.07c-.42,0-4,0-4.4,0l-.73,0c-.39,0-.88,0-1.29,0-.19,0-.28,0-.28.15s.07.1.14.1a3,3,0,0,1,.61.06c.59.12.73.41.77,1s0,1.08,0,3.86Zm10.57,0c0,1.71,0,3.12-.08,3.87-.08.52-.16.91-.52,1a2.5,2.5,0,0,1-.54.07c-.11,0-.14.06-.14.11s.09.15.29.15c.53,0,1.66-.06,1.67-.06s1.22.06,2.2.06c.2,0,.29-.06.29-.15s0-.11-.15-.11a6.67,6.67,0,0,1-.8-.07c-.54-.07-.64-.46-.7-1-.09-.75-.09-2.16-.09-3.87v-.43c0-.09,0-.15.13-.15l2.2,0a.3.3,0,0,1,.23.11c.36.46,1.19,1.66,1.94,2.64A9.48,9.48,0,0,0,79,29.94a3.72,3.72,0,0,0,1.91.34h1.26c.33,0,.43,0,.43-.15s-.07-.11-.16-.11a4.5,4.5,0,0,1-.69-.05,3.67,3.67,0,0,1-2.18-1.29c-1-1.1-2.25-2.69-3.72-4.57A5.49,5.49,0,0,0,78,20a3.1,3.1,0,0,0-1.23-2.43,5.5,5.5,0,0,0-3.27-.79c-.55,0-1.91.06-2.11.06s-1.21-.06-2-.06c-.2,0-.29,0-.29.15s.07.1.14.1a3,3,0,0,1,.61.06c.59.12.73.41.77,1s0,1.08,0,3.86Zm1.43-7.43a.23.23,0,0,1,.15-.22,5.55,5.55,0,0,1,1.19-.11c1.91,0,3.09,1.34,3.09,3.58a3.26,3.26,0,0,1-1.09,2.75A2.36,2.36,0,0,1,74.1,24a4.92,4.92,0,0,1-1.87-.29.24.24,0,0,1-.13-.22Zm12,7.43c0,1.71,0,3.12-.09,3.87-.07.52-.16.91-.52,1A2.41,2.41,0,0,1,83,30c-.11,0-.15.06-.15.11s.09.15.29.15.68,0,1,0l.71,0c.27,0,.7,0,1.39.06s1.68,0,3,0c.7,0,.84,0,1-.47a16.71,16.71,0,0,0,.23-1.73c0-.12,0-.27-.11-.27s-.12.07-.16.27c-.12.74-.34,1.09-.8,1.29a5.32,5.32,0,0,1-1.72.19c-1.75,0-2-.23-2.07-1.46,0-.38,0-2.45,0-3V23.52a.11.11,0,0,1,.13-.12c.3,0,2.07,0,2.55.09.7.07.86.37.93.62a1.88,1.88,0,0,1,.07.59c0,.09,0,.16.12.16s.13-.19.13-.34,0-.78.07-1.14c.06-.59.15-.89.15-1s0-.14-.09-.14-.15.09-.27.23-.41.21-.84.25-2.61,0-2.84,0-.11-.05-.11-.17V17.65c0-.13,0-.18.11-.18s2.14,0,2.44.05c1,.11,1.15.32,1.27.61a1.9,1.9,0,0,1,.11.64c0,.14,0,.24.14.24s.11-.11.13-.2.07-1,.09-1.18c0-.5.14-.71.14-.84s0-.16-.07-.16-.16.07-.25.09a5.83,5.83,0,0,1-.77.09c-.41,0-4,0-4.09,0l-.73,0c-.39,0-.88,0-1.29,0-.19,0-.28,0-.28.15s.07.1.14.1a3.08,3.08,0,0,1,.61.06c.59.12.73.41.76,1s0,1.08,0,3.86Zm10.9,0c0,1.71,0,3.12-.09,3.87-.08.52-.16.91-.52,1a2.5,2.5,0,0,1-.54.07c-.1,0-.14.06-.14.11s.09.15.29.15.67,0,1,0l.72,0,1.48.11c.77.05,1.71.11,2.48.11a7,7,0,0,0,5.41-2.06,7.28,7.28,0,0,0,1.93-5,6.39,6.39,0,0,0-1.73-4.53c-2.13-2.2-5.39-2-7.16-2-1.07,0-2.2.06-2.41.06s-1.22-.06-2-.06c-.2,0-.29,0-.29.15s.07.1.14.1a2.93,2.93,0,0,1,.61.06c.59.12.74.41.77,1s0,1.08,0,3.86Zm1.5-3.43c0-1.38,0-3.2,0-3.81a.34.34,0,0,1,.22-.36,4.84,4.84,0,0,1,1.16-.12c2.12,0,4.16.25,5.84,2a6.4,6.4,0,0,1,1.71,4.5,6.25,6.25,0,0,1-1.43,4.27,6,6,0,0,1-4.25,1.66c-2.1,0-2.8-.38-3-.72a4,4,0,0,1-.2-1.35c0-.34,0-2,0-3.88ZM129.31,17c0-.35-.09-.49-.21-.49s-.2.13-.27.29L123.57,28l-5.46-11.23c-.09-.2-.16-.27-.27-.27s-.17.13-.19.33l-1.29,11.64c-.07.68-.13,1.37-.71,1.48a2.51,2.51,0,0,1-.54.05c-.09,0-.18,0-.18.09s.13.17.31.17c.48,0,1.34-.06,1.5-.06s1,.06,1.66.06c.21,0,.32,0,.32-.17s-.07-.09-.14-.09a3.16,3.16,0,0,1-.68-.08.59.59,0,0,1-.47-.56c0-.3,0-.62,0-.91l.71-8.29h.08c.19.49,2.19,4.77,2.35,5.09s1.63,3.27,2.09,4.15c.34.64.43.82.56.82s.21-.16.59-.95L128.2,20h.05l.86,9.27c0,.32,0,.63-.07.65s-.12,0-.12.12.08.14.5.18c.66.06,2.59.07,3,.07.21,0,.37-.05.37-.16s-.05-.09-.14-.09a3.89,3.89,0,0,1-1.16-.16c-.77-.25-.89-1.25-1-1.89Zm5.18,11.3c-.32.89-.68,1.57-1.5,1.68a4.81,4.81,0,0,1-.52,0c-.09,0-.16,0-.16.11s.11.15.34.15c.84,0,1.82-.06,2-.06s1,.06,1.39.06c.16,0,.27,0,.27-.15s-.05-.11-.18-.11H136c-.3,0-.68-.16-.68-.51a3.84,3.84,0,0,1,.25-1.2l1.07-3.16c0-.09.09-.14.18-.14h3.84a.15.15,0,0,1,.16.1l1.66,4.4c.11.28,0,.44-.1.48s-.13.05-.13.12.2.11.54.13c1.23,0,2.53,0,2.8,0s.36,0,.36-.15-.07-.11-.18-.11a2.19,2.19,0,0,1-.71-.1c-.38-.11-.9-.4-1.54-2-1.09-2.71-3.89-10.09-4.16-10.76s-.29-.65-.4-.65-.17.11-.39.7Zm2.5-3.95c-.06,0-.09,0-.06-.12l1.58-4.82c.09-.27.18-.27.26,0l1.7,4.82c0,.07,0,.12-.07.12Zm12.73,6.16a4.67,4.67,0,0,0,2.7-.75,3.7,3.7,0,0,0,1.52-3c0-1.43-.5-2.54-2.61-4.2l-.5-.39c-1.71-1.34-2.18-2-2.18-3a2,2,0,0,1,2.2-2.07c1.64,0,2.12.75,2.23.94a2.84,2.84,0,0,1,.23.9c0,.14,0,.23.15.23s.12-.13.12-.41c0-1.21.07-1.8.07-1.89s0-.13-.18-.13a3,3,0,0,1-.62-.09,6.83,6.83,0,0,0-1.66-.18c-2.27,0-3.7,1.31-3.7,3.22,0,1.21.43,2.32,2.32,3.87l.81.66c1.53,1.27,2,2,2,3.22a2.38,2.38,0,0,1-2.55,2.37A2.44,2.44,0,0,1,147.47,28a3.36,3.36,0,0,1-.05-.66c0-.14,0-.2-.13-.2s-.12.09-.14.29-.09,1-.09,1.89c0,.49,0,.56.27.68a5.36,5.36,0,0,0,2.39.48ZM160.15,22c0-2.78,0-3.28,0-3.86s.18-.92.66-1a2.32,2.32,0,0,1,.45-.06c.07,0,.14,0,.14-.1s-.09-.15-.29-.15c-.53,0-1.66.06-1.75.06s-1.21-.06-1.8-.06c-.2,0-.29,0-.29.15s.07.1.15.1a2.57,2.57,0,0,1,.55.07c.39.09.57.4.61,1s0,1.08,0,3.86V25.1c0,1.71,0,3.12-.09,3.87-.07.52-.16.91-.51,1a2.5,2.5,0,0,1-.54.07c-.11,0-.14.06-.14.11s.09.15.28.15c.54,0,1.66-.06,1.75-.06s1.22.06,2.2.06c.2,0,.29-.06.29-.15s0-.11-.15-.11a6.67,6.67,0,0,1-.8-.07c-.54-.07-.64-.46-.7-1-.09-.75-.09-2.16-.09-3.87ZM178.6,17c0-.35-.09-.49-.21-.49s-.2.13-.27.29L172.87,28,167.4,16.79c-.08-.2-.16-.27-.26-.27s-.18.13-.2.33l-1.29,11.64c-.07.68-.12,1.37-.71,1.48a2.46,2.46,0,0,1-.54.05c-.09,0-.18,0-.18.09s.13.17.31.17c.48,0,1.34-.06,1.5-.06s1,.06,1.66.06c.21,0,.32,0,.32-.17s-.07-.09-.14-.09a3.16,3.16,0,0,1-.68-.08.58.58,0,0,1-.46-.56c0-.3,0-.62,0-.91l.72-8.29h.07c.2.49,2.2,4.77,2.36,5.09s1.62,3.27,2.09,4.15c.33.64.43.82.55.82s.21-.16.59-.95L177.49,20h.06l.86,9.27c0,.32,0,.63-.08.65s-.12,0-.12.12.09.14.5.18c.66.06,2.59.07,3,.07.22,0,.38-.05.38-.16S182,30,181.92,30a3.92,3.92,0,0,1-1.16-.16c-.76-.25-.89-1.25-1-1.89Zm4.63,6.49c0,3.22,2,7,6.93,7a7,7,0,0,0,7.12-7.3c0-4.16-3-6.7-7-6.7a6.92,6.92,0,0,0-7,7Zm1.69-.49c0-3.92,2.24-5.88,5.22-5.88,2.82,0,5.43,2.3,5.43,6.59,0,5.2-3.32,6.13-4.93,6.13-3.21,0-5.72-2.68-5.72-6.84Zm0,0" transform="translate(0 -1.54)"/><path class="cls-1" d="M91.69,40.75a19,19,0,0,1,0,1.9c0,.26-.08.45-.26.49a1.39,1.39,0,0,1-.32,0c-.1,0-.14,0-.14.08s.06.09.18.09l.61,0h.51l.67,0,.62,0c1.64,0,2.38-1,2.38-1.94a2.18,2.18,0,0,0-1.62-1.93,1.92,1.92,0,0,0,.91-1.55c0-.48-.29-1.34-1.9-1.34-.3,0-.65,0-1.09,0-.18,0-.74,0-1.21,0-.13,0-.2,0-.2.08s.06.08.16.08a1.58,1.58,0,0,1,.34,0c.3.06.37.2.39.51s0,.53,0,1.89Zm1.06-3.61c0-.1,0-.14.08-.16a1.32,1.32,0,0,1,.3,0c.76,0,1.11.79,1.11,1.39a1.17,1.17,0,0,1-.36.94.92.92,0,0,1-.64.17,1.92,1.92,0,0,1-.42,0s-.07,0-.07-.09Zm2,4.68A1,1,0,0,1,93.72,43a1.56,1.56,0,0,1-.65-.11c-.29-.11-.32-.26-.32-.85V39.89s0-.06.06-.06h.38a1.25,1.25,0,0,1,.74.21,2.1,2.1,0,0,1,.86,1.77Zm6.67-.76c.05,0,.07,0,.09.07l.71,1.83a.14.14,0,0,1-.08.21c-.09,0-.12,0-.12.08s.11.06.27.07c.71,0,1.36,0,1.68,0s.41,0,.41-.09,0-.08-.11-.08a1.71,1.71,0,0,1-.38,0c-.19,0-.45-.17-.78-1-.58-1.36-2-4.92-2.21-5.41-.09-.2-.15-.28-.23-.28s-.14.09-.25.35l-2.23,5.52c-.18.45-.35.75-.76.81h-.28c-.07,0-.1,0-.1.08s0,.09.16.09c.47,0,1,0,1.06,0l.94,0c.1,0,.15,0,.15-.09s0-.08-.13-.08h-.13c-.28,0-.36-.11-.36-.27a1.73,1.73,0,0,1,.13-.55l.48-1.21c0-.06,0-.08.08-.08Zm-1.81-.44s0,0,0-.06l.82-2.19s0-.08,0-.08,0,.05,0,.08l.8,2.2s0,0,0,0Zm6.79.13c0,.82,0,1.52,0,1.9s-.08.45-.26.49a1.33,1.33,0,0,1-.32,0c-.11,0-.14,0-.14.08s.06.09.18.09l1.08,0c.14,0,.8,0,1.31,0q.18,0,.18-.09s0-.08-.11-.08a3.46,3.46,0,0,1-.43,0c-.27,0-.32-.23-.35-.49s0-1.08,0-1.91v-.12s0-.07.07-.07l.77,0a.17.17,0,0,1,.16.06c.12.13.53.74.89,1.23a4.36,4.36,0,0,0,1.21,1.31,1.91,1.91,0,0,0,1,.17h.85c.1,0,.16,0,.16-.09s0-.08-.1-.08a1.19,1.19,0,0,1-.25,0,1.78,1.78,0,0,1-1-.61c-.52-.55-1.14-1.34-1.93-2.34a2.49,2.49,0,0,0,1.17-2,1.55,1.55,0,0,0-.6-1.22,2.85,2.85,0,0,0-1.64-.38l-1.26,0c-.18,0-.75,0-1.22,0-.13,0-.2,0-.2.08s.06.08.16.08a1.75,1.75,0,0,1,.35,0c.29.06.36.2.38.51s0,.53,0,1.89Zm1.06-3.57c0-.07,0-.11.08-.12a1.65,1.65,0,0,1,.47,0,1.42,1.42,0,0,1,1.36,1.63,1.61,1.61,0,0,1-.52,1.34.94.94,0,0,1-.64.15,2.36,2.36,0,0,1-.67-.09c-.07,0-.08-.06-.08-.16Zm6.76,3.57c0,.82,0,1.52,0,1.9s-.08.45-.26.49a1.39,1.39,0,0,1-.32,0c-.11,0-.15,0-.15.08s.07.09.18.09l.62,0h.51l.66,0,.63,0c1.64,0,2.38-1,2.38-1.94a2.19,2.19,0,0,0-1.62-1.93,1.91,1.91,0,0,0,.9-1.55c0-.48-.28-1.34-1.89-1.34-.31,0-.65,0-1.09,0-.18,0-.74,0-1.21,0-.14,0-.2,0-.2.08s0,.08.15.08a1.62,1.62,0,0,1,.35,0c.29.06.36.2.38.51s0,.53,0,1.89Zm1.07-3.61c0-.1,0-.14.08-.16a1.32,1.32,0,0,1,.3,0c.76,0,1.11.79,1.11,1.39a1.14,1.14,0,0,1-.37.94.91.91,0,0,1-.64.17,2,2,0,0,1-.42,0s-.06,0-.06-.09Zm2,4.68A1,1,0,0,1,116.29,43a1.59,1.59,0,0,1-.65-.11c-.28-.11-.31-.26-.31-.85V39.89s0-.06,0-.06h.39a1.28,1.28,0,0,1,.74.21,2.13,2.13,0,0,1,.86,1.77Zm4.1-1.07c0,.82,0,1.52,0,1.9s-.08.45-.26.49a1.39,1.39,0,0,1-.32,0c-.11,0-.14,0-.14.08s.06.09.18.09l.61,0H122l.92,0,1.55,0c.33,0,.41,0,.48-.23a7.89,7.89,0,0,0,.11-1c0-.09,0-.16-.07-.16s-.08,0-.1.13c-.06.37-.17.56-.4.66a2.16,2.16,0,0,1-.83.11c-.92,0-1.06-.13-1.08-.75V40.05s0-.09.06-.09c.21,0,1.1,0,1.26,0,.33,0,.46.16.5.34a2.31,2.31,0,0,1,0,.32c0,.05,0,.08.08.08s.08-.09.08-.16,0-.42,0-.6c0-.46.07-.6.07-.65s0-.07-.06-.07-.08,0-.14.11-.21.12-.43.13-1.23,0-1.42,0-.07,0-.07-.09V37.16c0-.06,0-.09.07-.09s1.11,0,1.26,0c.45,0,.54.16.6.32a1,1,0,0,1,0,.32c0,.08,0,.13.08.13s.08-.06.09-.1,0-.5.05-.59a4.12,4.12,0,0,1,.07-.58s0-.08-.06-.08-.09,0-.14,0l-.38.06h-2.23l-.56,0h-.72c-.14,0-.2,0-.2.08s.06.08.15.08a1.62,1.62,0,0,1,.35,0c.29.06.37.2.38.51s0,.53,0,1.89Zm6.72,0c0,.82,0,1.52,0,1.9s-.08.45-.26.49a1.39,1.39,0,0,1-.32,0c-.11,0-.14,0-.14.08s.06.09.18.09l1.08,0c.14,0,.8,0,1.31,0q.18,0,.18-.09s0-.08-.11-.08a3.46,3.46,0,0,1-.43,0c-.27,0-.32-.23-.35-.49a19.11,19.11,0,0,1,0-1.91v-.12s0-.07.08-.07l.77,0c.07,0,.12,0,.16.06s.53.74.88,1.23a4.49,4.49,0,0,0,1.22,1.31,1.88,1.88,0,0,0,1,.17h.84c.11,0,.17,0,.17-.09s0-.08-.1-.08a1.1,1.1,0,0,1-.25,0,1.78,1.78,0,0,1-1-.61c-.53-.55-1.14-1.34-1.93-2.34a2.52,2.52,0,0,0,1.17-2,1.58,1.58,0,0,0-.6-1.22A2.86,2.86,0,0,0,130,36.6l-1.26,0c-.19,0-.75,0-1.22,0-.13,0-.2,0-.2.08s.06.08.16.08a1.58,1.58,0,0,1,.34,0c.3.06.37.2.39.51s0,.53,0,1.89Zm1.05-3.57c0-.07,0-.11.09-.12a1.7,1.7,0,0,1,.47,0,1.42,1.42,0,0,1,1.36,1.63,1.58,1.58,0,0,1-.53,1.34.91.91,0,0,1-.63.15,2.36,2.36,0,0,1-.67-.09c-.07,0-.09-.06-.09-.16Zm7.45,6.28a2.51,2.51,0,0,0,1.41-.37,1.77,1.77,0,0,0,.84-1.55c0-.84-.38-1.46-1.46-2.27l-.25-.19c-.74-.55-.94-.87-.94-1.28a.94.94,0,0,1,1.06-.92,1.13,1.13,0,0,1,1.2,1c0,.11,0,.16.09.16s.1-.07.1-.27c0-.69,0-.95,0-1.07s0-.09-.12-.1a4.12,4.12,0,0,0-1.19-.15c-1.24,0-2.05.7-2.05,1.68a2.64,2.64,0,0,0,1.31,2.11l.41.32c.74.58.88,1,.88,1.43a1.09,1.09,0,0,1-1.2,1,1.22,1.22,0,0,1-1.27-.9,1.65,1.65,0,0,1-.08-.45c0-.07,0-.15-.09-.15s-.1.09-.11.23,0,.67,0,1.16c0,.2,0,.25.17.31a3.05,3.05,0,0,0,1.3.23Zm6.63-4s0,0,0-.06v-.18c0-1.36,0-1.61,0-1.89s.09-.47.33-.51l.26,0c.11,0,.16,0,.16-.08s-.06-.08-.18-.08l-1.13,0c-.24,0-.8,0-1.28,0-.13,0-.19,0-.19.08s.06.08.15.08a1.62,1.62,0,0,1,.35,0c.29.06.36.2.38.51s0,.53,0,1.89v1.56c0,.82,0,1.52,0,1.9s-.08.45-.26.49a1.39,1.39,0,0,1-.32,0c-.11,0-.14,0-.14.08s.06.09.17.09l1.13,0c.25,0,.81,0,1.39,0,.1,0,.17,0,.17-.09s0-.08-.14-.08a3.29,3.29,0,0,1-.45,0c-.27,0-.32-.23-.35-.48s0-1.09,0-1.91V40s0,0,0,0h3.4s.06,0,.06,0v.78a19,19,0,0,1-.05,1.9c0,.26-.08.45-.26.49a1.33,1.33,0,0,1-.32,0c-.1,0-.14,0-.14.08s.06.09.19.09l1.11,0c.25,0,.81,0,1.39,0,.11,0,.18,0,.18-.09s0-.08-.14-.08a3.44,3.44,0,0,1-.46,0c-.26,0-.32-.23-.34-.48s-.05-1.09-.05-1.91V39.19c0-1.36,0-1.61,0-1.89s.09-.47.33-.51l.26,0c.1,0,.16,0,.16-.08s-.07-.08-.19-.08l-1.12,0c-.24,0-.8,0-1.29,0-.12,0-.18,0-.18.08s.05.08.15.08a1.75,1.75,0,0,1,.35,0c.29.06.36.2.38.51s0,.53,0,1.89v.18a.05.05,0,0,1-.06.06Zm11.11,4a3.52,3.52,0,0,0,3.69-3.65c0-2-1.38-3.33-3.6-3.33A3.43,3.43,0,0,0,150.84,40a3.39,3.39,0,0,0,3.59,3.49Zm.37-.45c-1.7,0-2.73-1.47-2.73-3.32,0-2.22,1.17-2.79,2.19-2.79,1.47,0,2.61,1.24,2.61,3.24,0,2.57-1.44,2.87-2.07,2.87Zm6.27-2.26c0,.82,0,1.52,0,1.9s-.08.45-.26.49a1.39,1.39,0,0,1-.32,0c-.11,0-.14,0-.14.08s.06.09.17.09l1.13,0c.23,0,.79,0,1.38,0,.1,0,.17,0,.17-.09s0-.08-.14-.08a3.44,3.44,0,0,1-.46,0c-.27,0-.32-.23-.35-.48s0-1.09,0-1.91V37.19c0-.1,0-.15.07-.17a1.12,1.12,0,0,1,.35,0,1.35,1.35,0,0,1,.89.35,1.71,1.71,0,0,1,.52,1.34,1.41,1.41,0,0,1-1.19,1.47c-.19,0-.25,0-.25.09s.06.07.11.08h.19a2.1,2.1,0,0,0,2.19-2.15,1.54,1.54,0,0,0-.45-1.06,2.13,2.13,0,0,0-1.66-.51l-1.29,0c-.25,0-.81,0-1.28,0-.13,0-.2,0-.2.08s.06.08.15.08a1.62,1.62,0,0,1,.35,0c.3.06.37.2.38.51s0,.53,0,1.89Zm0,0" transform="translate(0 -1.54)"/><path class="cls-1" d="M57.92,40H88.73v.22H57.92ZM167,39.69h30.94v.22H167Zm2.23.4" transform="translate(0 -1.54)"/></svg>