<svg id="Layer_1" data-name="Layer 1" xmlns="http://www.w3.org/2000/svg" viewBox="0 0 199 196"><defs><style>.cls-1,.cls-2{fill:#231f20;}.cls-2{fill-rule:evenodd;}</style></defs><title>1Artboard 1</title><path class="cls-1" d="M173.9,164.05a27.43,27.43,0,0,1,16.94-7.94V36.82A27.55,27.55,0,0,1,165.92,11.6C135.68,7.23,117.57,5,99.5,5S63.32,7.23,33.08,11.6a27.42,27.42,0,0,1-8,17.27,27.44,27.44,0,0,1-16.94,8V156.11a27.52,27.52,0,0,1,24.92,25.21L99.5,191l66.42-9.64a27.45,27.45,0,0,1,8-17.27m19.46-3a22.47,22.47,0,0,0-22.48,22.47v2.18l-2.17.31L99.85,196h-.7L30.29,186l-2.17-.31v-2.18A22.47,22.47,0,0,0,5.64,161H3.12V31.89H5.64A22.48,22.48,0,0,0,28.12,9.41V7.23l2.17-.31C62.06,2.31,80.76,0,99.5,0s37.44,2.31,69.21,6.92l2.17.31V9.41a22.48,22.48,0,0,0,22.48,22.48h2.52V161Z"/><path class="cls-1" d="M186.42,41.09V152.33l-.48.12A32,32,0,0,0,162.09,177l-.09.44-.44.06-62,9h-.18l-62-9-.44-.06-.09-.44a32,32,0,0,0-23.85-24.54l-.48-.12V40.59l.48-.11A32,32,0,0,0,36.91,15.93L37,15.5l.44-.07C66,11.3,82.72,9.23,99.5,9.23s33.55,2.07,62.06,6.2l.44.07.09.43a32,32,0,0,0,23.85,24.55l.48.11Zm-1.26,110.25V41.58a33.26,33.26,0,0,1-24.21-25c-28.17-4.08-44.82-6.12-61.45-6.12s-33.28,2-61.45,6.12a33,33,0,0,1-8.6,15.92,33.12,33.12,0,0,1-15.61,9V151.34a33.12,33.12,0,0,1,15.61,9,33.09,33.09,0,0,1,8.6,15.92l61.45,8.92L161,176.31a33.26,33.26,0,0,1,24.21-25Z"/><path class="cls-1" d="M145.52,48.26a20.85,20.85,0,0,1-1.83,1.35c-.27.16-.48.26-.65.12a1.46,1.46,0,0,1-.27-.28c-.08-.1-.13-.11-.17-.08s0,.12.05.23l.46.57c.17.2.31.38.38.48s.39.52.66.89.61.85,1.1,1.48c.25.32.31.4.58.29a9.27,9.27,0,0,0,1-.62c.08-.06.15-.11.1-.18s-.09,0-.2,0a.91.91,0,0,1-.92.11,2.7,2.7,0,0,1-.71-.72c-.67-.86-.65-1.09-.08-1.56.24-.2,1-.79,1.31-1l.66-.52c.06,0,.1-.06.13,0,.16.2.79,1,.9,1.21.21.34.17.56,0,.73a2.3,2.3,0,0,1-.28.27.1.1,0,0,0,0,.14c.06.07.16,0,.22,0s.42-.28.59-.41c.46-.3.62-.37.67-.41a.07.07,0,0,0,0-.11s-.1,0-.21-.05-.27-.11-.44-.3-.92-1.16-1.06-1.34,0-.09,0-.13l2.14-1.66c.06,0,.1,0,.13,0s.8,1.07.89,1.22c.28.46.24.63.14.8a1.29,1.29,0,0,1-.27.29c-.07.06-.1.11-.06.17s.11,0,.16,0,.5-.33.59-.39c.41-.28.54-.31.6-.36s.07-.06,0-.11-.1-.07-.14-.11a2.94,2.94,0,0,1-.33-.32c-.13-.15-1.43-1.83-1.64-2.1-.09-.12-.24-.32-.4-.55l-.52-.69c-.1-.12-.16-.17-.22-.13s0,.11,0,.21A2.29,2.29,0,0,1,149,45c.15.32.07.49-.2.73s-.5.41-1.78,1.4Zm-6.25-2.81c-.19.51-.25.66-.15.76s.27,0,.9-.24l3.27-1.39c1.32-.56,1.92-.78,2.92-1.22a2.14,2.14,0,0,1,1.08-.3,1,1,0,0,1,.47.27c.08.07.14.1.19.05s0-.13-.09-.23-.62-.54-.76-.66-.4-.43-.79-.8c-.15-.14-.23-.19-.29-.13s0,.13.07.19a1.75,1.75,0,0,1,.28.33.21.21,0,0,1,0,.25,1.67,1.67,0,0,1-.34.22c-.67.33-4,1.88-5.18,2.41l0,0,2-4.79a3.09,3.09,0,0,1,.39-.76.24.24,0,0,1,.23-.09.68.68,0,0,1,.35.23c.07.06.13.09.19,0s0-.15-.12-.24c-.38-.37-.78-.7-1-.88s-.69-.7-1.11-1.09c-.11-.1-.2-.18-.26-.12s-.05.1,0,.16a1.58,1.58,0,0,1,.28.32,1.09,1.09,0,0,1,0,1.15Zm-4.57-7.54s0-.06,0-.09L137,36.26s.08-.06.11,0,0,.07,0,.11l-.74,2.7s0,0-.08,0Zm1.46,1.69a.1.1,0,0,1,0,.12L135.62,42a.16.16,0,0,1-.22.14c-.09,0-.14-.06-.17,0s.06.13.21.25c.68.51,1.32,1,1.63,1.19s.41.27.46.2,0-.1-.06-.15a2.29,2.29,0,0,1-.34-.3c-.16-.17-.32-.47-.09-1.49.38-1.72,1.46-6.19,1.6-6.82.05-.26.06-.37,0-.43s-.21,0-.49.18l-6,3.83c-.49.31-.86.49-1.3.26l-.28-.17c-.07-.05-.12-.06-.16,0s0,.12.11.21c.45.32,1,.63,1,.7.27.19.63.48.9.68.1.07.16.09.21,0s0-.09-.08-.16l-.13-.09c-.27-.2-.26-.37-.15-.52a1.93,1.93,0,0,1,.5-.44l1.32-.86c.06,0,.09,0,.13,0Zm-9.75-7.79s0,0,0-.09l.1-.2c.69-1.47.82-1.74,1-2s.33-.46.61-.38a1.31,1.31,0,0,1,.3.1q.17.09.21,0c0-.07,0-.12-.16-.19-.38-.18-1-.43-1.23-.54s-.85-.44-1.38-.69c-.13-.06-.21-.08-.24,0s0,.12.12.17a2.38,2.38,0,0,1,.37.2c.28.22.29.41.15.75s-.25.59-1,2.05l-.8,1.7c-.42.89-.78,1.65-1,2s-.32.45-.53.39a1.55,1.55,0,0,1-.37-.12c-.11-.06-.17-.05-.19,0s0,.13.15.19c.39.18,1,.44,1.23.55s.86.44,1.49.74c.12,0,.21.06.24,0s0-.1-.12-.15a5.26,5.26,0,0,1-.47-.27c-.27-.18-.23-.41-.13-.7s.51-1.2.93-2.09l.4-.85a.06.06,0,0,1,.08,0l3.69,1.75a.05.05,0,0,1,0,.08l-.4.85c-.42.89-.78,1.65-1,2s-.32.46-.53.4a1.55,1.55,0,0,1-.37-.12c-.11-.06-.17,0-.19,0s0,.13.16.19c.37.18,1,.44,1.22.55s.86.44,1.49.74c.11.05.21.06.24,0s0-.1-.12-.15a4.15,4.15,0,0,1-.47-.27c-.28-.18-.23-.42-.13-.7a22.51,22.51,0,0,1,.92-2.09l.81-1.7c.69-1.46.82-1.73,1-2s.34-.46.62-.38a1.07,1.07,0,0,1,.29.1c.12.05.19.06.22,0s0-.11-.16-.18c-.38-.18-1-.43-1.23-.54l-1.38-.69c-.13-.06-.21-.08-.24,0s0,.12.12.17a2.38,2.38,0,0,1,.37.2c.28.22.29.41.15.75s-.26.59-.95,2.05l-.09.21s-.07,0-.09,0ZM118.11,34a3,3,0,0,0,1.75.1,2.15,2.15,0,0,0,1.53-1.46c.31-1,.1-1.8-.84-3.12l-.21-.31c-.64-.91-.76-1.34-.61-1.81a1.13,1.13,0,0,1,1.55-.66,1.32,1.32,0,0,1,.94.86,1.26,1.26,0,0,1,0,.75c0,.12,0,.2,0,.22s.13-.05.21-.27c.25-.79.38-1.07.43-1.21s0-.12-.11-.16a4.86,4.86,0,0,0-1.29-.61c-1.41-.46-2.61,0-3,1.16-.26.83-.1,1.66.73,2.9l.35.51a2.06,2.06,0,0,1,.48,1.95,1.31,1.31,0,0,1-1.74.72A1.46,1.46,0,0,1,117.29,32a2.17,2.17,0,0,1,.07-.55c0-.08,0-.18,0-.21s-.15.08-.21.23-.3.75-.48,1.31c-.07.23-.06.29.08.41A3.66,3.66,0,0,0,118.11,34ZM107.6,31a2.07,2.07,0,0,1-1.7-2.48,1.91,1.91,0,0,1,1-1.49c.14.29.7,1.15.93,1.49s1.09,1.49,1.63,2.11A2.92,2.92,0,0,1,107.6,31Zm-3-2.17c-.14.92.32,2.43,2.58,2.78a3.45,3.45,0,0,0,2.65-.58,3.24,3.24,0,0,0,2.36,1.19l.82.12c.23,0,.32,0,.33-.05s0-.1-.14-.11a3.15,3.15,0,0,1-1.07-.54,11.65,11.65,0,0,1-1.31-1.26,4.3,4.3,0,0,0,1.42-2.35c0-.12-.13-.21-.33-.26-.58-.15-1-.23-1.26-.27-.08,0-.17,0-.18.08s0,.1.11.11a.83.83,0,0,1,.5.23.64.64,0,0,1,.12.52,3.17,3.17,0,0,1-.75,1.55c-.17-.21-1.29-1.58-1.59-2.05-.7-1.07-1.48-2.05-1.33-3a1.14,1.14,0,0,1,1.31-1,1.48,1.48,0,0,1,1.1.65,1.4,1.4,0,0,1,.17.93c0,.16,0,.21.05.22s.1,0,.15-.16a11.64,11.64,0,0,0,.32-1.34.23.23,0,0,0-.14-.3,3.38,3.38,0,0,0-1.24-.41c-1.84-.28-2.74.71-2.86,1.55a2.4,2.4,0,0,0,.31,1.58A3.13,3.13,0,0,0,104.56,28.87Zm-8.75-.77c.06,1,.12,1.82.09,2.27s-.06.55-.27.61a1.62,1.62,0,0,1-.38.07c-.13,0-.17,0-.17.09s.08.1.22.09c.43,0,1.1-.09,1.34-.11s1,0,1.68-.07c.11,0,.2-.05.19-.12s-.06-.08-.17-.07a5,5,0,0,1-.55,0c-.32,0-.4-.26-.45-.55-.08-.46-.13-1.3-.19-2.28l-.27-4.37,1.34,0c1,0,1.26.24,1.3.52v.12c0,.16,0,.21.13.2s.09-.07.09-.17c0-.28,0-1,0-1.24s0-.23-.1-.22a2.08,2.08,0,0,0-.29.07,5.11,5.11,0,0,1-.73.1l-4.22.26c-.35,0-.76,0-1.07,0a1.68,1.68,0,0,1-.46-.1c-.07,0-.1.07-.12.21s-.16,1.07-.15,1.24,0,.17.11.17.09-.05.11-.14a1,1,0,0,1,.16-.38c.14-.25.39-.32,1-.38l1.59-.14ZM84.48,29.28A3.5,3.5,0,0,0,86,31.88a3.42,3.42,0,0,0,2.46.27,3.19,3.19,0,0,0,2-1.17,4,4,0,0,0,.38-3.35l-.21-1.12c-.31-1.6-.37-1.89-.41-2.23s0-.56.27-.67a1.14,1.14,0,0,1,.3-.09c.12,0,.18-.06.17-.13s-.09-.08-.24-.05l-1.19.26s-.68.1-1.21.2c-.15,0-.22.06-.2.14s.08.08.19.06a1.4,1.4,0,0,1,.39,0c.36,0,.47.15.56.51s.15.62.45,2.21L90,28a3.65,3.65,0,0,1-.11,2.72,2.1,2.1,0,0,1-1.33.85,2,2,0,0,1-1.4-.18c-.59-.32-1-.9-1.31-2.42l-.29-1.47c-.31-1.59-.36-1.88-.41-2.22s0-.57.28-.68l.29-.09c.11,0,.17-.05.15-.12s-.09-.08-.25-.05c-.37.07-1,.23-1.28.28s-1,.15-1.53.26c-.16,0-.23.07-.22.14s.08.08.2.06a2.63,2.63,0,0,1,.41-.05c.36,0,.48.16.57.51s.14.63.45,2.22Zm-3.39,4.58A6.22,6.22,0,0,0,82.84,33a.38.38,0,0,0,.17-.38,10.16,10.16,0,0,0-.21-1.43c0-.08-.07-.14-.14-.12s-.09.07-.07.25a1.77,1.77,0,0,1-.13.78c-.25.6-.77.88-1.67,1.17a3.59,3.59,0,0,1-4.37-2.58,3.56,3.56,0,0,1,.08-2.93,2.79,2.79,0,0,1,1.7-1.25,3.25,3.25,0,0,1,2.27,0,1.56,1.56,0,0,1,.7.81c0,.14.09.21.17.19s.09-.12,0-.28-.24-.76-.33-1.1-.1-.5-.13-.58-.08-.1-.19-.07c-.32.07-.67.08-1.07.16a10.91,10.91,0,0,0-1.51.37,4.75,4.75,0,0,0-2.86,2.12,4.24,4.24,0,0,0,2,5.76A5.35,5.35,0,0,0,81.09,33.86Zm-13-3c0-.08,0-.12,0-.18a3.54,3.54,0,0,1,.5-.28,1.71,1.71,0,0,1,2.31,1.08A1.87,1.87,0,0,1,71,33.23c-.11.21-.22.31-.61.49a3,3,0,0,1-.78.25c-.08,0-.12,0-.17-.13Zm.69,4.41c.41.89.77,1.65.92,2.08s.14.53,0,.66a2.12,2.12,0,0,1-.33.21c-.12.05-.14.1-.12.14s.11.07.24,0l1.16-.58L72,37.19c.12-.06.17-.12.14-.19s-.07-.06-.15,0l-.49.18c-.31.1-.47-.09-.63-.35s-.6-1.15-1-2.05l-.06-.13c0-.06,0-.09,0-.11l.85-.38a.23.23,0,0,1,.2,0c.2.09,1,.54,1.59.89a5.14,5.14,0,0,0,2,.79,2.19,2.19,0,0,0,1.12-.3l.92-.43c.11-.06.17-.11.13-.19s-.07-.06-.15,0a1.51,1.51,0,0,1-.28.1,2.1,2.1,0,0,1-1.39-.15c-.86-.33-1.93-.87-3.3-1.55a3,3,0,0,0,.26-2.76,1.87,1.87,0,0,0-1.28-1,3.4,3.4,0,0,0-2,.43c-.3.14-1,.51-1.35.66s-.83.36-1.34.6c-.14.07-.2.12-.17.19s.1.06.21,0a1.39,1.39,0,0,1,.39-.15c.35-.09.5,0,.67.35s.29.57,1,2Zm-4.44,2.77c.56.87,1,1.58,1.22,2s.18.46,0,.61a1.7,1.7,0,0,1-.3.25c-.1.07-.12.11-.09.16s.12,0,.23,0c.36-.23.91-.62,1.12-.75s.82-.49,1.42-.88c.09-.06.15-.13.11-.19s-.09-.05-.19,0l-.48.26c-.3.13-.46,0-.65-.21-.28-.37-.74-1.08-1.3-2l-1-1.58c-.88-1.36-1-1.61-1.21-1.91s-.21-.53,0-.73l.26-.2c.09-.06.13-.11.08-.18s-.12,0-.23.05l-1.08.73c-.26.17-.84.51-1.19.73-.14.09-.2.15-.16.21s.11.05.2,0a1.54,1.54,0,0,1,.34-.17c.23-.08.42,0,.63.31s.37.52,1.24,1.89Zm-5.8,4.1s-.06,0-.08,0l-.85-2.66s0-.1,0-.12.07,0,.11,0l2.38,1.47s0,0,0,.09Zm2-.92a.1.1,0,0,1,.13,0l2,1.2a.18.18,0,0,1,.08.25c-.08.08-.1.12-.06.17s.15,0,.31-.13c.68-.51,1.29-1,1.59-1.23s.38-.32.32-.39-.09,0-.16,0a2.5,2.5,0,0,1-.38.25c-.21.09-.54.17-1.45-.34-1.54-.85-5.53-3.15-6.09-3.45-.24-.13-.35-.16-.42-.1s-.06.19,0,.52l2,6.85c.17.56.23,1-.11,1.32a2.8,2.8,0,0,1-.25.22c-.07.05-.09.1-.05.15s.12,0,.23,0c.43-.35.87-.74,1-.81.26-.2.64-.46.91-.67.09-.08.13-.13.07-.2s-.08-.05-.18,0l-.12.1c-.26.21-.42.16-.54,0a2,2,0,0,1-.28-.62l-.45-1.5c0-.06,0-.09,0-.13ZM50.42,48.68a.07.07,0,0,1-.1,0l-.17-.15c-1.23-1.06-1.46-1.25-1.7-1.49s-.36-.44-.21-.69a1.27,1.27,0,0,1,.18-.26c.08-.1.11-.16,0-.21s-.12,0-.22.11c-.27.31-.68.85-.85,1s-.65.71-1,1.15c-.1.11-.13.18-.08.23s.12,0,.19-.08a2.57,2.57,0,0,1,.3-.29c.29-.22.47-.17.76.05s.5.4,1.73,1.45l1.42,1.23c.75.64,1.39,1.19,1.7,1.52s.35.43.24.62a1.54,1.54,0,0,1-.22.32c-.08.1-.09.15-.05.18s.13,0,.22-.09c.28-.32.7-.85.86-1s.65-.72,1.11-1.24c.08-.1.11-.19,0-.23s-.1,0-.17.07-.28.28-.39.38-.46.12-.71-.06-1-.8-1.77-1.44l-.71-.62s0-.06,0-.09L53.51,46a.07.07,0,0,1,.09,0l.72.62c.74.64,1.38,1.19,1.69,1.52s.35.43.24.62A1.84,1.84,0,0,1,56,49c-.08.1-.09.15-.05.19s.13,0,.23-.1c.27-.32.69-.85.85-1s.65-.72,1.11-1.25c.08-.09.11-.18,0-.23s-.09,0-.17.08-.28.28-.39.38-.46.11-.71-.06-1-.81-1.77-1.45l-1.42-1.22c-1.23-1.06-1.46-1.25-1.7-1.49s-.35-.44-.21-.7a1.48,1.48,0,0,1,.18-.25c.08-.1.11-.16,0-.21s-.12,0-.22.11c-.27.31-.68.84-.85,1s-.65.7-1,1.14c-.09.12-.13.19-.07.23s.12,0,.19-.07a2.57,2.57,0,0,1,.3-.29c.28-.22.47-.18.76,0s.5.4,1.73,1.46l.17.15a.07.07,0,0,1,0,.1Z"/><path class="cls-1" d="M164.38,91.63c2.19,0,3.11-1.4,3.11-2.66,0-1.65-1.72-2.42-3.13-2.65l.13-1.15h1.72c.77,0,.83.24.83.51,0,.07,0,.13.08.13s.09-.06.1-.11a8.3,8.3,0,0,0,.13-1.21c0-.15,0-.18-.1-.18l-.19,0a3,3,0,0,1-.53,0h-2.31c-.11,0-.18,0-.18.12l-.22,2.5c0,.12.05.17.17.19.74.11,2.39.73,2.39,2.24a1.55,1.55,0,0,1-1.56,1.73,1.13,1.13,0,0,1-1.29-1.26c0-.11,0-.16-.08-.16s-.09.07-.11.17a11.82,11.82,0,0,0,0,1.19c0,.2,0,.28.18.37a2.24,2.24,0,0,0,.89.17m-5.15-7.42a2.22,2.22,0,0,0-2.42,2.2,1.82,1.82,0,0,0,1.93,1.83,1.74,1.74,0,0,0,1.25-.43.22.22,0,0,0,0-.11.08.08,0,0,0-.08-.08.86.86,0,0,0-.19.1,1.43,1.43,0,0,1-.64.11c-.32,0-1.26-.34-1.26-1.78,0-.81.46-1.41,1.14-1.41s1.44.73,1.44,2.41A5.31,5.31,0,0,1,158,91.43c-.05,0-.12.09-.12.16a.1.1,0,0,0,.09.09.43.43,0,0,0,.17,0c1.17-.55,3.49-2.22,3.49-4.87A2.34,2.34,0,0,0,159.23,84.21Zm-6.14,0a2.22,2.22,0,0,0-2.42,2.2,1.82,1.82,0,0,0,1.93,1.83,1.78,1.78,0,0,0,1.25-.43.22.22,0,0,0,.05-.11.08.08,0,0,0-.08-.08s-.09,0-.19.1a1.43,1.43,0,0,1-.64.11c-.32,0-1.26-.34-1.26-1.78,0-.81.45-1.41,1.13-1.41s1.44.73,1.44,2.41a5.29,5.29,0,0,1-2.46,4.38s-.11.09-.11.16a.1.1,0,0,0,.08.09.37.37,0,0,0,.17,0c1.18-.55,3.49-2.22,3.49-4.87A2.34,2.34,0,0,0,153.09,84.21Zm-6.52,4.41c0,.91,0,1.71,0,2.13s-.07.43-.38.5a5.48,5.48,0,0,1-.75.06s-.08,0-.08.1.06.08.16.08l1.62,0,1.58,0c.1,0,.15,0,.15-.08a.09.09,0,0,0-.08-.1,5.27,5.27,0,0,1-.63,0c-.3-.07-.35-.21-.38-.51s0-1.22,0-2.13V86.87c0-1.45.06-2.38.06-2.46s0-.2-.11-.2-.16.07-.25.12c-.33.25-2.14,1.44-2.18,1.46s-.1.08-.1.13a.11.11,0,0,0,.08.11.38.38,0,0,0,.13,0,6.63,6.63,0,0,1,1.1-.46c.14,0,.14.12.14.35v2.74Zm-96.12-1c0-.64,0-1.34,0-1.62,0-.09,0-.13.1-.16a2.18,2.18,0,0,1,.52-.06,3.24,3.24,0,0,1,2.31.81,2.77,2.77,0,0,1,.78,2,2.26,2.26,0,0,1-2.55,2.6c-.64,0-1-.17-1.06-.32a1.73,1.73,0,0,1-.09-.62c0-.15,0-.78,0-1.64Zm-1,1.56c0,.74,0,1.39,0,1.73s-.07.41-.24.44a1.12,1.12,0,0,1-.29,0c-.1,0-.13,0-.13.07s.06.08.16.08l.56,0h.46c.21,0,.49,0,.8,0s.64,0,.93,0a3.73,3.73,0,0,0,2.72-1,3.25,3.25,0,0,0,.88-2.26,2.87,2.87,0,0,0-.79-2.06,4.26,4.26,0,0,0-3.25-.93c-.48,0-1,0-1.24,0s-.74,0-1.17,0c-.12,0-.18,0-.18.07s.05.08.14.08l.31,0c.27.06.34.19.35.46s0,.49,0,1.72Zm-5.08,0c0,.74,0,1.39,0,1.73s-.07.41-.24.44a1.12,1.12,0,0,1-.29,0c-.1,0-.13,0-.13.07s.06.08.16.08l1,0,1.27,0c.09,0,.15,0,.15-.08s0-.07-.13-.07a2.73,2.73,0,0,1-.41,0c-.24,0-.29-.21-.32-.44s0-1,0-1.73V85.82l1,0c.73,0,.94.24,1,.45v.09c0,.13,0,.17.09.17s.06,0,.07-.13,0-.77,0-.94,0-.18-.07-.18l-.22,0a5.09,5.09,0,0,1-.56,0H43.49c-.27,0-.57,0-.81,0a2.49,2.49,0,0,1-.35-.1s-.07,0-.09.15-.17.8-.17.93,0,.13.07.13.07,0,.09-.09a.67.67,0,0,1,.14-.29c.12-.18.31-.22.78-.23l1.21,0ZM38.9,91.6a2.35,2.35,0,0,0,1.29-.33A1.64,1.64,0,0,0,41,89.86c0-.77-.35-1.33-1.33-2.07l-.23-.17c-.67-.51-.86-.79-.86-1.16a.86.86,0,0,1,1-.84,1,1,0,0,1,.88.4,1,1,0,0,1,.21.53c0,.1,0,.15.08.15s.09-.07.09-.24c0-.64,0-.87,0-1s0-.08-.12-.09a3.77,3.77,0,0,0-1.08-.14c-1.12,0-1.87.64-1.87,1.53,0,.66.31,1.22,1.2,1.92l.37.29c.68.53.8.9.8,1.3a1,1,0,0,1-1.09.92,1.11,1.11,0,0,1-1.16-.81,1.75,1.75,0,0,1-.07-.42c0-.06,0-.14-.08-.14s-.09.09-.1.21,0,.62,0,1.07c0,.18,0,.22.16.27A2.68,2.68,0,0,0,38.9,91.6Zm-6.26-2.46c0,.74,0,1.39,0,1.73s-.08.41-.24.44a1.12,1.12,0,0,1-.29,0c-.1,0-.13,0-.13.07s.06.08.16.08l.56,0h.46c.25,0,.5,0,.85,0l1.4,0c.31,0,.38,0,.44-.21a6.35,6.35,0,0,0,.1-.9c0-.08,0-.14-.06-.14s-.08,0-.09.12c-.06.33-.16.5-.37.6a2,2,0,0,1-.76.1c-.83,0-1-.12-1-.68,0-.24,0-1,0-1.26V88.5s0-.08.05-.08l1.15,0c.3,0,.41.16.45.32a1,1,0,0,1,0,.29s0,.07.08.07.07-.09.07-.15,0-.38,0-.54c0-.42.07-.55.07-.6a.06.06,0,0,0-.06-.06s-.07,0-.13.11-.19.1-.39.12h-1.3s-.05,0-.05-.09v-2c0-.05,0-.08.05-.08l1.16,0c.4.05.48.15.54.3a.84.84,0,0,1,.05.29c0,.07,0,.11.07.11s.07,0,.08-.09,0-.45,0-.53c0-.38.07-.47.07-.53s0-.07,0-.07l-.13,0-.35,0h-2l-.51,0H32c-.13,0-.18,0-.18.07s.05.08.13.08l.32,0c.27.06.33.19.35.46s0,.49,0,1.72Z"/><path class="cls-2" d="M25.18,145.19H173.82V146H25.18Zm0-30.68H173.82v.78H25.18Z"/><path class="cls-1" d="M94.68,94c-2.52,1.4-15.84,8.47-25.91,8.47-4.1,0-1-10.38-1-14.47s-3.15-14.48,1-14.48c11.12,0,22.42,6.93,25.51,9a4.32,4.32,0,0,0-.74,2.47V91a4.27,4.27,0,0,0,1.14,3m36.8-6c0,4.09,3.15,14.47-.94,14.47-10.07,0-23.39-7.07-25.92-8.47a4.28,4.28,0,0,0,1.15-3V84.91a4.25,4.25,0,0,0-.76-2.46c3.06-2,14.38-9,25.53-9C134.63,73.47,131.48,83.85,131.48,88Zm-28.61,5.89A3.79,3.79,0,0,0,104,91V84.91a3.79,3.79,0,0,0-1.18-2.83,5,5,0,0,0-6.43,0,3.82,3.82,0,0,0-1.17,2.86V91a3.82,3.82,0,0,0,1.17,2.86A5,5,0,0,0,102.87,93.84Z"/><path class="cls-1" d="M98.78,55.78a.66.66,0,0,0,0,.94.65.65,0,0,0,.93,0,.66.66,0,0,0,0-.94.65.65,0,0,0-.93,0M92.66,64a2.07,2.07,0,0,0,.27,2.82l0,0a1.68,1.68,0,0,0,1.41.18,2.46,2.46,0,0,0,1.33-1,2.07,2.07,0,0,0-.27-2.82l0,0A1.65,1.65,0,0,0,94,63,2.46,2.46,0,0,0,92.66,64Zm10-13.59-2.38,2.15c4-3.28,11.93-9.79,13.18-10.59.1-.07.16-.1.17-.08h0s0,.08-.09.18c-.68,1.06-5.12,6.52-8.51,10.65a.2.2,0,0,1-.06.24l-.54.5-1.52,1.84,2.29-2.08a.2.2,0,0,1,.28,0,.2.2,0,0,1,0,.28l-3.14,2.84.24.26,3.14-2.85a.2.2,0,0,1,.28,0,.21.21,0,0,1,0,.28l-3.14,2.85.23.25,3.14-2.84a.2.2,0,0,1,.28,0,.2.2,0,0,1,0,.28l-3.14,2.85.23.25,3.14-2.84a.2.2,0,0,1,.28,0,.2.2,0,0,1,0,.28l-3.14,2.85.24.26,3.14-2.85a.18.18,0,1,1,.24.26l-3.15,2.85.24.26,3.14-2.85a.2.2,0,0,1,.28,0,.2.2,0,0,1,0,.27l-3.14,2.85.23.26L108,56.35a.2.2,0,0,1,.28,0,.2.2,0,0,1,0,.28l-3.14,2.84.23.26,3.15-2.85a.2.2,0,0,1,.28,0,.22.22,0,0,1,0,.28L105.58,60l.24.25L109,57.4a.2.2,0,0,1,.28,0,.21.21,0,0,1,0,.28l-3.14,2.85.23.26,3.14-2.85a.19.19,0,0,1,.28,0,.19.19,0,0,1,0,.27L106.53,61l.23.26,3.15-2.85a.19.19,0,0,1,.28,0,.21.21,0,0,1,0,.27L107,61.55l.24.26L110.38,59a.2.2,0,0,1,.28,0,.21.21,0,0,1,0,.28l-3.14,2.84.23.26,3.14-2.85a.2.2,0,0,1,.28,0,.2.2,0,0,1,0,.28L108,62.6l.23.25L111.32,60a.2.2,0,0,1,.28,0,.2.2,0,0,1,0,.28l-3.14,2.85.24.26,3.14-2.85a.2.2,0,0,1,.28,0,.21.21,0,0,1,0,.28l-3.14,2.85.23.26,3.14-2.85a.19.19,0,0,1,.28,0,.19.19,0,0,1,0,.27l-3.14,2.85.23.26,3.14-2.85a.2.2,0,0,1,.28,0,.2.2,0,0,1,0,.28l-3.14,2.84.24.26,3.14-2.85a.2.2,0,0,1,.28,0,.22.22,0,0,1,0,.28l-3.14,2.84.13.15h0l.1.1,3.14-2.85a.21.21,0,0,1,.28,0,.2.2,0,0,1,0,.28l-3.14,2.85a3.2,3.2,0,0,0,.27.22l3.1-2.81a.2.2,0,0,1,.28,0,.2.2,0,0,1,0,.28l-3,2.74a.65.65,0,0,0,.53,0l2.73-2.48c.14-.12.4-.05.59.17s.25.48.12.6l-3.87,3.5,0,0c-.42.34-1.34,0-2.06-.81l-8.73-9.63a9.9,9.9,0,0,1-1.17,0l-2.4,4.11h0a3,3,0,0,0-.39,2.2,3,3,0,0,1-.42,2.56,3.15,3.15,0,0,1-1.71,1.29,2.44,2.44,0,0,1-1.44,0l-.07.07a3.65,3.65,0,0,0-.6.65c-.08.12-.17.23-.24.36a.74.74,0,0,0-.09.43.46.46,0,0,1-.86.25.46.46,0,0,1,.2-.62.67.67,0,0,0,.32-.3,3.39,3.39,0,0,0,.18-.39,3.44,3.44,0,0,0,.23-.85.58.58,0,0,1,0-.14,2.79,2.79,0,0,1-.15-3.51,3.17,3.17,0,0,1,1.71-1.3,2.72,2.72,0,0,1,.56-.09,3.05,3.05,0,0,0,1.92-1.17h0c1.23-1.71,2.11-3.39,2-3.76v-.05l0,0c-.38-.14-2,.75-3.76,2h0a3.06,3.06,0,0,0-1.16,1.93,2.87,2.87,0,0,1-.1.56,3.1,3.1,0,0,1-1.3,1.7,2.75,2.75,0,0,1-3.63-.28h0a10,10,0,0,1-1.13.31,5.39,5.39,0,0,1-1.14.14.75.75,0,0,1-.15,0h-.14l-.31,0a2,2,0,0,1-.57-.24,2.61,2.61,0,0,1-.47-.41c-.06-.09-.13-.17-.18-.26a1.39,1.39,0,0,1-.17-.3l0-.08a.34.34,0,0,1,0-.2.36.36,0,0,1,.42-.3.36.36,0,0,1,.3.42,1,1,0,0,0,0,.2,1.8,1.8,0,0,0,.08.21,1.18,1.18,0,0,0,.3.33,1,1,0,0,0,.42.19l.22,0h.25a3.09,3.09,0,0,0,1-.28,3.48,3.48,0,0,0,.84-.55l.06,0a2.51,2.51,0,0,1,0-1.3,3.07,3.07,0,0,1,1.3-1.7,3,3,0,0,1,2.56-.42,3,3,0,0,0,2.19-.39h0L98,56a12.14,12.14,0,0,1,0-1.44L90.1,45.91l0,0h0l0,0h0l0,0h0l0,0h0l0,0h0l0,0h0l0,0h0l0,0h0l0,0h0l0,0h0l0,0h0l0,0h0l0,0h0l0,0h0l0,0h0v0h0v0l0,0h0l0,0h0l0,0h0l0,0v0l0,0v0h0v0h0v0h0v-.12h0l0-.07h0v0h0v-.11h0v0h0v0h0v0h0a.59.59,0,0,1,0-.13v0h0v0h0a.76.76,0,0,1,.05-.27h0a.64.64,0,0,1,.08-.14v0h0l0,0h0l0,0,3.87-3.51c.13-.12.4,0,.59.17s.24.49.11.61l-2.74,2.48a.69.69,0,0,0,0,.53l3-2.74a.2.2,0,0,1,.28,0,.22.22,0,0,1,0,.28l-3.11,2.82c.06.1.13.2.19.28h0l3.14-2.85a.19.19,0,0,1,.28,0,.19.19,0,0,1,0,.27l-3.14,2.85.23.26,3.14-2.85a.19.19,0,0,1,.28,0,.19.19,0,0,1,0,.27l-3.14,2.85.23.26,3.15-2.85a.19.19,0,0,1,.27,0,.21.21,0,0,1,0,.28L92.86,46l.24.26,3.14-2.85a.2.2,0,0,1,.28,0,.21.21,0,0,1,0,.28l-3.14,2.85.23.25,3.14-2.84a.2.2,0,0,1,.28,0,.2.2,0,0,1,0,.28L93.81,47l.23.26,3.14-2.85a.19.19,0,0,1,.28,0,.19.19,0,0,1,0,.27l-3.14,2.85.24.26,3.14-2.85a.18.18,0,1,1,.24.26L94.76,48l.23.26,3.14-2.85a.2.2,0,0,1,.28,0,.2.2,0,0,1,0,.28l-3.14,2.84.23.26L98.6,46a.2.2,0,0,1,.28,0,.2.2,0,0,1,0,.28L95.7,49.09l.24.25,3.14-2.85a.21.21,0,0,1,.28,0,.21.21,0,0,1,0,.28l-3.14,2.85.23.25L99.55,47a.19.19,0,0,1,.28,0,.19.19,0,0,1,0,.27l-3.14,2.85.23.26L100,47.54a.19.19,0,0,1,.28,0,.19.19,0,0,1,0,.27l-3.14,2.85.24.26,3.14-2.85a.2.2,0,0,1,.28,0,.22.22,0,0,1,0,.28L97.6,51.17l.23.26L101,48.58a.2.2,0,0,1,.28,0,.2.2,0,0,1,0,.28L98.07,51.7l.23.25,3.14-2.85a.21.21,0,0,1,.28,0,.2.2,0,0,1,0,.28l-3.14,2.85.23.25,3.15-2.84a.2.2,0,0,1,.28,0,.22.22,0,0,1,0,.28L99,52.74l.24.26,3.14-2.85a.19.19,0,0,1,.28,0A.2.2,0,0,1,102.63,50.41ZM91.5,62.83a2.4,2.4,0,0,0,1-1.33,1.65,1.65,0,0,0-.17-1.4l0,0a2,2,0,0,0-2.81-.26,2.37,2.37,0,0,0-1,1.33,1.66,1.66,0,0,0,.17,1.4l0,0A2.06,2.06,0,0,0,91.5,62.83Z"/><path class="cls-1" d="M164.28,131.55c0,1.8,0,3.35-.1,4.17-.08.57-.18,1-.57,1.07a3.06,3.06,0,0,1-.7.08c-.24,0-.32.06-.32.16s.14.19.4.19c.78,0,2-.05,2.46-.05s1.74.05,3,.05c.22,0,.38-.05.38-.19s-.1-.16-.32-.16a8.26,8.26,0,0,1-1-.08c-.58-.07-.7-.5-.76-1-.1-.84-.1-2.39-.1-4.19v-7.83c0-.22.06-.33.16-.37a2.72,2.72,0,0,1,.76-.08,2.93,2.93,0,0,1,2,.76,3.76,3.76,0,0,1,1.16,2.94,3.08,3.08,0,0,1-2.63,3.23c-.41,0-.55.06-.55.21s.14.16.24.18a2.82,2.82,0,0,0,.41,0,4.61,4.61,0,0,0,4.82-4.74,3.44,3.44,0,0,0-1-2.33c-.32-.29-1.2-1.11-3.64-1.11-.9,0-2,.06-2.84.06-.55,0-1.78-.06-2.82-.06-.29,0-.43,0-.43.17s.12.18.33.18a4,4,0,0,1,.77.06c.64.14.8.45.84,1.12s0,1.17,0,4.14Zm-12,5c-3.76,0-6-3.23-6-7.3,0-4.87,2.57-6.13,4.82-6.13,3.21,0,5.73,2.72,5.73,7.11C156.84,135.85,153.67,136.52,152.3,136.52Zm-.82,1a7.74,7.74,0,0,0,8.1-8c0-4.48-3-7.32-7.9-7.32-5.88,0-8.09,4.33-8.09,7.68A7.46,7.46,0,0,0,151.48,137.5Zm-22.62-8.85c-.06,0-.12,0-.12-.14v-.41c0-3,0-3.52,0-4.14s.2-1,.73-1.12a3.35,3.35,0,0,1,.56-.06c.24,0,.36,0,.36-.18s-.14-.17-.42-.17c-.76,0-2,.06-2.46.06s-1.76-.06-2.82-.06c-.27,0-.41,0-.41.17s.12.18.33.18a4,4,0,0,1,.77.06c.64.14.8.45.84,1.12s0,1.17,0,4.14v3.45c0,1.8,0,3.35-.1,4.17-.08.57-.18,1-.57,1.07a3.14,3.14,0,0,1-.7.08c-.24,0-.32.06-.32.16s.14.19.39.19c.79,0,2-.05,2.47-.05s1.78.05,3.05.05c.24,0,.39-.05.39-.19s-.09-.16-.31-.16a8.26,8.26,0,0,1-1-.08c-.58-.07-.7-.5-.76-1-.1-.84-.1-2.39-.1-4.19v-1.72a.11.11,0,0,1,.12-.12h7.48a.11.11,0,0,1,.11.12v1.72c0,1.8,0,3.35-.09,4.17-.08.57-.18,1-.57,1.07a3.16,3.16,0,0,1-.71.08c-.23,0-.31.06-.31.16s.14.19.41.19c.76,0,2-.05,2.45-.05s1.78.05,3.05.05c.24,0,.39-.05.39-.19s-.1-.16-.31-.16a8.1,8.1,0,0,1-1-.08c-.59-.07-.7-.5-.76-1-.1-.84-.1-2.39-.1-4.19V128.1c0-3,0-3.52,0-4.14s.19-1,.72-1.12a3.45,3.45,0,0,1,.57-.06c.24,0,.35,0,.35-.18s-.13-.17-.41-.17c-.76,0-2,.06-2.46.06s-1.77-.06-2.82-.06c-.28,0-.41,0-.41.17s.11.18.33.18a3.89,3.89,0,0,1,.76.06c.65.14.81.45.84,1.12s0,1.17,0,4.14v.41c0,.1-.06.14-.11.14Zm-12.78,8.85a5.68,5.68,0,0,0,3.11-.8,3.94,3.94,0,0,0,1.84-3.41c0-1.86-.84-3.21-3.21-5l-.54-.41c-1.63-1.23-2.08-1.92-2.08-2.82a2.06,2.06,0,0,1,2.33-2,2.47,2.47,0,0,1,2.13,1,2.39,2.39,0,0,1,.51,1.3c0,.23.06.35.2.35s.21-.16.21-.59c0-1.53.08-2.09.08-2.35s-.1-.19-.27-.23a9.3,9.3,0,0,0-2.61-.34c-2.72,0-4.52,1.55-4.52,3.7,0,1.59.75,3,2.9,4.64l.9.71c1.63,1.27,1.92,2.17,1.92,3.13a2.37,2.37,0,0,1-2.62,2.23,2.69,2.69,0,0,1-2.8-2,4,4,0,0,1-.18-1c0-.15,0-.33-.19-.33s-.22.22-.24.51-.1,1.49-.1,2.56c0,.44.06.53.37.67A6.86,6.86,0,0,0,116.08,137.5Zm-14.56-13.8c0-.16,0-.23.18-.27a4.25,4.25,0,0,1,1-.08c1.15,0,3,.8,3,3.58a3.48,3.48,0,0,1-1.15,2.94,2,2,0,0,1-1.39.33,5.07,5.07,0,0,1-1.49-.2c-.14-.06-.18-.13-.18-.35Zm-2.31,7.85c0,1.8,0,3.35-.09,4.17-.08.57-.18,1-.57,1.07a3.16,3.16,0,0,1-.71.08c-.23,0-.31.06-.31.16s.14.19.39.19c.79,0,2-.05,2.39-.05s1.74.05,2.88.05c.25,0,.39-.05.39-.19s-.08-.16-.24-.16a8.69,8.69,0,0,1-1-.08c-.59-.07-.71-.5-.77-1.07-.1-.82-.1-2.37-.1-4.19v-.28c0-.11.06-.15.16-.15l1.7,0a.44.44,0,0,1,.36.13c.25.3,1.15,1.63,1.93,2.71a9.43,9.43,0,0,0,2.69,2.87,3.88,3.88,0,0,0,2.09.37h1.86c.23,0,.37,0,.37-.19s-.08-.16-.23-.16a3,3,0,0,1-.55-.06,3.77,3.77,0,0,1-2.19-1.33c-1.16-1.21-2.51-2.95-4.25-5.14,2-1.61,2.58-2.94,2.58-4.39a3.38,3.38,0,0,0-1.33-2.68,6.3,6.3,0,0,0-3.6-.84c-.61,0-2.1.06-2.76.06-.41,0-1.64-.06-2.68-.06-.3,0-.43,0-.43.17s.12.18.33.18a3.89,3.89,0,0,1,.76.06c.65.14.81.45.84,1.12s0,1.17,0,4.14Zm-13,0c0,1.8,0,3.35-.1,4.17-.07.57-.17,1-.56,1.07a3.16,3.16,0,0,1-.71.08c-.23,0-.31.06-.31.16s.14.19.39.19l1.35,0c.47,0,.9,0,1.12,0,.58,0,1.19,0,2,.05s1.92.06,3.39.06c.74,0,.92,0,1-.51a15,15,0,0,0,.26-2.17c0-.19,0-.35-.16-.35s-.17.08-.21.29c-.14.81-.37,1.22-.88,1.45a4.87,4.87,0,0,1-1.84.24c-2,0-2.31-.3-2.35-1.65,0-.57,0-2.37,0-3V130c0-.11,0-.19.12-.19.47,0,2.4,0,2.77.06.73.07,1,.37,1.1.76a5,5,0,0,1,.08.7.16.16,0,0,0,.18.18c.17,0,.17-.22.17-.37s.06-.92.08-1.31c.08-1,.16-1.32.16-1.43s-.06-.16-.14-.16-.18.1-.31.26a1.41,1.41,0,0,1-.94.29c-.45,0-2.7,0-3.13,0-.12,0-.14-.08-.14-.22v-5c0-.14,0-.19.14-.19.39,0,2.44,0,2.77.07,1,.12,1.18.36,1.32.71a2.26,2.26,0,0,1,.11.7c0,.18,0,.28.18.28s.18-.12.19-.22.08-1.09.1-1.29a12.34,12.34,0,0,1,.16-1.27c0-.1,0-.18-.12-.18a1.77,1.77,0,0,0-.31.08,7.81,7.81,0,0,1-.84.12c-.37,0-4.27,0-4.9,0l-1.23,0-1.58,0c-.3,0-.43,0-.43.17s.11.18.33.18a4,4,0,0,1,.76.06c.65.14.8.45.84,1.12s0,1.17,0,4.14ZM79,133.9a2.27,2.27,0,0,1-2.36,2.5,3.59,3.59,0,0,1-1.43-.23c-.63-.26-.69-.59-.69-1.88v-4.64c0-.1,0-.14.12-.14.29,0,.49,0,.84,0a2.83,2.83,0,0,1,1.62.47A4.66,4.66,0,0,1,79,133.9Zm-4.48-10.3c0-.21,0-.29.18-.33a3,3,0,0,1,.64,0c1.69,0,2.45,1.72,2.45,3a2.56,2.56,0,0,1-.8,2.08,2,2,0,0,1-1.41.37,4.71,4.71,0,0,1-.92-.06c-.08,0-.14-.06-.14-.21Zm-2.35,8c0,1.8,0,3.35-.09,4.17-.08.57-.18,1-.57,1.07a3.16,3.16,0,0,1-.71.08c-.23,0-.31.06-.31.16s.14.19.39.19l1.35,0c.47,0,.9,0,1.12,0l1.47.05c.56,0,1.13.06,1.37.06,3.6,0,5.22-2.17,5.22-4.26,0-2.29-2-3.68-3.56-4.23a4.25,4.25,0,0,0,2-3.43c0-1-.63-2.93-4.17-2.93-.67,0-1.43.06-2.39.06-.39,0-1.63-.06-2.66-.06-.3,0-.43,0-.43.17s.11.18.33.18a3.89,3.89,0,0,1,.76.06c.65.14.8.45.84,1.12s0,1.17,0,4.14ZM59.12,123.7c0-.16,0-.23.18-.27a4.2,4.2,0,0,1,1-.08c1.15,0,3,.8,3,3.58a3.48,3.48,0,0,1-1.15,2.94,2,2,0,0,1-1.39.33,5.07,5.07,0,0,1-1.49-.2c-.14-.06-.18-.13-.18-.35Zm-2.31,7.85c0,1.8,0,3.35-.09,4.17-.08.57-.18,1-.57,1.07a3.16,3.16,0,0,1-.71.08c-.23,0-.31.06-.31.16s.14.19.39.19c.78,0,2-.05,2.39-.05s1.74.05,2.88.05c.25,0,.39-.05.39-.19s-.08-.16-.24-.16a9.06,9.06,0,0,1-1-.08c-.58-.07-.7-.5-.76-1.07-.1-.82-.1-2.37-.1-4.19v-.28c0-.11.06-.15.16-.15l1.7,0a.41.41,0,0,1,.35.13c.26.3,1.16,1.63,1.94,2.71A9.55,9.55,0,0,0,66,136.85a3.94,3.94,0,0,0,2.1.37h1.86c.23,0,.37,0,.37-.19s-.08-.16-.24-.16a3,3,0,0,1-.54-.06,3.81,3.81,0,0,1-2.2-1.33c-1.15-1.21-2.5-2.95-4.24-5.14,2-1.61,2.58-2.94,2.58-4.39a3.38,3.38,0,0,0-1.33-2.68,6.3,6.3,0,0,0-3.6-.84c-.61,0-2.1.06-2.76.06-.41,0-1.65-.06-2.68-.06-.3,0-.43,0-.43.17s.11.18.33.18a3.89,3.89,0,0,1,.76.06c.65.14.8.45.84,1.12s0,1.17,0,4.14Zm-13.13-.3c-.07,0-.09-.05-.07-.13l1.8-4.8c0-.07.05-.17.11-.17s.08.1.1.17l1.76,4.82c0,.06,0,.11-.1.11Zm4,1a.18.18,0,0,1,.19.14l1.57,4a.32.32,0,0,1-.18.45c-.19,0-.27.06-.27.18s.23.14.59.16c1.56,0,3,0,3.69,0s.9,0,.9-.19-.09-.16-.25-.16a4.19,4.19,0,0,1-.82-.08c-.41-.09-1-.37-1.72-2.13-1.26-3-4.39-10.8-4.86-11.88-.19-.45-.31-.63-.49-.63s-.31.22-.55.79l-4.91,12.13c-.39,1-.76,1.65-1.66,1.76a5.86,5.86,0,0,1-.61,0c-.15,0-.23,0-.23.16s.11.19.37.19c1,0,2.09-.05,2.31-.05.61,0,1.45.05,2.07.05.22,0,.34,0,.34-.19s-.06-.16-.3-.16h-.29c-.61,0-.78-.25-.78-.6a3.66,3.66,0,0,1,.29-1.2l1.06-2.68c0-.12.07-.16.17-.16ZM34.8,133.9a2.28,2.28,0,0,1-2.37,2.5,3.62,3.62,0,0,1-1.43-.23c-.62-.26-.68-.59-.68-1.88v-4.64c0-.1,0-.14.12-.14.29,0,.49,0,.84,0a2.83,2.83,0,0,1,1.62.47A4.66,4.66,0,0,1,34.8,133.9Zm-4.48-10.3c0-.21,0-.29.18-.33a3,3,0,0,1,.64,0c1.69,0,2.45,1.72,2.45,3a2.59,2.59,0,0,1-.8,2.08,2,2,0,0,1-1.41.37,4.64,4.64,0,0,1-.92-.06c-.08,0-.14-.06-.14-.21Zm-2.35,8c0,1.8,0,3.35-.1,4.17-.08.57-.17,1-.56,1.07a3.24,3.24,0,0,1-.71.08c-.23,0-.31.06-.31.16s.13.19.39.19l1.35,0c.47,0,.9,0,1.12,0s.88,0,1.46.05,1.14.06,1.37.06c3.6,0,5.23-2.17,5.23-4.26,0-2.29-2-3.68-3.56-4.23a4.27,4.27,0,0,0,2-3.43c0-1-.62-2.93-4.17-2.93-.66,0-1.42.06-2.38.06-.39,0-1.63-.06-2.67-.06-.29,0-.43,0-.43.17s.12.18.34.18a4,4,0,0,1,.76.06c.65.14.8.45.84,1.12s0,1.17,0,4.14Z"/><path class="cls-1" d="M136,157.55c0-.27-.07-.38-.17-.38s-.15.1-.21.23l-4.18,8.93-4.36-9c-.07-.16-.13-.21-.21-.21s-.15.1-.16.25l-1,9.28c0,.55-.1,1.1-.56,1.19a2,2,0,0,1-.43,0c-.07,0-.14,0-.14.07s.1.13.24.13c.38,0,1.07,0,1.19,0s.8,0,1.33,0c.17,0,.25,0,.25-.13s0-.07-.11-.07a3.12,3.12,0,0,1-.54-.07.46.46,0,0,1-.37-.44c0-.25,0-.5,0-.73l.57-6.6h.06c.16.38,1.75,3.8,1.88,4s1.29,2.61,1.66,3.3c.27.52.35.66.44.66s.18-.13.47-.76l3.49-7.4h0l.69,7.39c0,.26,0,.5-.06.51s-.1,0-.1.1.07.12.4.15c.53,0,2.06,0,2.38,0s.3,0,.3-.13-.05-.07-.12-.07a3.25,3.25,0,0,1-.92-.12c-.62-.2-.72-1-.77-1.51Zm-22.52,6c0,2.08.54,3.08,1.24,3.75a4.39,4.39,0,0,0,2.93,1,4.13,4.13,0,0,0,2.93-1.06c1.14-1,1.31-2.71,1.31-4.25V161.5c0-2.23,0-2.62,0-3.08s.14-.73.53-.81a1.85,1.85,0,0,1,.35,0c.06,0,.12,0,.12-.09s-.07-.11-.23-.11c-.43,0-1.1,0-1.2,0s-.86,0-1.5,0c-.16,0-.23,0-.23.11s0,.09.11.09a2.63,2.63,0,0,1,.49,0c.47.1.58.33.61.81s0,.85,0,3.08v1.77a5.49,5.49,0,0,1-.83,3.49,3,3,0,0,1-2.23,1,2.75,2.75,0,0,1-2.15-.79c-.62-.58-1.07-1.46-1.07-3.51v-2c0-2.23,0-2.62,0-3.08s.14-.75.52-.81a1.94,1.94,0,0,1,.36,0c.06,0,.11,0,.11-.09s-.07-.11-.22-.11c-.43,0-1.29,0-1.41,0s-1,0-1.64,0c-.16,0-.23,0-.23.11s.06.09.12.09a2.52,2.52,0,0,1,.48,0c.47.1.58.33.61.81s0,.85,0,3.08Zm-4.72-2.07c0-2.23,0-2.62,0-3.08s.14-.74.53-.81a1.85,1.85,0,0,1,.35,0c.06,0,.12,0,.12-.09s-.07-.11-.23-.11c-.43,0-1.32,0-1.39,0s-1,0-1.44,0c-.16,0-.23,0-.23.11a.1.1,0,0,0,.11.09,2,2,0,0,1,.45.05c.31.07.45.32.48.8s0,.85,0,3.08V164c0,1.37,0,2.49-.07,3.09-.06.41-.13.73-.42.78a1.93,1.93,0,0,1-.42.06c-.09,0-.12,0-.12.08s.07.12.23.12c.43,0,1.32,0,1.4,0s1,0,1.75,0c.15,0,.22,0,.22-.12s0-.08-.11-.08a5.86,5.86,0,0,1-.64-.06c-.43-.05-.51-.37-.56-.78-.07-.6-.07-1.72-.07-3.09Zm-7-3.95c0-.27-.07-.38-.17-.38s-.15.1-.21.23l-4.19,8.93-4.35-9c-.07-.16-.13-.21-.22-.21s-.14.1-.15.25l-1,9.28c0,.55-.1,1.1-.57,1.19a1.9,1.9,0,0,1-.42,0c-.07,0-.14,0-.14.07s.09.13.24.13c.38,0,1.06,0,1.19,0s.8,0,1.33,0c.17,0,.25,0,.25-.13s0-.07-.11-.07a3.12,3.12,0,0,1-.54-.07.45.45,0,0,1-.37-.44c0-.25,0-.5,0-.73l.57-6.6H93c.16.38,1.75,3.8,1.88,4s1.29,2.61,1.66,3.3c.27.52.34.66.44.66s.17-.13.47-.76l3.49-7.4h0l.69,7.39c0,.26,0,.5-.06.51s-.1,0-.1.1.07.12.4.15c.53,0,2.06,0,2.38,0,.17,0,.29,0,.29-.13s0-.07-.11-.07a3.25,3.25,0,0,1-.92-.12c-.62-.2-.72-1-.77-1.51ZM83,164c0,1.37,0,2.49-.07,3.09-.06.41-.13.73-.41.78a2.12,2.12,0,0,1-.43.06c-.09,0-.12,0-.12.08s.08.12.23.12.54,0,.83,0h.57l1.11,0c.55,0,1.34,0,2.4,0,.56,0,.67,0,.77-.37s.19-1.27.19-1.38,0-.21-.09-.21-.1,0-.13.21c-.1.58-.27.87-.64,1a4,4,0,0,1-1.36.16c-1.4,0-1.61-.18-1.65-1.17,0-.29,0-2,0-2.43v-1.25c0-.06,0-.1.09-.1.25,0,1.66,0,2,.07.55.06.68.3.74.5a1.35,1.35,0,0,1,.06.47c0,.07,0,.12.1.12s.1-.15.1-.27,0-.62,0-.91c.05-.47.12-.71.12-.79s0-.12-.07-.12-.12.07-.22.19-.33.17-.67.2-2.07,0-2.26,0-.08,0-.08-.15v-3.93c0-.1,0-.14.08-.14s1.71,0,2,0c.77.09.91.26,1,.49a1.56,1.56,0,0,1,.09.51c0,.12,0,.19.11.19s.09-.09.1-.16.06-.8.07-.94c0-.4.11-.57.11-.67s0-.13,0-.13-.13.06-.2.07a4.16,4.16,0,0,1-.61.08H83.6l-.59,0H82c-.16,0-.23,0-.23.11a.1.1,0,0,0,.11.09,2.56,2.56,0,0,1,.49,0c.47.1.58.33.61.81s0,.85,0,3.08Zm-10.07-5.92a.17.17,0,0,1,.11-.17,4.5,4.5,0,0,1,1-.09c1.52,0,2.46,1.07,2.46,2.85a2.59,2.59,0,0,1-.87,2.19,1.8,1.8,0,0,1-1.07.27A3.86,3.86,0,0,1,73,162.9a.18.18,0,0,1-.1-.17ZM71.79,164c0,1.37,0,2.49-.07,3.09-.06.41-.13.73-.41.78a2.12,2.12,0,0,1-.43.06c-.08,0-.11,0-.11.08s.07.12.22.12c.43,0,1.33,0,1.34,0s1,0,1.75,0c.16,0,.23,0,.23-.12s0-.08-.11-.08a5.86,5.86,0,0,1-.64-.06c-.43-.05-.52-.37-.56-.78-.07-.6-.07-1.72-.07-3.09v-.34c0-.07,0-.12.1-.12l1.75,0a.23.23,0,0,1,.19.09c.28.37,1,1.32,1.55,2.11a7.57,7.57,0,0,0,1.92,2.09,2.89,2.89,0,0,0,1.52.27h1c.26,0,.34,0,.34-.12s0-.08-.12-.08a3.66,3.66,0,0,1-.56,0,3,3,0,0,1-1.74-1c-.82-.88-1.79-2.15-3-3.64a4.42,4.42,0,0,0,1.73-3.29,2.5,2.5,0,0,0-1-1.94,4.36,4.36,0,0,0-2.6-.62c-.44,0-1.52,0-1.68,0s-1,0-1.61,0c-.16,0-.23,0-.23.11s.06.09.12.09a2.45,2.45,0,0,1,.48,0c.47.1.59.33.61.81s0,.85,0,3.08Zm-9.4,0c0,1.37,0,2.49-.07,3.09-.06.41-.13.73-.41.78a2.12,2.12,0,0,1-.43.06c-.08,0-.11,0-.11.08s.07.12.22.12c.43,0,1.33,0,1.37,0s1,0,1.75,0c.16,0,.23,0,.23-.12s0-.08-.11-.08a5.86,5.86,0,0,1-.64-.06c-.43-.05-.52-.37-.56-.78-.07-.6-.07-1.72-.07-3.09v-5.85c0-.14,0-.24.11-.27a1.67,1.67,0,0,1,.61-.09,2.5,2.5,0,0,1,2,.72A3,3,0,0,1,67,160.7,2.36,2.36,0,0,1,64.57,163c-.3,0-.38,0-.38.13s.08.1.15.1h.3a3.31,3.31,0,0,0,3.5-3.39,2.49,2.49,0,0,0-.71-1.69,3.46,3.46,0,0,0-2.65-.81c-.65,0-1.48,0-1.79,0-.11,0-1,0-1.61,0-.16,0-.23,0-.23.11s.06.09.12.09a2.45,2.45,0,0,1,.48,0c.47.1.59.33.61.81s0,.85,0,3.08Z"/></svg>