<svg id="Layer_1" data-name="Layer 1" xmlns="http://www.w3.org/2000/svg" viewBox="0 0 200 59"><defs><style>.cls-1{fill:#fff;fill-rule:evenodd;}</style></defs><title>1Artboard 1</title><path class="cls-1" d="M48.53,45.58a5.74,5.74,0,0,0-5.74,5.73v.56l-.55.08L24.68,54.5h-.19L6.93,52l-.55-.08v-.56A5.71,5.71,0,0,0,4.7,47.26,5.71,5.71,0,0,0,.64,45.58H0V12.63H.64A5.71,5.71,0,0,0,4.7,11a5.69,5.69,0,0,0,1.68-4V6.35l.55-.08C15,5.09,19.81,4.5,24.59,4.5s9.55.59,17.65,1.77l.55.08V6.9a5.74,5.74,0,0,0,5.74,5.73h.64V45.58Zm-5,.77a7,7,0,0,1,4.33-2V13.89a7,7,0,0,1-6.36-6.43C33.82,6.35,29.2,5.79,24.59,5.79s-9.23.56-16.95,1.67a7,7,0,0,1-2,4.4,7,7,0,0,1-4.32,2V44.32a7,7,0,0,1,4.32,2,7,7,0,0,1,2,4.4l17,2.46,16.94-2.46a7.06,7.06,0,0,1,2-4.4Zm0,0"/><path class="cls-1" d="M46.44,43.11v-28a8.47,8.47,0,0,1-6.18-6.37c-7.19-1-11.43-1.56-15.67-1.56S16.1,7.7,8.91,8.74A8.48,8.48,0,0,1,6.72,12.8a8.54,8.54,0,0,1-4,2.31v28a8.46,8.46,0,0,1,4,2.31,8.48,8.48,0,0,1,2.19,4.06l15.68,2.27,15.67-2.27a8.47,8.47,0,0,1,6.18-6.37ZM46.76,15V43.36l-.13,0a8.15,8.15,0,0,0-6.08,6.26l0,.11-.11,0L24.61,52.07h-.05L8.76,49.78l-.12,0,0-.11a8.19,8.19,0,0,0-2.13-4,8.11,8.11,0,0,0-3.95-2.25l-.13,0V14.86l.13,0a8.19,8.19,0,0,0,4-2.25,8.18,8.18,0,0,0,2.13-4l0-.11h.12C16,7.38,20.31,6.85,24.59,6.85s8.55.53,15.83,1.59h.11l0,.11a8.15,8.15,0,0,0,6.08,6.27l.13,0Zm0,0"/><path class="cls-1" d="M12.07,16.92h0l0,0-.44-.38c-.07-.07-.09-.11-.05-.18s0-.05.05-.06,0,0,0-.05,0,0-.06,0-.17.22-.21.27l-.27.29s0,.05,0,.06,0,0,0,0l.08-.07c.07-.06.12-.05.19,0l.44.37.37.31c.19.16.35.31.43.39s.09.11.06.16l-.05.08s0,0,0,.05,0,0,.06,0l.22-.26.28-.32s0-.05,0-.06,0,0-.05,0l-.1.1c-.06.05-.12,0-.18,0a3.94,3.94,0,0,1-.45-.37L12.18,17s0,0,0,0l.68-.79s0,0,0,0l.18.16a5,5,0,0,1,.43.39c0,.06.09.11.06.15a.9.9,0,0,1-.05.09s0,0,0,0,0,0,0,0l.22-.26.28-.32s0-.05,0-.06,0,0-.05,0a.94.94,0,0,1-.1.1c-.06,0-.11,0-.18,0a5.47,5.47,0,0,1-.45-.37l-.36-.31-.44-.38c-.07-.07-.09-.11-.05-.18s0-.05.05-.06,0,0,0-.06,0,0-.06,0l-.21.27-.27.29s0,0,0,.06,0,0,.05,0l.07-.08c.07,0,.12,0,.19,0l.45.37,0,0s0,0,0,0ZM14.65,15h0l.52.31s0,.05,0,.06,0,0,0,0,0,0,.07,0l.41-.31c.08-.06.1-.08.08-.1s0,0,0,0l-.09.06c-.06,0-.14,0-.38-.09-.39-.21-1.4-.8-1.55-.88s-.09,0-.11,0,0,0,0,.13L14.12,16c0,.14.06.24,0,.33l-.07.06s0,0,0,0,0,0,.06,0l.25-.21.23-.17s0,0,0-.05,0,0-.05,0l0,0c-.07.06-.11,0-.14,0a.42.42,0,0,1-.07-.15l-.11-.39a0,0,0,0,1,0,0Zm-.52.23s0,0,0,0l-.21-.68a0,0,0,0,1,0,0h0l.61.38a0,0,0,0,1,0,0Zm1.48-1c.14.23.26.41.31.51s.05.12,0,.16l-.08.06s0,0,0,0,0,0,.06,0l.28-.2.36-.22s0,0,0-.05h0a.29.29,0,0,1-.12.07c-.07,0-.12,0-.16-.05L15.9,14l-.26-.4a5.66,5.66,0,0,1-.31-.49c-.05-.08-.05-.13,0-.18a.34.34,0,0,1,.06-.06s0,0,0,0,0,0-.05,0l-.28.19-.3.18s0,0,0,.06h0l.08-.05c.06,0,.11,0,.16.08a4.13,4.13,0,0,1,.32.48Zm1.13-.7c.11.22.2.42.24.53s0,.14,0,.17l-.08,0s0,0,0,0h.06l.29-.15.37-.16s.05,0,0-.05,0,0,0,0l-.13.05c-.07,0-.11,0-.16-.09s-.15-.29-.26-.52v0s0,0,0,0l.21-.1a.06.06,0,0,1,.06,0l.4.22a1.16,1.16,0,0,0,.51.2.49.49,0,0,0,.28-.07l.24-.11s0,0,0,0h0l-.07,0a.52.52,0,0,1-.35,0,8.26,8.26,0,0,1-.84-.4.75.75,0,0,0,.06-.7A.5.5,0,0,0,17.2,12a.91.91,0,0,0-.51.11l-.34.17-.34.15s-.06,0-.05.05,0,0,.06,0l.1,0c.09,0,.12,0,.17.09l.25.53Zm-.17-1.13s0,0,0,0l.13-.07a.43.43,0,0,1,.59.27.47.47,0,0,1,0,.44.27.27,0,0,1-.16.12.8.8,0,0,1-.2.07s0,0,0,0Zm3.32.76a1.72,1.72,0,0,0,.45-.21s0,0,0-.1a2.21,2.21,0,0,0-.05-.36s0,0,0,0,0,0,0,.06a.36.36,0,0,1,0,.2c-.06.15-.2.22-.43.3a.91.91,0,0,1-1.11-.66.93.93,0,0,1,0-.75.74.74,0,0,1,.43-.32.88.88,0,0,1,.58,0,.4.4,0,0,1,.18.21s0,0,0,0,0,0,0-.07a2.55,2.55,0,0,0-.08-.28c0-.1,0-.13,0-.15s0,0-.05,0l-.27,0a2.49,2.49,0,0,0-.39.1,1.19,1.19,0,0,0-.73.54,1,1,0,0,0-.07.8,1,1,0,0,0,.57.66,1.33,1.33,0,0,0,1,0ZM20.75,12a.89.89,0,0,0,.38.66.86.86,0,0,0,.63.07.81.81,0,0,0,.52-.3,1,1,0,0,0,.09-.85l-.05-.29c-.08-.4-.09-.48-.1-.56s0-.15.07-.18l.07,0s.05,0,0,0,0,0-.06,0l-.3.07-.31.05s-.05,0-.05,0,0,0,.05,0h.1c.09,0,.12,0,.14.13s0,.16.12.57l.06.33a1,1,0,0,1,0,.69.54.54,0,0,1-.35.22.5.5,0,0,1-.35,0c-.15-.09-.26-.23-.34-.62L21,11.51c-.08-.4-.09-.48-.1-.56s0-.15.07-.17l.07,0s0,0,0,0,0,0-.06,0a2.09,2.09,0,0,0-.33.07l-.39.07s-.06,0-.06,0,0,0,0,0l.11,0a.14.14,0,0,1,.14.13c0,.09,0,.16.12.57Zm2.9-.3c0,.25,0,.46,0,.58s0,.14-.07.15l-.1,0s0,0,0,0,0,0,.06,0l.34,0,.42,0s0,0,0,0,0,0,0,0a.66.66,0,0,1-.14,0c-.08,0-.1-.06-.12-.14a5.79,5.79,0,0,1,0-.58l-.07-1.12h.34c.24,0,.32.06.33.13v0s0,.06,0,.06,0,0,0-.05,0-.26,0-.32,0,0,0,0l-.07,0-.19,0-1.07.07H23a.9.9,0,0,1-.13,0s0,0,0,.05a1.47,1.47,0,0,0,0,.32s0,0,0,0,0,0,0,0l0-.09c0-.07.11-.08.26-.1l.41,0Zm2.23.19c0,.24.08.63.66.71a.89.89,0,0,0,.67-.14.85.85,0,0,0,.6.3l.21,0c.06,0,.08,0,.09,0s0,0,0,0a.78.78,0,0,1-.27-.14,2.07,2.07,0,0,1-.34-.32,1,1,0,0,0,.36-.6s0-.05-.08-.07l-.32-.06a0,0,0,0,0-.05,0l0,0a.31.31,0,0,1,.13.06.18.18,0,0,1,0,.14.84.84,0,0,1-.19.39c-.05-.05-.33-.4-.41-.52a1.31,1.31,0,0,1-.34-.78A.29.29,0,0,1,27,10.6a.34.34,0,0,1,.28.17.33.33,0,0,1,0,.23c0,.05,0,.06,0,.06s0,0,0,0a3.19,3.19,0,0,0,.09-.34s0-.06,0-.08a.91.91,0,0,0-.32-.11c-.47-.07-.7.19-.73.4a.62.62,0,0,0,.08.4.82.82,0,0,0-.53.57Zm.77.56a.53.53,0,0,1-.43-.63.45.45,0,0,1,.25-.38,4.29,4.29,0,0,0,.23.38c.06.08.28.38.42.53a.71.71,0,0,1-.47.1Zm2.68.74a.76.76,0,0,0,.45,0,.54.54,0,0,0,.39-.37c.08-.25,0-.46-.21-.8l-.06-.08c-.16-.23-.19-.34-.15-.46a.28.28,0,0,1,.39-.17.35.35,0,0,1,.24.22.25.25,0,0,1,0,.19,0,0,0,0,0,0,.06s0,0,.05-.07.1-.27.11-.31,0,0,0,0a1.43,1.43,0,0,0-.33-.16.55.55,0,0,0-.75.3.81.81,0,0,0,.18.74l.09.13a.53.53,0,0,1,.12.5.32.32,0,0,1-.44.18.38.38,0,0,1-.29-.38.52.52,0,0,1,0-.14s0,0,0,0,0,0-.05.06a2.55,2.55,0,0,0-.12.33c0,.06,0,.07,0,.11a.83.83,0,0,0,.35.18Zm2.12-.54a0,0,0,0,1,0,0l0-.05c.17-.37.21-.44.25-.52s.08-.12.16-.1L32,12S32,12,32,12s0,0,0,0l-.31-.14-.35-.17s-.05,0-.06,0,0,0,0,0l.09,0a.13.13,0,0,1,0,.19c0,.08-.06.15-.24.52l-.2.44a5.64,5.64,0,0,1-.27.52c0,.06-.08.11-.13.1l-.09,0s0,0,0,0,0,0,0,.05l.31.14.38.18s.05,0,.06,0,0,0,0,0l-.12-.06c-.07,0-.06-.11,0-.18a5.25,5.25,0,0,1,.23-.54l.11-.21s0,0,0,0l.94.44a0,0,0,0,1,0,0l-.11.21A4.89,4.89,0,0,1,32,14c0,.07-.08.12-.13.1l-.1,0h0s0,0,0,.05l.32.14.38.19h.06s0,0,0,0l-.12-.07c-.07,0-.06-.11,0-.18s.13-.31.24-.53l.21-.44a5.29,5.29,0,0,1,.25-.52c0-.08.08-.11.15-.09l.08,0s.05,0,.05,0,0,0,0,0l-.31-.14-.35-.18s-.06,0-.06,0,0,0,0,0l.09,0a.14.14,0,0,1,0,.19c0,.09-.07.15-.24.53l0,.05h0Zm2.49,2a0,0,0,0,1,0,0l-.15.59a0,0,0,0,1-.06,0h0s0,0,0,.07l.42.3c.08.06.11.07.12.05s0,0,0,0l-.09-.07c0-.05-.08-.12,0-.39.1-.43.38-1.57.41-1.73s0-.1,0-.11-.05,0-.12,0l-1.54,1c-.12.08-.22.13-.33.07l-.07-.05h0s0,0,0,.05l.26.18.23.18s.05,0,.06,0,0,0,0,0l0,0a.1.1,0,0,1,0-.14.88.88,0,0,1,.13-.11l.34-.22h0Zm-.37-.43s0,0,0,0l.59-.4h0a0,0,0,0,1,0,0l-.19.69h0Zm1.16,1.92c0,.13-.06.17,0,.2s.07,0,.23-.06l.84-.36.74-.31c.17-.07.24-.08.28-.07a.33.33,0,0,1,.12.06s0,0,0,0,0,0,0-.06l-.19-.17s-.1-.11-.2-.2-.06-.05-.08,0,0,0,0,.05a.31.31,0,0,1,.07.09,0,0,0,0,1,0,.06.19.19,0,0,1-.09,0c-.17.09-1,.48-1.32.62h0l.5-1.22a1,1,0,0,1,.1-.19s0,0,.06,0a.14.14,0,0,1,.09.05s0,0,.05,0,0,0,0-.06l-.25-.22L35.36,14s0,0-.07,0,0,0,0,0l.07.08c.05.09.06.14,0,.3Zm1.6.72a5.41,5.41,0,0,1-.47.35c-.07,0-.12.06-.17,0l-.07-.07s0,0,0,0,0,0,0,0l.12.15.1.12.17.23c.07.09.15.22.28.38s.08.1.14.07a1.4,1.4,0,0,0,.26-.16s0,0,0-.05,0,0,0,0a.24.24,0,0,1-.24,0,.77.77,0,0,1-.18-.18c-.17-.22-.16-.28,0-.4l.34-.26.17-.13h0l.23.31a.17.17,0,0,1,0,.19l-.07.06s0,0,0,0,0,0,.06,0a.73.73,0,0,1,.15-.11l.17-.1a0,0,0,0,0,0,0h-.06a.19.19,0,0,1-.11-.08l-.27-.34s0,0,0,0l.54-.42s0,0,0,0l.23.31c.07.12.06.16,0,.21l-.07.07s0,0,0,0,0,0,0,0l.15-.1c.1-.07.14-.08.15-.1s0,0,0,0l0,0-.08-.08-.42-.54-.1-.14-.13-.17s0,0-.06,0,0,0,0,.05l.06.09c0,.09,0,.13-.05.19l-.45.36Zm0,0"/><path class="cls-1" d="M7.53,27.24c0,.19,0,.35,0,.44s0,.11-.06.11H7.38s0,0,0,0l0,0h.84c.08,0,.09,0,.11-.06a1.64,1.64,0,0,0,0-.23s0,0,0,0,0,0,0,0a.16.16,0,0,1-.09.15.62.62,0,0,1-.19,0c-.21,0-.25,0-.25-.17v-.48s0,0,0,0h.3c.07,0,.1,0,.11.08a.25.25,0,0,1,0,.08s0,0,0,0,0,0,0,0a.76.76,0,0,1,0-.14.85.85,0,0,1,0-.15s0,0,0,0l0,0s0,0-.1,0H7.8s0,0,0,0v-.52s0,0,0,0h.3c.1,0,.12,0,.14.08a.2.2,0,0,1,0,.07s0,0,0,0l0,0s0-.12,0-.14a1.16,1.16,0,0,0,0-.13s0,0,0,0H7.37s0,0,0,0h.12c.06,0,.08.05.09.12v.8Zm1.6.63a.59.59,0,0,0,.33-.09.4.4,0,0,0,.19-.36c0-.19-.09-.34-.34-.52l-.06,0c-.17-.13-.22-.2-.22-.29a.22.22,0,0,1,.25-.22.33.33,0,0,1,.23.1.29.29,0,0,1,.05.14s0,0,0,0,0,0,0-.06,0-.23,0-.25,0,0,0,0a1.25,1.25,0,0,0-.27,0c-.29,0-.48.16-.48.39s.08.31.3.49l.1.07c.17.14.2.23.2.33a.25.25,0,0,1-.27.24.29.29,0,0,1-.3-.21.43.43,0,0,1,0-.11s0,0,0,0,0,0,0,0a1.6,1.6,0,0,0,0,.28.07.07,0,0,0,0,.07.75.75,0,0,0,.31.05Zm1.39-.63c0,.19,0,.35,0,.44s0,.11-.06.11h-.07s0,0,0,0,0,0,0,0H11s0,0,0,0,0,0,0,0h-.1c-.06,0-.07-.05-.08-.11s0-.25,0-.44v-.85H11c.18,0,.24.06.24.11v0s0,0,0,0,0,0,0,0V26.3s0,0,0,0H10.09c-.05,0-.07,0-.09,0s0,0,0,0a1.32,1.32,0,0,0-.05.23s0,0,0,0,0,0,0,0l0-.07c0-.05.08-.05.2-.06h.31Zm1.29,0c0,.19,0,.35,0,.44s0,.11-.05.11h-.08s0,0,0,0,0,0,0,0h.26l.2,0h.24a.92.92,0,0,0,.69-.25A.77.77,0,0,0,13.3,27a.76.76,0,0,0-.2-.53,1.12,1.12,0,0,0-.83-.23h-.62s0,0,0,0h.11c.07,0,.09.05.09.12v.8Zm.26-.4c0-.16,0-.34,0-.41s0,0,0,0l.13,0a.83.83,0,0,1,.59.21.7.7,0,0,1,.2.52.65.65,0,0,1-.17.51.68.68,0,0,1-.48.15c-.16,0-.24,0-.27-.08a.39.39,0,0,1,0-.16s0-.2,0-.42Zm24.52.27c0,.23,0,.43,0,.54s0,.11-.1.13h-.19s0,0,0,0,0,0,0,0h.82s0,0,0,0,0,0,0,0H37c-.08,0-.09-.05-.1-.13s0-.31,0-.54v-.45c0-.37,0-.61,0-.63s0-.05,0-.05l-.07,0c-.08.07-.55.37-.55.38a0,0,0,0,0,0,0s0,0,0,0h0a1.57,1.57,0,0,1,.28-.12s0,0,0,.09v.7ZM38.26,26a.57.57,0,0,0-.62.56.46.46,0,0,0,.49.47.43.43,0,0,0,.32-.11s0,0,0,0a0,0,0,0,0,0,0l0,0a.45.45,0,0,1-.16,0c-.08,0-.32-.09-.32-.46,0-.21.12-.36.29-.36s.37.19.37.62a1.34,1.34,0,0,1-.63,1.11.09.09,0,0,0,0,.05l0,0h0a1.49,1.49,0,0,0,.89-1.24.59.59,0,0,0-.6-.66Zm1.56,0a.56.56,0,0,0-.61.56.46.46,0,0,0,.49.47A.43.43,0,0,0,40,26.9v0a0,0,0,0,0,0,0l0,0a.45.45,0,0,1-.16,0c-.08,0-.32-.09-.32-.46,0-.21.11-.36.29-.36s.36.19.36.62a1.31,1.31,0,0,1-.63,1.11.08.08,0,0,0,0,.05l0,0h0a1.49,1.49,0,0,0,.89-1.24.6.6,0,0,0-.61-.66Zm1.32,1.89a.7.7,0,0,0,.79-.67c0-.42-.44-.62-.8-.68l0-.29h.44c.2,0,.21.06.21.13s0,0,0,0a0,0,0,0,0,0,0,3,3,0,0,0,0-.31s0,0,0,0h-.78a0,0,0,0,0,0,0l-.06.63s0,0,0,0c.19,0,.61.19.61.57a.4.4,0,0,1-.4.44c-.17,0-.33-.06-.33-.32,0,0,0,0,0,0s0,0,0,0,0,.23,0,.31,0,.07,0,.09a.56.56,0,0,0,.23,0Zm0,0"/><path class="cls-1" d="M5.63,33.71H43.55v.2H5.63Zm0,7.83H43.55v.2H5.63Zm0,0"/><path class="cls-1" d="M25.45,28.44a1,1,0,0,0,.29-.73V26.16a.94.94,0,0,0-.3-.72,1.27,1.27,0,0,0-1.64,0,1,1,0,0,0-.29.73v1.55a1,1,0,0,0,.29.73,1.31,1.31,0,0,0,1.65,0Zm7.29-1.5c0,1,.81,3.69-.24,3.69-2.57,0-6-1.81-6.61-2.16a1.08,1.08,0,0,0,.3-.76V26.16a1.12,1.12,0,0,0-.2-.63c.78-.51,3.67-2.29,6.51-2.29,1,0,.24,2.65.24,3.7Zm-9.38,1.53c-.65.35-4.05,2.16-6.61,2.16-1.05,0-.24-2.65-.24-3.69s-.81-3.7.24-3.7a13.25,13.25,0,0,1,6.5,2.29,1.12,1.12,0,0,0-.19.63v1.55a1.08,1.08,0,0,0,.3.76Zm0,0"/><path class="cls-1" d="M22.54,20.53a.65.65,0,0,0,.26-.34.41.41,0,0,0,0-.36h0a.54.54,0,0,0-.72-.07.71.71,0,0,0-.26.34.45.45,0,0,0,.05.36h0a.51.51,0,0,0,.71.07Zm2.84-3.17-.6.55c1-.84,3-2.5,3.36-2.7l0,0s0,0,0,0C28,15.5,26.85,16.89,26,18c0,0,0,0,0,.06l-.14.13-.38.47.58-.53s.06,0,.07,0a0,0,0,0,1,0,.07l-.8.73.06.07.8-.73a.06.06,0,0,1,.08,0,.05.05,0,0,1,0,.07l-.8.72.06.07.8-.73a.06.06,0,0,1,.08,0,.05.05,0,0,1,0,.07l-.79.73.05.06.81-.72a0,0,0,0,1,.07,0,.08.08,0,0,1,0,.08l-.8.72.05.07.81-.73a0,0,0,0,1,.07,0,.06.06,0,0,1,0,.07l-.8.72,0,.07.81-.73a0,0,0,0,1,.07,0,0,0,0,0,1,0,.07l-.8.73.06.06.8-.72a0,0,0,1,1,.06.06l-.8.73.06.07.8-.73A0,0,0,0,1,27,19s0,0,0,.07l-.8.72.06.07.8-.73a0,0,0,0,1,.07,0,0,0,0,0,1,0,.07l-.8.73.06.06.8-.72a0,0,0,1,1,.06.06l-.8.73.06.07.8-.73a0,0,0,0,1,.07,0s0,.05,0,.07l-.8.72.06.07.8-.73s.06,0,.07,0a0,0,0,0,1,0,.07l-.8.73.06.06.8-.73s.06,0,.07,0a0,0,0,0,1,0,.07l-.8.73.06.06.8-.72s.06,0,.07,0,0,.05,0,.07l-.8.72.06.07.8-.73s.06,0,.07,0a0,0,0,0,1,0,.07l-.8.73.06.06.8-.72s.06,0,.08,0a.05.05,0,0,1,0,.07l-.8.73.06.06.8-.72a.05.05,0,1,1,.07.07l-.81.72.06.07.8-.73a.06.06,0,0,1,.08,0,.06.06,0,0,1,0,.07l-.8.72,0,0h0l0,0,.81-.73a0,0,0,0,1,.07,0,.06.06,0,0,1,0,.07l-.8.73.06.06.8-.72a0,0,0,1,1,.06.06l-.77.7a.12.12,0,0,0,.13,0l.7-.63s.1,0,.15.05.06.12,0,.15l-1,.89h0c-.11.09-.34,0-.53-.2l-2.22-2.46h-.3l-.62,1h0a.72.72,0,0,0-.1.56.78.78,0,0,1-.11.65.83.83,0,0,1-.43.34.66.66,0,0,1-.37,0l0,0a.8.8,0,0,0-.15.17l-.06.09a.18.18,0,0,0,0,.11.12.12,0,0,1-.06.12.13.13,0,0,1-.16-.06.12.12,0,0,1,.05-.15.24.24,0,0,0,.09-.08.69.69,0,0,0,0-.1.79.79,0,0,0,.06-.22s0,0,0,0a.73.73,0,0,1,0-.9.84.84,0,0,1,.44-.33l.14,0a.73.73,0,0,0,.49-.29,2.4,2.4,0,0,0,.51-1h0a2.46,2.46,0,0,0-1,.51.77.77,0,0,0-.29.49l0,.14a.78.78,0,0,1-.33.43.7.7,0,0,1-.93-.07h0l-.29.08a1,1,0,0,1-.29,0H21l-.14-.07a.29.29,0,0,1-.12-.1l-.05-.07a.43.43,0,0,1,0-.07v0a.11.11,0,0,1,0-.05.1.1,0,0,1,.11-.08.09.09,0,0,1,.08.11.11.11,0,0,0,0,.05s0,0,0,.05l.07.09a.25.25,0,0,0,.11,0h.12a1.17,1.17,0,0,0,.25-.07,1.53,1.53,0,0,0,.21-.14h0a.53.53,0,0,1,0-.33.76.76,0,0,1,.33-.44.78.78,0,0,1,.65-.11.71.71,0,0,0,.56-.1h0l1.05-.62a2.39,2.39,0,0,1,0-.36l-2-2.22h0v0H22v0h0v-.06a.15.15,0,0,1,0-.07h0l0,0h0l1-.89s.1,0,.15,0,.06.12,0,.15l-.7.64a.19.19,0,0,0,0,.13l.77-.7s.06,0,.07,0a0,0,0,0,1,0,.07l-.79.72.05.07h0l.8-.73s.06,0,.07,0a0,0,0,0,1,0,.07l-.8.73.06.06.8-.72s.06,0,.08,0a.07.07,0,0,1,0,.08l-.8.72.06.07.8-.73a.06.06,0,0,1,.08,0,.05.05,0,0,1,0,.07l-.8.72.06.07.8-.73a.06.06,0,0,1,.08,0,.06.06,0,0,1,0,.07l-.81.73.06.06.8-.72a.08.08,0,0,1,.08,0,.06.06,0,0,1,0,.07l-.8.73.06.07.8-.73a0,0,0,0,1,.07,0,.06.06,0,0,1,0,.07l-.8.72.06.07.8-.73a0,0,0,0,1,.07,0,0,0,0,0,1,0,.07l-.8.73.06.06.8-.73s.05,0,.07,0a0,0,0,0,1,0,.07l-.8.73.06.07.8-.73a0,0,0,0,1,.07,0,0,0,0,0,1,0,.07l-.8.72.06.07.8-.73a0,0,0,0,1,.07,0,0,0,0,0,1,0,.07l-.8.73.06.06.8-.72a0,0,0,1,1,.06.06l-.8.73.06.06.8-.72a.06.06,0,0,1,.07,0,0,0,0,0,1,0,.07l-.8.73.06.07.8-.73s.06,0,.07,0a0,0,0,0,1,0,.07l-.8.73.06.06.8-.73s.06,0,.07,0A0,0,0,0,1,25,17l-.8.73.06.06.8-.72s.06,0,.07,0,0,.05,0,.08l-.8.72.06.07.8-.73s.06,0,.07,0a0,0,0,0,1,0,.07l-.81.72.06.07.8-.73s.06,0,.07,0a0,0,0,0,1,0,.07Zm-2.54,3.47a.53.53,0,0,0,.07.72h0a.45.45,0,0,0,.36.05.65.65,0,0,0,.34-.26.54.54,0,0,0-.07-.72h0a.44.44,0,0,0-.36,0,.65.65,0,0,0-.34.26Zm1.56-2.1a.16.16,0,0,0,0,.24.18.18,0,0,0,.24,0,.16.16,0,0,0,0-.24.18.18,0,0,0-.24,0Zm0,0"/><path class="cls-1" d="M6.34,38.06a9.81,9.81,0,0,1,0,1.06c0,.15,0,.26-.14.28l-.18,0c-.06,0-.08,0-.08,0s0,0,.1,0h.63l.37,0h.35c.92,0,1.34-.55,1.34-1.09a1.2,1.2,0,0,0-.91-1.07,1.11,1.11,0,0,0,.51-.88c0-.26-.16-.75-1.07-.75l-.61,0-.68,0c-.07,0-.11,0-.11.05s0,0,.09,0l.2,0c.16,0,.2.11.21.28s0,.3,0,1.06Zm.6-2C6.94,36,7,36,7,36h.17c.43,0,.62.44.62.77a.65.65,0,0,1-.2.53.5.5,0,0,1-.36.09H7s0,0,0-.06Zm1.14,2.63a.58.58,0,0,1-.6.64,1,1,0,0,1-.37-.06c-.16-.07-.17-.15-.17-.48V37.57a0,0,0,0,1,0,0h.21a.78.78,0,0,1,.42.12,1.2,1.2,0,0,1,.48,1Zm3.28-.43s0,0,.05,0l.4,1a.07.07,0,0,1,0,.11s-.08,0-.08.05.07,0,.15,0h.95c.18,0,.23,0,.23,0s0,0-.07,0l-.21,0c-.1,0-.25-.1-.44-.55-.31-.76-1.11-2.75-1.23-3-.05-.11-.08-.16-.13-.16s-.08.06-.14.2L9.55,39c-.1.25-.2.42-.43.45H9s-.06,0-.06,0,0,0,.09,0l.59,0,.53,0c.06,0,.09,0,.09,0s0,0-.08,0h-.07c-.16,0-.2-.07-.2-.16a.88.88,0,0,1,.07-.3l.27-.69s0,0,.05,0Zm-1-.25s0,0,0,0l.46-1.22s0,0,0,0,0,0,0,0L11.29,38s0,0,0,0Zm3.35.08a9.81,9.81,0,0,1,0,1.06c0,.15,0,.26-.14.28l-.18,0c-.06,0-.08,0-.08,0s0,0,.1,0l.61,0,.73,0c.07,0,.1,0,.1,0s0,0-.06,0l-.24,0c-.15,0-.18-.13-.2-.28s0-.6,0-1.07V38s0,0,0,0h.43a.12.12,0,0,1,.09,0c.06.07.29.41.49.69a2.32,2.32,0,0,0,.69.73,1,1,0,0,0,.53.1H17c.06,0,.09,0,.09,0s0,0-.06,0l-.14,0a1,1,0,0,1-.56-.34c-.29-.31-.64-.75-1.08-1.31A1.42,1.42,0,0,0,16,36.63a.86.86,0,0,0-.34-.68,1.56,1.56,0,0,0-.92-.22l-.7,0-.69,0c-.07,0-.11,0-.11.05s0,0,.09,0l.19,0c.17,0,.21.11.22.28s0,.3,0,1.06Zm.59-2s0-.06,0-.07a.91.91,0,0,1,.27,0,.79.79,0,0,1,.76.91.88.88,0,0,1-.3.75.51.51,0,0,1-.35.08,1.2,1.2,0,0,1-.38-.05s0,0,0-.09Zm3.33,2a9.81,9.81,0,0,1,0,1.06c0,.15,0,.26-.14.28l-.18,0c-.06,0-.08,0-.08,0s0,0,.1,0h.63l.37,0h.35c.92,0,1.34-.55,1.34-1.09a1.2,1.2,0,0,0-.91-1.07,1.11,1.11,0,0,0,.51-.88c0-.26-.16-.75-1.07-.75l-.61,0-.67,0c-.08,0-.11,0-.11.05s0,0,.08,0l.2,0c.16,0,.2.11.21.28s0,.3,0,1.06Zm.6-2c0-.05,0-.07,0-.08h.17c.43,0,.62.44.62.77a.65.65,0,0,1-.2.53.5.5,0,0,1-.36.09h-.23s0,0,0-.06Zm1.14,2.63a.58.58,0,0,1-.6.64,1,1,0,0,1-.37-.06c-.16-.07-.17-.15-.17-.48V37.57a0,0,0,0,1,0,0h.21a.78.78,0,0,1,.42.12,1.2,1.2,0,0,1,.48,1Zm1.84-.6c0,.46,0,.85,0,1.06s-.05.26-.15.28l-.18,0c-.06,0-.08,0-.08,0s0,0,.1,0h.63l.52,0h.87c.19,0,.23,0,.27-.13a4.87,4.87,0,0,0,.06-.55c0-.05,0-.09,0-.09s0,0-.05.07c0,.21-.1.31-.23.37a1.27,1.27,0,0,1-.47.06c-.51,0-.59-.07-.6-.42V37.66s0,0,0,0l.71,0c.19,0,.26.09.28.19a.62.62,0,0,1,0,.18s0,0,.05,0,0-.06,0-.1,0-.23,0-.33c0-.26,0-.33,0-.37s0,0,0,0,0,0-.08.07-.12.06-.24.08h-.8s0,0,0,0V36.05s0,0,0,0l.71,0c.25,0,.3.09.33.18a.42.42,0,0,1,0,.18s0,.07,0,.07,0,0,.05-.06,0-.28,0-.33c0-.23,0-.29,0-.32s0-.05,0-.05l-.08,0-.21,0h-2c-.08,0-.11,0-.11.05s0,0,.09,0l.19,0c.16,0,.2.11.21.28s0,.3,0,1.06Zm3.31,0c0,.46,0,.85,0,1.06s0,.26-.15.28l-.18,0c-.06,0-.08,0-.08,0s0,0,.1,0l.61,0,.74,0c.06,0,.1,0,.1,0s0,0-.06,0l-.25,0c-.15,0-.18-.13-.19-.28a9.92,9.92,0,0,1,0-1.07V38a0,0,0,0,1,0,0h.44a.12.12,0,0,1,.09,0c.06.07.29.41.49.69a2.32,2.32,0,0,0,.69.73,1,1,0,0,0,.53.1h.47c.06,0,.1,0,.1,0s0,0-.06,0l-.14,0a1,1,0,0,1-.56-.34c-.3-.31-.64-.75-1.09-1.31a1.4,1.4,0,0,0,.67-1.12.88.88,0,0,0-.34-.68,1.57,1.57,0,0,0-.92-.22l-.71,0-.68,0c-.08,0-.11,0-.11.05s0,0,.08,0l.2,0c.16,0,.2.11.21.28s0,.3,0,1.06Zm.59-2s0-.06,0-.07a.87.87,0,0,1,.26,0,.8.8,0,0,1,.77.91.88.88,0,0,1-.3.75.51.51,0,0,1-.35.08,1.13,1.13,0,0,1-.38-.05s0,0,0-.09Zm3.72,3.52a1.45,1.45,0,0,0,.79-.21,1,1,0,0,0,.47-.87c0-.47-.21-.82-.82-1.27l-.14-.11c-.41-.31-.53-.48-.53-.71a.53.53,0,0,1,.6-.52.63.63,0,0,1,.54.25.64.64,0,0,1,.13.33c0,.06,0,.09.05.09s.05,0,.05-.15c0-.39,0-.54,0-.6s0-.05-.07-.06a2.13,2.13,0,0,0-.66-.09c-.69,0-1.15.4-1.15,1s.19.75.74,1.18l.23.18c.41.32.48.55.48.8a.6.6,0,0,1-.66.57.7.7,0,0,1-.72-.51,1.29,1.29,0,0,1,0-.25s0-.09-.05-.09-.06.06-.06.13,0,.38,0,.66c0,.11,0,.13.1.17a1.8,1.8,0,0,0,.73.13Zm3.25-2.26a0,0,0,0,1,0,0v-.11a9.82,9.82,0,0,1,0-1.06c0-.17,0-.26.18-.28l.14,0c.06,0,.1,0,.1,0s0-.05-.11-.05l-.63,0-.72,0c-.07,0-.1,0-.1.05s0,0,.08,0l.2,0c.16,0,.2.11.21.28s0,.3,0,1.06v.88c0,.46,0,.85,0,1.06s0,.26-.15.28l-.18,0c-.06,0-.08,0-.08,0s0,0,.1,0l.63,0,.78,0c.06,0,.1,0,.1,0s0,0-.08,0l-.26,0c-.15,0-.17-.13-.19-.27a10.12,10.12,0,0,1,0-1.07v-.44s0,0,0,0H34a0,0,0,0,1,0,0v.44c0,.46,0,.85,0,1.06s-.05.26-.15.28l-.18,0c-.06,0-.08,0-.08,0s0,0,.11,0l.62,0,.78,0c.06,0,.1,0,.1,0s0,0-.08,0l-.25,0c-.15,0-.18-.13-.2-.27s0-.61,0-1.07v-.88c0-.76,0-.9,0-1.06s.05-.26.18-.28l.15,0c.05,0,.09,0,.09,0s0-.05-.11-.05l-.63,0-.72,0c-.07,0-.1,0-.1.05s0,0,.08,0l.2,0c.16,0,.2.11.21.28s0,.3,0,1.06v.11a0,0,0,0,1,0,0Zm5.78,2.26a2,2,0,0,0,2.06-2,1.81,1.81,0,0,0-2-1.87,2,2,0,1,0,0,3.92Zm.2-.25c-.95,0-1.53-.83-1.53-1.87,0-1.24.66-1.56,1.23-1.56.82,0,1.46.7,1.46,1.81,0,1.45-.8,1.62-1.16,1.62Zm3.06-1.27c0,.46,0,.85,0,1.06s-.05.26-.15.28l-.18,0c-.06,0-.08,0-.08,0s0,0,.1,0l.63,0,.77,0c.06,0,.1,0,.1,0s0,0-.08,0l-.26,0c-.15,0-.18-.13-.19-.27a10.12,10.12,0,0,1,0-1.07v-2a.1.1,0,0,1,0-.09.59.59,0,0,1,.2,0,.77.77,0,0,1,.5.19,1,1,0,0,1,.29.75.78.78,0,0,1-.67.82c-.1,0-.14,0-.14.06s0,0,.06,0h.11a1.18,1.18,0,0,0,1.23-1.21.86.86,0,0,0-.25-.59,1.2,1.2,0,0,0-.93-.29l-.72,0-.72,0c-.08,0-.11,0-.11.05s0,0,.08,0l.19,0c.17,0,.21.11.22.28s0,.3,0,1.06Zm0,0"/><path class="cls-1" d="M11.61,46l.62-.62.62.62-.62.62Zm24.57,0,.62-.62.62.62-.62.62Zm0,0"/><path class="cls-1" d="M15.12,46.34c0,.34,0,.63,0,.79s0,.18-.1.19l-.11,0s0,0,0,0,0,0,.06,0h.79s.06,0,.06,0,0,0,0,0l-.16,0c-.11,0-.13-.09-.14-.19s0-.45,0-.79v-1.5a.08.08,0,0,1,0-.07l.15,0a.65.65,0,0,1,.5.18.78.78,0,0,1,.2.56.6.6,0,0,1-.63.6c-.07,0-.09,0-.09,0s0,0,0,0h.07a.85.85,0,0,0,.9-.87.64.64,0,0,0-.19-.43.87.87,0,0,0-.67-.21l-.46,0-.41,0s-.06,0-.06,0a0,0,0,0,0,0,0H15c.12,0,.14.08.15.2s0,.22,0,.79Zm2.4,0c0,.34,0,.63,0,.79s0,.18-.11.19l-.11,0s0,0,0,0,0,0,0,0h.79s.06,0,.06,0,0,0,0,0l-.16,0c-.11,0-.13-.09-.14-.19s0-.45,0-.79v-.09s0,0,0,0h.45a.06.06,0,0,1,0,0l.39.54a2,2,0,0,0,.49.53.77.77,0,0,0,.39.07h.26q.09,0,.09,0l0,0h-.14a.84.84,0,0,1-.44-.26c-.21-.23-.46-.55-.76-.93A1.11,1.11,0,0,0,19,45.3a.66.66,0,0,0-.25-.5,1.16,1.16,0,0,0-.66-.16l-.43,0-.41,0s-.06,0-.06,0,0,0,0,0l.12,0c.12,0,.15.08.16.2s0,.22,0,.79Zm.29-1.52s0,0,0,0l.24,0c.39,0,.63.27.63.73a.7.7,0,0,1-.22.56.55.55,0,0,1-.27.06,1.14,1.14,0,0,1-.39,0,.08.08,0,0,1,0-.05Zm2.57,1.52c0,.34,0,.63,0,.79s0,.18-.11.19l-.11,0s0,0,0,0,0,0,.05,0h1.26c.14,0,.17,0,.19-.09a3.37,3.37,0,0,0,.05-.36s0-.05,0-.05,0,0,0,.05-.07.23-.16.27a1,1,0,0,1-.35,0c-.35,0-.41,0-.42-.3V46a0,0,0,0,1,0,0l.52,0a.19.19,0,0,1,.19.13.49.49,0,0,1,0,.12s0,0,0,0,0,0,0-.07,0-.16,0-.23a1.9,1.9,0,0,0,0-.21s0,0,0,0,0,0-.06,0-.08.05-.17.05H20.7s0,0,0,0v-1s0,0,0,0h.5c.2,0,.23.06.26.12a.34.34,0,0,1,0,.13s0,.05,0,.05,0,0,0,0a2.12,2.12,0,0,0,0-.24c0-.1,0-.15,0-.17s0,0,0,0h-.05l-.16,0H20.12s-.06,0-.06,0,0,0,0,0l.12,0c.12,0,.15.08.16.2s0,.22,0,.79Zm4.79-1.65c0-.07,0-.1,0-.1s0,0-.06.06L24,46.93l-1.12-2.28s0-.06-.05-.06,0,0,0,.07L22.54,47c0,.14,0,.28-.15.3h-.11l0,0s0,0,.06,0H23c.05,0,.07,0,.07,0l0,0-.14,0a.12.12,0,0,1-.09-.11V47l.15-1.68h0l.48,1,.42.85c.07.13.09.16.12.16s0,0,.12-.19L25,45.3h0l.17,1.89a.23.23,0,0,1,0,.13s0,0,0,0,0,0,.1,0h.61s.07,0,.07,0l0,0a.88.88,0,0,1-.24,0c-.16-.05-.18-.25-.2-.39Zm1.78,1c0-.57,0-.67,0-.79s0-.19.13-.2l.09,0s0,0,0,0,0,0-.05,0l-.36,0-.37,0s-.06,0-.06,0,0,0,0,0l.12,0c.08,0,.11.08.12.2s0,.22,0,.79v.64c0,.34,0,.63,0,.79s0,.18-.11.19l-.11,0s0,0,0,0,0,0,.05,0h.81s.05,0,.05,0,0,0,0,0l-.16,0c-.11,0-.13-.09-.14-.19s0-.45,0-.79Zm1.2.53a1.18,1.18,0,0,0,.32,1,1.14,1.14,0,0,0,.75.26,1.1,1.1,0,0,0,.75-.27,1.41,1.41,0,0,0,.33-1.08V45.7c0-.57,0-.67,0-.79s0-.18.13-.2l.09,0s0,0,0,0,0,0-.06,0l-.3,0-.39,0s0,0,0,0,0,0,0,0l.12,0c.12,0,.15.08.15.2s0,.22,0,.79v.45a1.39,1.39,0,0,1-.21.89.75.75,0,0,1-.57.26.7.7,0,0,1-.55-.2,1.13,1.13,0,0,1-.27-.89V45.7c0-.57,0-.67,0-.79s0-.19.13-.2l.09,0s0,0,0,0,0,0-.06,0l-.36,0-.41,0s-.06,0-.06,0,0,0,0,0l.12,0c.12,0,.15.08.16.2v1.32Zm5.75-1.54c0-.07,0-.1,0-.1s0,0-.06.06l-1.06,2.28-1.12-2.28s0-.06-.05-.06,0,0,0,.07L31.27,47c0,.14,0,.28-.15.3H31l0,0s0,0,.06,0h.64c.05,0,.07,0,.07,0l0,0-.14,0a.12.12,0,0,1-.09-.11V47l.15-1.68h0l.48,1,.42.85c.07.13.09.16.12.16s0,0,.12-.19l.89-1.89h0l.17,1.89c0,.06,0,.12,0,.13a0,0,0,0,0,0,0s0,0,.1,0h.61s.07,0,.07,0a0,0,0,0,0,0,0,.84.84,0,0,1-.24,0c-.16-.05-.18-.25-.2-.39Zm0,0"/><path class="cls-1" d="M59.41,25.1c0,1.71,0,3.12-.09,3.87-.07.52-.16.91-.52,1a2.5,2.5,0,0,1-.54.07c-.1,0-.14.06-.14.11s.09.15.29.15c.53,0,1.66-.06,1.75-.06s1.21.06,2.19.06c.2,0,.29-.06.29-.15s0-.11-.14-.11a7,7,0,0,1-.81-.07c-.53-.07-.64-.46-.69-1-.09-.75-.09-2.16-.09-3.87V23.58c0-.13,0-.16.12-.16.31,0,2.25,0,2.7,0a1.09,1.09,0,0,1,.93.64,3.4,3.4,0,0,1,.11.65c0,.08,0,.16.12.16s.13-.18.13-.34,0-.84.07-1.2c0-.59.14-.89.14-1s0-.14-.09-.14-.12.09-.2.18-.39.28-.82.32h-.8l-2.29,0c-.1,0-.12-.05-.12-.16V17.68c0-.14.05-.19.16-.19l2.75.05a1.36,1.36,0,0,1,1.21.57,1.87,1.87,0,0,1,.16.68c0,.12,0,.22.13.22s.12-.11.14-.2.07-1,.09-1.18c.06-.5.14-.71.14-.84s0-.16-.1-.16-.15.07-.25.11a4.46,4.46,0,0,1-.79.07c-.41,0-4,0-4.39,0l-.73,0c-.4,0-.88,0-1.29,0-.2,0-.29,0-.29.15s.08.1.15.1a2.91,2.91,0,0,1,.6.06c.59.12.74.41.77,1s0,1.08,0,3.86ZM70,25.1c0,1.71,0,3.12-.09,3.87-.07.52-.16.91-.52,1a2.41,2.41,0,0,1-.53.07c-.11,0-.15.06-.15.11s.09.15.29.15c.54,0,1.66-.06,1.68-.06s1.21.06,2.2.06c.19,0,.28-.06.28-.15s0-.11-.14-.11a6.51,6.51,0,0,1-.8-.07c-.54-.07-.65-.46-.7-1-.09-.75-.09-2.16-.09-3.87v-.43c0-.09,0-.15.13-.15l2.19,0a.28.28,0,0,1,.23.11c.36.46,1.2,1.66,2,2.64a9.48,9.48,0,0,0,2.41,2.63,3.75,3.75,0,0,0,1.91.34H81.5c.32,0,.43,0,.43-.15s-.07-.11-.16-.11a4.61,4.61,0,0,1-.7-.05,3.72,3.72,0,0,1-2.18-1.29c-1-1.1-2.25-2.69-3.71-4.57A5.49,5.49,0,0,0,77.34,20a3.13,3.13,0,0,0-1.23-2.43,5.51,5.51,0,0,0-3.27-.79c-.56,0-1.91.06-2.11.06s-1.21-.06-2-.06c-.19,0-.28,0-.28.15s.07.1.14.1a3.08,3.08,0,0,1,.61.06c.59.12.73.41.77,1s0,1.08,0,3.86Zm1.43-7.43a.22.22,0,0,1,.14-.22,5.59,5.59,0,0,1,1.2-.11c1.91,0,3.09,1.34,3.09,3.58a3.26,3.26,0,0,1-1.09,2.75,2.36,2.36,0,0,1-1.34.34,4.88,4.88,0,0,1-1.87-.29.24.24,0,0,1-.13-.22Zm12,7.43c0,1.71,0,3.12-.09,3.87-.07.52-.16.91-.52,1a2.5,2.5,0,0,1-.54.07c-.1,0-.14.06-.14.11s.09.15.29.15.68,0,1,0l.72,0c.26,0,.69,0,1.39.06s1.68,0,3,0c.69,0,.84,0,1-.47a16.71,16.71,0,0,0,.23-1.73c0-.12,0-.27-.1-.27s-.13.07-.16.27c-.13.74-.34,1.09-.81,1.29a5.26,5.26,0,0,1-1.71.19c-1.75,0-2-.23-2.07-1.46,0-.38,0-2.45,0-3V23.52a.11.11,0,0,1,.12-.12c.31,0,2.07,0,2.56.09.69.07.85.37.92.62a1.66,1.66,0,0,1,.08.59c0,.09,0,.16.12.16s.13-.19.13-.34,0-.78.07-1.14c0-.59.14-.89.14-1s0-.14-.09-.14-.14.09-.27.23-.41.21-.84.25-2.6,0-2.84,0c-.08,0-.1-.05-.1-.17V17.65c0-.13,0-.18.1-.18s2.15,0,2.45.05c1,.11,1.14.32,1.27.61a1.9,1.9,0,0,1,.11.64c0,.14,0,.24.14.24s.11-.11.12-.2.07-1,.09-1.18c.06-.5.15-.71.15-.84s0-.16-.08-.16-.16.07-.25.09a5.62,5.62,0,0,1-.76.09c-.41,0-4,0-4.09,0l-.73,0c-.4,0-.88,0-1.29,0-.2,0-.29,0-.29.15s.08.1.15.1a2.91,2.91,0,0,1,.6.06c.59.12.74.41.77,1s0,1.08,0,3.86Zm10.89,0c0,1.71,0,3.12-.09,3.87-.07.52-.16.91-.52,1a2.41,2.41,0,0,1-.53.07c-.11,0-.14.06-.14.11s.08.15.28.15.68,0,1,0l.71,0,1.48.11c.77.05,1.72.11,2.49.11a7.08,7.08,0,0,0,5.41-2.06,7.28,7.28,0,0,0,1.93-5,6.39,6.39,0,0,0-1.73-4.53c-2.13-2.2-5.4-2-7.17-2-1.07,0-2.19.06-2.41.06s-1.21-.06-2-.06c-.19,0-.28,0-.28.15s.07.1.14.1a3,3,0,0,1,.61.06c.59.12.73.41.77,1s0,1.08,0,3.86Zm1.5-3.43c0-1.38,0-3.2,0-3.81a.32.32,0,0,1,.22-.36,4.81,4.81,0,0,1,1.15-.12c2.13,0,4.17.25,5.84,2a6.35,6.35,0,0,1,1.72,4.5,6.25,6.25,0,0,1-1.43,4.27,6,6,0,0,1-4.25,1.66c-2.11,0-2.8-.38-3-.72a3.52,3.52,0,0,1-.2-1.35c0-.34,0-2,0-3.88ZM128.61,17c0-.35-.08-.49-.21-.49s-.2.13-.27.29L122.88,28l-5.46-11.23c-.09-.2-.16-.27-.27-.27s-.18.13-.2.33l-1.28,11.64c-.07.68-.13,1.37-.72,1.48a2.39,2.39,0,0,1-.53.05c-.09,0-.18,0-.18.09s.12.17.3.17c.48,0,1.34-.06,1.5-.06s1,.06,1.66.06c.22,0,.32,0,.32-.17S118,30,117.88,30a3.22,3.22,0,0,1-.68-.08.58.58,0,0,1-.46-.56c0-.3,0-.62,0-.91l.71-8.29h.07c.2.49,2.2,4.77,2.36,5.09s1.63,3.27,2.09,4.15c.34.64.43.82.55.82s.22-.16.59-.95L127.51,20h0l.86,9.27c0,.32,0,.63-.07.65s-.13,0-.13.12.09.14.5.18c.66.06,2.59.07,3,.07.22,0,.38-.05.38-.16S132,30,131.94,30a3.89,3.89,0,0,1-1.16-.16c-.77-.25-.9-1.25-1-1.89Zm5.18,11.3c-.32.89-.67,1.57-1.5,1.68a4.63,4.63,0,0,1-.51,0c-.09,0-.16,0-.16.11s.1.15.33.15c.85,0,1.83-.06,2-.06s1,.06,1.4.06c.16,0,.26,0,.26-.15s0-.11-.17-.11h-.18c-.31,0-.68-.16-.68-.51a3.84,3.84,0,0,1,.25-1.2l1.07-3.16c0-.09.09-.14.18-.14h3.84a.15.15,0,0,1,.16.1l1.66,4.4c.11.28,0,.44-.11.48s-.12.05-.12.12.19.11.53.13c1.23,0,2.54,0,2.81,0s.35,0,.35-.15-.07-.11-.17-.11a2.28,2.28,0,0,1-.72-.1c-.37-.11-.89-.4-1.53-2-1.09-2.71-3.9-10.09-4.17-10.76s-.28-.65-.39-.65-.18.11-.39.7Zm2.51-3.95c-.06,0-.09,0-.06-.12l1.57-4.82q.13-.41.27,0l1.7,4.82c0,.07,0,.12-.07.12ZM149,30.52a4.69,4.69,0,0,0,2.7-.75,3.68,3.68,0,0,0,1.51-3c0-1.43-.5-2.54-2.6-4.2l-.5-.39c-1.72-1.34-2.18-2-2.18-3a2,2,0,0,1,2.19-2.07c1.65,0,2.13.75,2.24.94a3.5,3.5,0,0,1,.23.9c0,.14,0,.23.14.23s.13-.13.13-.41c0-1.21.07-1.8.07-1.89s0-.13-.18-.13a3,3,0,0,1-.62-.09,6.86,6.86,0,0,0-1.67-.18c-2.26,0-3.69,1.31-3.69,3.22,0,1.21.42,2.32,2.32,3.87l.8.66c1.54,1.27,2.05,2,2.05,3.22a2.38,2.38,0,0,1-2.55,2.37A2.43,2.43,0,0,1,146.78,28a3.36,3.36,0,0,1-.05-.66c0-.14,0-.2-.13-.2s-.13.09-.14.29-.09,1-.09,1.89c0,.49,0,.56.27.68a5.36,5.36,0,0,0,2.39.48ZM159.46,22c0-2.78,0-3.28,0-3.86s.17-.92.66-1a2.34,2.34,0,0,1,.44-.06c.08,0,.15,0,.15-.1s-.09-.15-.29-.15c-.54,0-1.66.06-1.75.06s-1.21-.06-1.8-.06c-.2,0-.29,0-.29.15s.07.1.14.1a2.58,2.58,0,0,1,.56.07c.39.09.57.4.6,1s0,1.08,0,3.86V25.1c0,1.71,0,3.12-.09,3.87-.07.52-.16.91-.52,1a2.41,2.41,0,0,1-.53.07c-.11,0-.15.06-.15.11s.09.15.29.15c.54,0,1.66-.06,1.75-.06s1.21.06,2.2.06c.19,0,.28-.06.28-.15s0-.11-.14-.11a6.51,6.51,0,0,1-.8-.07c-.54-.07-.65-.46-.7-1-.09-.75-.09-2.16-.09-3.87ZM177.91,17c0-.35-.09-.49-.22-.49s-.19.13-.26.29L172.18,28l-5.47-11.23c-.09-.2-.16-.27-.27-.27s-.18.13-.19.33L165,28.49c-.07.68-.12,1.37-.71,1.48a2.51,2.51,0,0,1-.54.05c-.09,0-.18,0-.18.09s.13.17.3.17c.49,0,1.34-.06,1.51-.06s1,.06,1.66.06c.21,0,.32,0,.32-.17s-.07-.09-.15-.09a3.15,3.15,0,0,1-.67-.08.59.59,0,0,1-.47-.56c0-.3,0-.62,0-.91l.72-8.29h.07c.19.49,2.19,4.77,2.35,5.09s1.63,3.27,2.09,4.15c.34.64.43.82.56.82s.21-.16.59-.95L176.8,20h.06l.85,9.27c0,.32,0,.63-.07.65s-.12,0-.12.12.09.14.49.18c.67.06,2.6.07,3,.07.21,0,.37-.05.37-.16s-.05-.09-.14-.09a3.89,3.89,0,0,1-1.16-.16c-.77-.25-.89-1.25-1-1.89Zm4.62,6.49c0,3.22,2,7,6.93,7a7,7,0,0,0,7.13-7.3c0-4.16-3-6.7-7-6.7a6.92,6.92,0,0,0-7,7Zm1.7-.49c0-3.92,2.23-5.88,5.22-5.88,2.82,0,5.43,2.3,5.43,6.59,0,5.2-3.33,6.13-4.93,6.13-3.22,0-5.72-2.68-5.72-6.84Zm0,0"/><path class="cls-1" d="M96.1,40.15c0,.7,0,1.31,0,1.63s-.07.39-.22.42a1.7,1.7,0,0,1-.28,0c-.09,0-.12,0-.12.06s.06.08.16.08l.52,0h.44c.11,0,.34,0,.57,0l.54,0c1.41,0,2-.85,2-1.67a1.86,1.86,0,0,0-1.39-1.65,1.67,1.67,0,0,0,.78-1.34c0-.41-.24-1.15-1.63-1.15-.26,0-.56,0-.93,0-.16,0-.64,0-1,0-.12,0-.17,0-.17.07s0,.07.13.07l.3,0c.25.06.31.18.32.44s0,.46,0,1.62ZM97,37c0-.08,0-.11.07-.13h.25c.66,0,1,.67,1,1.18a1,1,0,0,1-.32.81.75.75,0,0,1-.55.15l-.36,0s0,0,0-.09Zm1.75,4a.9.9,0,0,1-.93,1,1.26,1.26,0,0,1-.55-.1c-.25-.1-.27-.23-.27-.73V39.41s0-.06,0-.06h.32a1.19,1.19,0,0,1,.64.18,1.84,1.84,0,0,1,.74,1.53Zm5.73-.65s.06,0,.07,0l.62,1.58a.13.13,0,0,1-.07.17c-.08,0-.11,0-.11.07s.09.06.23.06c.61,0,1.17,0,1.45,0s.35,0,.35-.08,0-.06-.1-.06l-.32,0c-.16,0-.38-.15-.67-.83-.5-1.17-1.72-4.23-1.9-4.65-.08-.18-.12-.24-.19-.24s-.13.08-.22.3l-1.92,4.75c-.15.38-.3.64-.65.68l-.24,0c-.06,0-.09,0-.09.06s.05.08.14.08l.91,0,.81,0c.08,0,.13,0,.13-.08s0-.06-.12-.06h-.11c-.24,0-.3-.1-.3-.24a1.33,1.33,0,0,1,.11-.46l.41-1.05s0-.06.07-.06ZM102.94,40s0,0,0-.05l.71-1.87s0-.07,0-.07,0,0,0,.07l.69,1.88s0,0,0,0Zm5.84.12c0,.7,0,1.31,0,1.63s-.07.39-.22.42a1.7,1.7,0,0,1-.28,0c-.09,0-.12,0-.12.06s0,.08.15.08l.94,0,1.12,0c.1,0,.16,0,.16-.08s0-.06-.1-.06l-.37,0c-.23,0-.28-.2-.3-.42s0-.93,0-1.64V40a.05.05,0,0,1,.06-.06l.67,0a.16.16,0,0,1,.14,0c.1.12.45.64.75,1.06a3.59,3.59,0,0,0,1,1.12,1.53,1.53,0,0,0,.82.15h.73c.09,0,.14,0,.14-.08s0-.06-.09-.06l-.21,0a1.59,1.59,0,0,1-.86-.52c-.45-.48-1-1.16-1.66-2a2.13,2.13,0,0,0,1-1.71,1.35,1.35,0,0,0-.52-1.05,2.48,2.48,0,0,0-1.41-.33l-1.08,0c-.16,0-.64,0-1,0-.11,0-.17,0-.17.07s0,.07.14.07l.3,0c.25.06.31.18.32.44s0,.46,0,1.62Zm.9-3.07a.1.1,0,0,1,.07-.11,1.88,1.88,0,0,1,.41,0,1.23,1.23,0,0,1,1.17,1.4,1.35,1.35,0,0,1-.45,1.15.78.78,0,0,1-.55.13,1.81,1.81,0,0,1-.58-.08s-.07,0-.07-.13Zm5.81,3.07c0,.7,0,1.31,0,1.63s-.07.39-.23.42a1.57,1.57,0,0,1-.27,0c-.09,0-.13,0-.13.06s.06.08.16.08l.53,0H116c.12,0,.35,0,.58,0l.53,0c1.41,0,2-.85,2-1.67a1.86,1.86,0,0,0-1.39-1.65,1.67,1.67,0,0,0,.78-1.34c0-.41-.24-1.15-1.63-1.15-.26,0-.56,0-.93,0-.15,0-.63,0-1,0-.12,0-.17,0-.17.07s0,.07.13.07l.3,0c.25.06.31.18.33.44s0,.46,0,1.62Zm.92-3.11c0-.08,0-.11.07-.13h.25c.66,0,1,.67,1,1.18a1,1,0,0,1-.31.81.77.77,0,0,1-.56.15l-.35,0s-.06,0-.06-.09Zm1.75,4a.89.89,0,0,1-.92,1,1.28,1.28,0,0,1-.56-.1c-.25-.1-.27-.23-.27-.73V39.41s0-.06,0-.06h.33a1.18,1.18,0,0,1,.63.18,1.84,1.84,0,0,1,.74,1.53Zm3.53-.92c0,.7,0,1.31,0,1.63s-.07.39-.22.42a1.7,1.7,0,0,1-.28,0c-.09,0-.12,0-.12.06s0,.08.15.08l.53,0h.44c.23,0,.46,0,.79,0l1.33,0c.29,0,.36,0,.41-.2a5.65,5.65,0,0,0,.1-.85c0-.07,0-.14-.06-.14s-.07,0-.08.12c-.06.31-.15.47-.35.56a1.8,1.8,0,0,1-.72.1c-.78,0-.9-.12-.92-.65,0-.22,0-.92,0-1.18v-.61s0-.07,0-.07.94,0,1.08,0,.39.14.43.3a.93.93,0,0,1,0,.27.06.06,0,0,0,.07.07c.07,0,.07-.08.07-.14s0-.36,0-.52c0-.39.06-.51.06-.55s0-.06,0-.06-.07,0-.12.09-.19.1-.37.12h-1.22s-.06,0-.06-.08V37.06c0-.05,0-.07.06-.07s1,0,1.08,0c.38,0,.46.14.52.27a1.1,1.1,0,0,1,0,.28c0,.07,0,.11.07.11s.07,0,.08-.09,0-.43,0-.5a4.26,4.26,0,0,1,.06-.5s0-.07,0-.07l-.12,0a3,3,0,0,1-.33.05h-1.91l-.49,0h-.62c-.11,0-.17,0-.17.07s0,.07.13.07l.3,0c.25.06.32.18.33.44s0,.46,0,1.62Zm5.77,0c0,.7,0,1.31,0,1.63s-.07.39-.22.42a1.7,1.7,0,0,1-.27,0c-.1,0-.13,0-.13.06s.06.08.16.08l.93,0,1.13,0c.09,0,.15,0,.15-.08s0-.06-.09-.06l-.38,0c-.23,0-.28-.2-.3-.42s0-.93,0-1.64V40a.06.06,0,0,1,.06-.06l.67,0c.06,0,.1,0,.14,0s.45.64.76,1.06a3.47,3.47,0,0,0,1,1.12,1.55,1.55,0,0,0,.82.15h.73c.09,0,.14,0,.14-.08s0-.06-.09-.06l-.21,0a1.59,1.59,0,0,1-.86-.52c-.45-.48-1-1.16-1.66-2a2.13,2.13,0,0,0,1-1.71,1.35,1.35,0,0,0-.52-1.05,2.46,2.46,0,0,0-1.41-.33l-1.08,0c-.16,0-.64,0-1,0-.12,0-.17,0-.17.07s0,.07.13.07l.3,0c.25.06.31.18.33.44s0,.46,0,1.62Zm.9-3.07a.1.1,0,0,1,.07-.11,1.94,1.94,0,0,1,.41,0,1.23,1.23,0,0,1,1.17,1.4,1.35,1.35,0,0,1-.45,1.15.77.77,0,0,1-.54.13,1.83,1.83,0,0,1-.59-.08c-.05,0-.07,0-.07-.13Zm6.4,5.4a2.16,2.16,0,0,0,1.21-.32,1.55,1.55,0,0,0,.72-1.33c0-.73-.33-1.26-1.25-1.95l-.22-.16c-.63-.48-.81-.75-.81-1.11a.81.81,0,0,1,.91-.78,1,1,0,0,1,.84.37,1,1,0,0,1,.2.51c0,.09,0,.13.07.13s.09-.06.09-.23c0-.59,0-.81,0-.91s0-.08-.11-.09a3.47,3.47,0,0,0-1-.13c-1.06,0-1.76.6-1.76,1.44a2.26,2.26,0,0,0,1.13,1.81l.35.28c.63.5.75.85.75,1.23a.94.94,0,0,1-1,.87,1.06,1.06,0,0,1-1.09-.78,1.54,1.54,0,0,1-.07-.38c0-.07,0-.14-.08-.14s-.08.09-.09.2,0,.58,0,1c0,.17,0,.21.15.27a2.73,2.73,0,0,0,1.12.2ZM140.45,39s0,0,0-.06V38.8c0-1.16,0-1.38,0-1.62s.08-.4.29-.44l.22,0c.09,0,.14,0,.14-.07s-.06-.07-.16-.07l-1,0c-.21,0-.69,0-1.1,0-.11,0-.16,0-.16.07s0,.07.13.07l.3,0c.25.06.31.18.33.44s0,.46,0,1.62v1.35c0,.7,0,1.31,0,1.63s-.07.39-.22.42a1.7,1.7,0,0,1-.27,0c-.1,0-.13,0-.13.06s.06.08.16.08l1,0,1.19,0c.1,0,.16,0,.16-.08s0-.06-.12-.06l-.39,0c-.24,0-.28-.2-.3-.42s0-.93,0-1.63v-.68a0,0,0,0,1,0,0h2.93a0,0,0,0,1,0,0v.68c0,.7,0,1.31,0,1.63s-.07.39-.23.42a1.7,1.7,0,0,1-.27,0c-.09,0-.13,0-.13.06s.06.08.17.08l.95,0,1.2,0c.09,0,.15,0,.15-.08s0-.06-.12-.06l-.39,0c-.23,0-.28-.2-.3-.42s0-.93,0-1.63V38.8c0-1.16,0-1.38,0-1.62s.08-.4.29-.44l.22,0c.09,0,.14,0,.14-.07s-.06-.07-.16-.07l-1,0c-.2,0-.69,0-1.1,0-.11,0-.16,0-.16.07s0,.07.13.07l.3,0c.25.06.31.18.33.44s0,.46,0,1.62V39s0,.06,0,.06ZM150,42.48a3,3,0,0,0,3.17-3.14,2.77,2.77,0,0,0-3.09-2.86,3,3,0,1,0-.08,6Zm.32-.39c-1.47,0-2.35-1.26-2.35-2.85,0-1.91,1-2.4,1.88-2.4,1.26,0,2.25,1.07,2.25,2.78,0,2.21-1.24,2.47-1.78,2.47Zm5.38-1.94c0,.7,0,1.31,0,1.63s-.06.39-.22.42a1.7,1.7,0,0,1-.27,0c-.09,0-.12,0-.12.06s0,.08.15.08l1,0,1.19,0c.08,0,.14,0,.14-.08s0-.06-.12-.06l-.39,0c-.23,0-.27-.2-.3-.42s0-.93,0-1.63V37.09c0-.09,0-.13.06-.15a1.21,1.21,0,0,1,.3,0,1.16,1.16,0,0,1,.76.3,1.47,1.47,0,0,1,.45,1.15,1.21,1.21,0,0,1-1,1.26c-.16,0-.22,0-.22.08s.06.06.09.07h.16a1.8,1.8,0,0,0,1.89-1.85,1.31,1.31,0,0,0-.39-.91,1.82,1.82,0,0,0-1.42-.44l-1.11,0c-.21,0-.7,0-1.1,0-.12,0-.17,0-.17.07s0,.07.13.07l.3,0c.25.06.31.18.33.44s0,.46,0,1.62Zm0,0"/><path class="cls-1" d="M67.09,39.53H93.56v.19H67.09Zm93.69-.29h26.57v.18H160.78Zm1.92.34"/></svg>